<svg width="177" height="200" viewBox="0 0 177 200" fill="none" xmlns="http://www.w3.org/2000/svg">
<path d="M72.2095 32.3206L61.4382 51.3366L57.7148 80.1929L65.6936 81.6557L90.0287 87.1078L117.954 78.7302L116.358 63.3046L105.055 37.3738L81.784 27.4004L72.2095 32.3206Z" fill="#CDE4A9"/>
<path d="M65.9548 50.8042C63.5168 55.2812 61.0358 62.6404 62.8975 75.6723C54.5199 74.6085 44.1475 73.9436 35.5039 73.4117L36.7006 71.8159C36.6119 70.0429 37.1261 65.7521 39.8921 62.7734C40.0694 61.1777 40.8494 57.4011 42.5513 55.0606C42.507 53.6418 42.9768 50.2459 45.2109 48.0128C45.7428 47.2149 47.3384 45.4596 49.4658 44.8213C49.2885 44.245 49.2796 42.9596 50.6626 42.4277C51.0615 42.3833 51.8594 41.8159 51.8594 39.9011C52.1697 38.7042 53.136 36.0447 54.519 34.9808C55.4498 34.7592 57.3913 33.8638 57.7105 32.0553C57.7991 31.7007 58.4551 30.7787 60.37 29.9277C61.7885 28.4206 65.3434 24.9011 68.2158 22.8798C69.6786 21.683 73.7743 18.9702 78.4551 17.6936C79.386 17.3833 82.3115 16.8159 86.5668 17.0287L88.4285 16.2307C90.8222 16.1864 96.3275 16.3637 99.1998 17.4275C99.9977 18.2697 102.099 20.0339 104.12 20.353L107.843 22.0818C110.769 23.6775 116.939 27.6935 118.216 30.9913C118.26 32.2768 118.854 35.3265 120.875 37.2413C122.471 37.596 126.141 39.103 128.056 42.2945C128.898 43.447 130.131 46.603 128.322 50.0073C127.923 50.9825 127.631 53.3584 129.652 55.0605L133.375 56.5233C134.085 57.2325 135.343 59.3956 134.705 62.3743C135.414 62.7289 136.833 63.9169 136.833 65.8318C136.833 66.7183 137.445 68.9701 139.891 70.885C141.398 71.3282 144.253 72.7201 143.615 74.7413C140.468 74.6084 130.929 74.635 117.95 75.8052L110.902 76.3371C110.503 75.7165 109.572 73.4648 109.04 69.4222L109.705 63.3052C109.528 61.3548 107.843 56.7892 102.524 54.1296L98.6679 48.5445C98.0473 47.1704 97.1785 43.4116 98.6679 39.369L81.2477 32.188C79.7406 31.7891 73.8274 36.2297 65.9548 50.8042Z" fill="#568225"/>
<path fill-rule="evenodd" clip-rule="evenodd" d="M63.2982 57.1889C64.7876 56.7633 66.667 56.7456 67.4205 56.7899C71.4631 55.407 76.5518 55.8591 78.5908 56.2581C80.9312 56.8963 83.2893 58.1197 84.1759 58.6517L90.8248 58.5187C92.4205 57.2421 95.4791 56.7456 96.8088 56.657C99.6812 56.2314 104.389 56.4797 106.383 56.657L110.107 58.9176V62.1091L108.777 64.6357C108.139 68.04 106.206 70.2208 105.319 70.8857C103.511 72.5878 100.665 72.9247 99.4684 72.8804C96.5961 72.8804 94.1936 71.5506 93.3514 70.8857C90.9046 68.758 89.6723 65.9212 89.362 64.7687C88.9365 63.3857 88.9188 61.5329 88.9631 60.7793C88.3248 59.9283 87.19 59.8928 86.7025 59.9814C85.2131 60.407 84.9294 60.6907 84.9737 60.7793C85.1865 62.2687 84.5305 64.946 84.1759 66.0985C83.5376 68.0134 80.6298 70.2651 79.2557 71.1517C75.8514 72.5346 73.4046 72.5258 72.6067 72.3485C68.8833 71.391 67.0659 69.2013 66.6227 68.2261C64.9205 64.7155 64.6723 61.5329 64.761 60.3804C64.3354 58.891 62.8993 58.5187 62.2344 58.5187L63.2982 57.1889ZM66.2227 60.6466V63.8381C66.3113 64.6359 66.8344 66.6837 68.2173 68.4922C68.5276 69.0241 69.7599 70.2475 72.2067 70.8858C72.9602 71.0188 75.079 71.1251 77.5258 70.4868C78.2351 70.2652 79.9993 69.423 81.3822 67.8273C82.2688 66.4975 83.962 63.1998 83.6429 60.6466L82.3131 59.1837C81.5595 58.6075 79.3875 57.3753 76.728 57.0562C75.4425 56.9675 72.1269 56.9232 69.1482 57.4551C68.3946 57.721 66.7546 58.7317 66.2227 60.6466ZM90.5578 64.1036V60.9122C90.868 60.2473 92.0205 58.7315 94.1482 57.9866C96.6748 57.6763 102.313 57.2419 104.654 57.9866C105.451 58.1639 107.207 59.0505 107.845 61.1781C108.022 61.8873 108.111 63.9707 107.047 66.6302C106.515 67.6497 105.026 69.9281 103.324 70.8856C102.127 71.2845 99.2812 71.976 97.4727 71.5505C96.9407 71.4618 95.3716 70.859 93.3503 69.1568C92.5968 68.3146 90.9833 66.1249 90.5578 64.1036Z" fill="#568225"/>
<path fill-rule="evenodd" clip-rule="evenodd" d="M14.8906 155.138L15.0715 151.721V124.123L15.8691 76.6816C15.6032 74.1847 16.4008 72.6077 18.2619 72.082C18.2619 72.082 42.7451 73.7036 58.2751 75.6303C65.8148 76.5657 75.7782 78.3463 77.4177 78.6529C82.416 80.2299 84.5519 81.9384 84.995 82.5954L86.989 82.0698C92.8381 80.0722 98.1998 78.9596 100.149 78.6529L111.582 77.0759L112.397 77.0228L112.397 77.0228C121.692 76.4168 129.071 75.9357 131.655 75.8931C140.801 75.3675 151.506 75.0608 155.45 75.1046C157.213 75.2881 158.092 76.8189 158.582 77.6717C158.654 77.7963 158.717 77.9065 158.774 77.9958L157.311 131.746V161.177C152.08 168.659 145.909 175.272 138.997 180.792L93.9016 195.746L49.2574 188.928C35.3264 181.232 23.4716 169.52 14.8906 155.138Z" fill="#568225"/>
<g filter="url(#filter0_d)">
<path d="M103.775 77.3587C98.062 78.2336 86.3978 80.5782 85.4412 82.9578C85.1755 82.083 83.2625 79.8783 77.7359 78.0586C75.1231 77.3004 67.7986 75.469 59.4025 74.2092L45.8517 72.6345C42.5304 72.2262 32.8323 71.3047 20.6101 70.8848L18.2188 72.1096L44.9217 74.2092L59.0039 75.784C61.5281 76.1922 68.1706 77.3937 74.5475 78.9335L79.5958 80.3333C81.1014 81.0331 84.219 82.7829 84.6441 84.1826H87.3011C89.781 82.8995 96.7335 79.9833 104.705 78.5835C111.613 77.767 128.671 76.0639 141.637 75.784L156.251 75.2591L153.461 73.3344C153.239 73.3344 149.714 73.4744 137.386 74.0343C132.78 74.1509 121.098 74.7341 111.214 76.1339L103.775 77.3587Z" fill="#CDE4A9"/>
</g>
<path d="M175.064 100C175.064 154.8 135.982 199 88.0319 199C40.0815 199 1 154.8 1 100C1 45.2002 40.0815 1 88.0319 1C135.982 1 175.064 45.2002 175.064 100Z" stroke="#5A8B23" stroke-width="2"/>
<path d="M155.913 155.474C153.558 161.314 148.441 170.401 139.825 178.77C128.793 189.484 112.047 198.999 88.0311 198.999C63.9843 198.999 48.8228 190.846 39.5972 176.032C30.5621 161.524 27.1205 140.48 26.9375 113.971C31.0252 118.088 33.9642 124.113 36.6123 131.121C37.8923 134.508 39.0917 138.088 40.3211 141.757C40.5224 142.358 40.7246 142.962 40.928 143.567C42.3704 147.859 43.8748 152.239 45.6011 156.492C49.05 164.989 53.4188 173.067 60.067 179.019C66.745 184.997 75.6503 188.765 88.0311 188.765C112.497 188.765 126.455 183.441 136.234 176.115C141.105 172.467 144.902 168.349 148.418 164.236C149.267 163.243 150.097 162.253 150.92 161.272C152.577 159.297 154.207 157.353 155.913 155.474Z" fill="#CDE4A9" stroke="#5A8B23" stroke-width="2"/>
<path d="M72.2095 32.3206L61.4382 51.3366L57.7148 80.1929L65.6936 81.6557L90.0287 87.1078L117.954 78.7302L116.358 63.3046L105.055 37.3738L81.784 27.4004L72.2095 32.3206Z" fill="#CDE4A9"/>
<path d="M65.9548 50.8042C63.5168 55.2812 61.0358 62.6404 62.8975 75.6723C54.5199 74.6085 44.1475 73.9436 35.5039 73.4117L36.7006 71.8159C36.6119 70.0429 37.1261 65.7521 39.8921 62.7734C40.0694 61.1777 40.8494 57.4011 42.5513 55.0606C42.507 53.6418 42.9768 50.2459 45.2109 48.0128C45.7428 47.2149 47.3384 45.4596 49.4658 44.8213C49.2885 44.245 49.2796 42.9596 50.6626 42.4277C51.0615 42.3833 51.8594 41.8159 51.8594 39.9011C52.1697 38.7042 53.136 36.0447 54.519 34.9808C55.4498 34.7592 57.3913 33.8638 57.7105 32.0553C57.7991 31.7007 58.4551 30.7787 60.37 29.9277C61.7885 28.4206 65.3434 24.9011 68.2158 22.8798C69.6786 21.683 73.7743 18.9702 78.4551 17.6936C79.386 17.3833 82.3115 16.8159 86.5668 17.0287L88.4285 16.2307C90.8222 16.1864 96.3275 16.3637 99.1998 17.4275C99.9977 18.2697 102.099 20.0339 104.12 20.353L107.843 22.0818C110.769 23.6775 116.939 27.6935 118.216 30.9913C118.26 32.2768 118.854 35.3265 120.875 37.2413C122.471 37.596 126.141 39.103 128.056 42.2945C128.898 43.447 130.131 46.603 128.322 50.0073C127.923 50.9825 127.631 53.3584 129.652 55.0605L133.375 56.5233C134.085 57.2325 135.343 59.3956 134.705 62.3743C135.414 62.7289 136.833 63.9169 136.833 65.8318C136.833 66.7183 137.445 68.9701 139.891 70.885C141.398 71.3282 144.253 72.7201 143.615 74.7413C140.468 74.6084 130.929 74.635 117.95 75.8052L110.902 76.3371C110.503 75.7165 109.572 73.4648 109.04 69.4222L109.705 63.3052C109.528 61.3548 107.843 56.7892 102.524 54.1296L98.6679 48.5445C98.0473 47.1704 97.1785 43.4116 98.6679 39.369L81.2477 32.188C79.7406 31.7891 73.8274 36.2297 65.9548 50.8042Z" fill="#568225"/>
<path fill-rule="evenodd" clip-rule="evenodd" d="M63.2982 57.1889C64.7876 56.7633 66.667 56.7456 67.4205 56.7899C71.4631 55.407 76.5518 55.8591 78.5908 56.2581C80.9312 56.8963 83.2893 58.1197 84.1759 58.6517L90.8248 58.5187C92.4205 57.2421 95.4791 56.7456 96.8088 56.657C99.6812 56.2314 104.389 56.4797 106.383 56.657L110.107 58.9176V62.1091L108.777 64.6357C108.139 68.04 106.206 70.2208 105.319 70.8857C103.511 72.5878 100.665 72.9247 99.4684 72.8804C96.5961 72.8804 94.1936 71.5506 93.3514 70.8857C90.9046 68.758 89.6723 65.9212 89.362 64.7687C88.9365 63.3857 88.9188 61.5329 88.9631 60.7793C88.3248 59.9283 87.19 59.8928 86.7025 59.9814C85.2131 60.407 84.9294 60.6907 84.9737 60.7793C85.1865 62.2687 84.5305 64.946 84.1759 66.0985C83.5376 68.0134 80.6298 70.2651 79.2557 71.1517C75.8514 72.5346 73.4046 72.5258 72.6067 72.3485C68.8833 71.391 67.0659 69.2013 66.6227 68.2261C64.9205 64.7155 64.6723 61.5329 64.761 60.3804C64.3354 58.891 62.8993 58.5187 62.2344 58.5187L63.2982 57.1889ZM66.2227 60.6466V63.8381C66.3113 64.6359 66.8344 66.6837 68.2173 68.4922C68.5276 69.0241 69.7599 70.2475 72.2067 70.8858C72.9602 71.0188 75.079 71.1251 77.5258 70.4868C78.2351 70.2652 79.9993 69.423 81.3822 67.8273C82.2688 66.4975 83.962 63.1998 83.6429 60.6466L82.3131 59.1837C81.5595 58.6075 79.3875 57.3753 76.728 57.0562C75.4425 56.9675 72.1269 56.9232 69.1482 57.4551C68.3946 57.721 66.7546 58.7317 66.2227 60.6466ZM90.5578 64.1036V60.9122C90.868 60.2473 92.0205 58.7315 94.1482 57.9866C96.6748 57.6763 102.313 57.2419 104.654 57.9866C105.451 58.1639 107.207 59.0505 107.845 61.1781C108.022 61.8873 108.111 63.9707 107.047 66.6302C106.515 67.6497 105.026 69.9281 103.324 70.8856C102.127 71.2845 99.2812 71.976 97.4727 71.5505C96.9407 71.4618 95.3716 70.859 93.3503 69.1568C92.5968 68.3146 90.9833 66.1249 90.5578 64.1036Z" fill="#568225"/>
<path fill-rule="evenodd" clip-rule="evenodd" d="M14.8906 155.138L15.0715 151.721V124.123L15.8691 76.6816C15.6032 74.1847 16.4008 72.6077 18.2619 72.082C18.2619 72.082 42.7451 73.7036 58.2751 75.6303C65.8148 76.5657 75.7782 78.3463 77.4177 78.6529C82.416 80.2299 84.5519 81.9384 84.995 82.5954L86.989 82.0698C92.8381 80.0722 98.1998 78.9596 100.149 78.6529L111.582 77.0759L112.397 77.0228L112.397 77.0228C121.692 76.4168 129.071 75.9357 131.655 75.8931C140.801 75.3675 151.506 75.0608 155.45 75.1046C157.213 75.2881 158.092 76.8189 158.582 77.6717C158.654 77.7963 158.717 77.9065 158.774 77.9958L157.311 131.746V161.177C152.08 168.659 145.909 175.272 138.997 180.792L93.9016 195.746L49.2574 188.928C35.3264 181.232 23.4716 169.52 14.8906 155.138Z" fill="#568225"/>
<g filter="url(#filter1_d)">
<path d="M103.775 77.3587C98.062 78.2336 86.3978 80.5782 85.4412 82.9578C85.1755 82.083 83.2625 79.8783 77.7359 78.0586C75.1231 77.3004 67.7986 75.469 59.4025 74.2092L45.8517 72.6345C42.5304 72.2262 32.8323 71.3047 20.6101 70.8848L18.2188 72.1096L44.9217 74.2092L59.0039 75.784C61.5281 76.1922 68.1706 77.3937 74.5475 78.9335L79.5958 80.3333C81.1014 81.0331 84.219 82.7829 84.6441 84.1826H87.3011C89.781 82.8995 96.7335 79.9833 104.705 78.5835C111.613 77.767 128.671 76.0639 141.637 75.784L156.251 75.2591L153.461 73.3344C153.239 73.3344 149.714 73.4744 137.386 74.0343C132.78 74.1509 121.098 74.7341 111.214 76.1339L103.775 77.3587Z" fill="#CDE4A9"/>
</g>
<path d="M175.064 100C175.064 154.8 135.982 199 88.0319 199C40.0815 199 1 154.8 1 100C1 45.2002 40.0815 1 88.0319 1C135.982 1 175.064 45.2002 175.064 100Z" stroke="#5A8B23" stroke-width="2"/>
<path fill-rule="evenodd" clip-rule="evenodd" d="M27.9261 172.78C26.3631 171.106 24.854 169.368 23.402 167.57L31.649 166.755C33.7767 165.798 35.8157 165.47 36.5692 165.425C38.4841 164.237 40.0267 164.487 40.5586 164.76L41.0905 167.287C39.3884 169.202 36.126 170.39 34.7075 170.744C32.7926 171.383 31.516 171.542 31.1171 171.542C30.4861 172.076 29.2592 172.483 27.9261 172.78ZM23.3477 167.502C26.7693 167.054 31.2921 166.424 32.7128 166.09C32.9788 165.691 34.4681 164.76 38.2979 164.228L42.2873 162.5C43.1738 162.189 44.9469 161.117 44.9469 159.308C44.9025 158.688 44.4416 157.393 42.9522 157.181C42.243 157.269 39.9735 157.686 36.5692 158.643L34.3086 159.308C31.8706 159.574 26.4362 160.319 24.2022 161.17L19.022 161.71C20.3999 163.703 21.843 165.635 23.3477 167.502ZM18.3593 160.739C20.3277 160.113 23.7056 158.802 24.8671 157.447C27.2164 156.87 32.2341 155.372 33.5107 153.989C34.4859 153.812 36.6224 153.244 37.3671 152.393C38.7412 151.994 41.5692 150.957 41.8884 150C42.11 149.335 42.4203 147.792 41.8884 146.941C41.4894 146.321 39.7607 145.452 36.0373 146.941C31.0059 148.167 19.8926 151.144 13.9845 153.632C15.3538 156.075 16.8138 158.446 18.3593 160.739ZM13.165 152.141V151.728C13.9185 150.354 15.4256 147.101 15.4256 145.079C18.3511 142.686 24.8405 137.074 27.3937 133.776C27.704 132.491 27.7926 129.92 25.665 129.92C21.977 131.632 13.462 136.554 8.64844 142.643C10.0062 145.91 11.5151 149.08 13.165 152.141Z" fill="#CDE4A9"/>
<path fill-rule="evenodd" clip-rule="evenodd" d="M168.762 140.354C167.957 138.077 166.334 133.889 165.423 132.978C163.695 131.56 159.732 128.723 157.711 128.723L151.594 128.457L151.062 129.521C150.973 129.964 151.035 131.117 151.992 132.18C153.101 132.934 155.902 134.547 158.242 134.973C158.686 135.638 159.998 137.207 161.7 138.164C161.567 139.583 161.514 142.952 162.365 145.079L161.7 146.542C160.636 145.7 157.87 143.909 155.317 143.484C153.721 143.528 149.492 143.909 145.344 145.079C144.368 145.035 141.726 145.265 138.961 146.542C138.074 146.586 135.902 146.994 134.306 148.271V149.866C134.395 150.398 134.865 151.569 136.035 151.994C137.941 152.083 142.312 152.047 144.546 151.196C146.23 151.506 150.29 151.888 153.056 150.93C153.677 151.817 155.29 153.59 156.78 153.59H158.508L158.242 154.52C155.76 154.21 150.211 153.669 147.87 153.989C145.787 154.122 140.264 154.494 134.838 154.919L131.248 155.717C130.804 155.85 129.918 156.515 129.918 158.111C129.918 158.554 130.344 159.574 132.046 160.106H136.035C138.872 159.884 145.929 159.334 151.461 158.909C152.876 159.27 155.487 160 157.65 160.765C162.035 154.527 165.778 147.68 168.762 140.354ZM157.463 161.029C156.065 163.003 154.603 164.916 153.079 166.763C152.797 166.515 152.563 166.281 152.392 166.09C148.668 166.09 145.61 164.937 144.546 164.361C141.035 164.361 138.296 163.208 137.365 162.632C136.727 162.1 137.099 160.992 137.365 160.505L143.748 159.84L151.992 159.441L157.463 161.029Z" fill="#CDE4A9"/>
<defs>
<filter id="filter0_d" x="8.21875" y="55.8848" width="158.032" height="33.2979" filterUnits="userSpaceOnUse" color-interpolation-filters="sRGB">
<feFlood flood-opacity="0" result="BackgroundImageFix"/>
<feColorMatrix in="SourceAlpha" type="matrix" values="0 0 0 0 0 0 0 0 0 0 0 0 0 0 0 0 0 0 127 0"/>
<feOffset dy="-5"/>
<feGaussianBlur stdDeviation="5"/>
<feColorMatrix type="matrix" values="0 0 0 0 0.2 0 0 0 0 0.2 0 0 0 0 0.2 0 0 0 0.2 0"/>
<feBlend mode="normal" in2="BackgroundImageFix" result="effect1_dropShadow"/>
<feBlend mode="normal" in="SourceGraphic" in2="effect1_dropShadow" result="shape"/>
</filter>
<filter id="filter1_d" x="13.2188" y="63.8848" width="148.032" height="23.2979" filterUnits="userSpaceOnUse" color-interpolation-filters="sRGB">
<feFlood flood-opacity="0" result="BackgroundImageFix"/>
<feColorMatrix in="SourceAlpha" type="matrix" values="0 0 0 0 0 0 0 0 0 0 0 0 0 0 0 0 0 0 127 0"/>
<feOffset dy="-2"/>
<feGaussianBlur stdDeviation="2.5"/>
<feColorMatrix type="matrix" values="0 0 0 0 0.2 0 0 0 0 0.2 0 0 0 0 0.2 0 0 0 0.35 0"/>
<feBlend mode="normal" in2="BackgroundImageFix" result="effect1_dropShadow"/>
<feBlend mode="normal" in="SourceGraphic" in2="effect1_dropShadow" result="shape"/>
</filter>
</defs>
</svg>
