<svg width="32" height="32" viewBox="0 0 32 32" fill="none" xmlns="http://www.w3.org/2000/svg">
<path fill-rule="evenodd" clip-rule="evenodd" d="M3 1H29C29.5523 1 30 1.44772 30 2V14.0376C28.6949 12.3878 27.269 10.7327 25.9961 9.40449C25.2109 8.58503 24.4751 7.88082 23.8564 7.37776C23.5477 7.12681 23.2575 6.91705 22.997 6.76752C22.7543 6.6282 22.4689 6.49993 22.1891 6.5C22.0026 6.50005 21.8292 6.56872 21.6998 6.63265C21.5596 6.70198 21.4119 6.79617 21.2628 6.90324C20.9638 7.11788 20.6166 7.41524 20.2469 7.7584C19.5051 8.44679 18.6314 9.35803 17.8009 10.2609C16.9688 11.1655 16.1731 12.0692 15.586 12.7462C15.4461 12.9075 15.318 13.056 15.204 13.1886L14.1039 11.6803L14.081 11.6488L14.0534 11.6212C13.8504 11.4183 13.6491 11.2075 13.4567 11.006C13.2121 10.7498 12.9821 10.5089 12.7815 10.3187C12.4084 9.96502 11.9982 9.64222 11.5048 9.53644C10.9795 9.42384 10.4672 9.57566 9.93646 9.92697C9.41661 10.2711 8.83116 10.8372 8.12398 11.6453L8.12368 11.6456L2.1221 18.4792C2.04425 18.3369 2 18.1736 2 18V2C2 1.44772 2.44772 1 3 1ZM25.2741 10.0964C26.7818 11.6697 28.5182 13.7215 30 15.6683V18C30 18.5523 29.5523 19 29 19H3L2.99566 19L8.87564 12.3048L8.87622 12.3041C9.56891 11.5126 10.0834 11.029 10.4884 10.7608C10.8827 10.4998 11.1204 10.4768 11.2951 10.5142C11.5017 10.5585 11.7415 10.7107 12.0934 11.0444C12.2907 11.2314 12.4824 11.4329 12.7013 11.6631C12.8823 11.8534 13.082 12.0633 13.3188 12.3008L16.596 16.7946L17.404 16.2054L15.8093 14.0188C15.9561 13.8474 16.1359 13.6383 16.3414 13.4014C16.9248 12.7288 17.7136 11.8329 18.5369 10.9379C19.3618 10.0411 20.2145 9.15276 20.9271 8.49139C21.2845 8.15967 21.5966 7.89462 21.846 7.71555C21.971 7.62576 22.0698 7.56528 22.1429 7.52912C22.1718 7.51484 22.1916 7.50694 22.2033 7.50271C22.2158 7.50541 22.2363 7.51079 22.2657 7.52148C22.3243 7.54274 22.4017 7.57887 22.4991 7.63478C22.6946 7.747 22.9383 7.92014 23.2255 8.15366C23.7985 8.61954 24.502 9.29062 25.2741 10.0964ZM1.33759 19.1123C1.12437 18.7943 1 18.4117 1 18V2C1 0.895431 1.89543 0 3 0H29C30.1046 0 31 0.895431 31 2V18C31 18.4117 30.8756 18.7943 30.6624 19.1123C31.4414 19.3857 32 20.1276 32 21C32 22.1046 31.1046 23 30 23H27.425L28.825 31L29 32H27.9848H23.75L23.0675 28.1H8.9325L8.25 32H4.0152H3L3.175 31L4.575 23H2C0.895431 23 0 22.1046 0 21C0 20.1276 0.558572 19.3857 1.33759 19.1123ZM22.8925 27.1L22.175 23H9.825L9.1075 27.1H22.8925ZM22 22H23.0152H27.25H30C30.5523 22 31 21.5523 31 21C31 20.4477 30.5523 20 30 20H29H3H2C1.44772 20 1 20.4477 1 21C1 21.5523 1.44772 22 2 22H4.75H8.9848H10H22ZM23.1902 23L24.5902 31H27.8098L26.4098 23H23.1902ZM5.5902 23H8.8098L7.4098 31H4.1902L5.5902 23ZM17.2 7.4C18.415 7.4 19.4 6.41503 19.4 5.2C19.4 3.98497 18.415 3 17.2 3C15.985 3 15 3.98497 15 5.2C15 6.41503 15.985 7.4 17.2 7.4ZM17.2 8.4C18.9673 8.4 20.4 6.96731 20.4 5.2C20.4 3.43269 18.9673 2 17.2 2C15.4327 2 14 3.43269 14 5.2C14 6.96731 15.4327 8.4 17.2 8.4Z" fill="#5A8B23"/>
</svg>
