<svg width="32" height="32" viewBox="0 0 32 32" fill="none" xmlns="http://www.w3.org/2000/svg">
<path fill-rule="evenodd" clip-rule="evenodd" d="M2 1H15.3472V16.3344H2C1.44772 16.3344 1 15.8867 1 15.3344V2C1 1.44772 1.44772 1 2 1ZM16.3472 0H15.3472H2C0.895431 0 0 0.895431 0 2V15.3344C0 16.4389 0.895431 17.3344 2 17.3344H30C31.1046 17.3344 32 16.4389 32 15.3344V2C32 0.895431 31.1046 0 30 0H16.3472ZM16.3472 16.3344V1H30C30.5523 1 31 1.44772 31 2V15.3344C31 15.8867 30.5523 16.3344 30 16.3344H16.3472ZM7.18764 22.3348H10.1971C10.194 22.3574 10.1924 22.3805 10.1924 22.404V23.0709C10.1924 23.347 10.4162 23.5709 10.6924 23.5709C10.9685 23.5709 11.1924 23.347 11.1924 23.0709V22.404C11.1924 22.3805 11.1908 22.3574 11.1876 22.3348H15.5301C15.527 22.3574 15.5254 22.3805 15.5254 22.404V23.0709C15.5254 23.347 15.7492 23.5709 16.0254 23.5709C16.3015 23.5709 16.5254 23.347 16.5254 23.0709V22.404C16.5254 22.3805 16.5238 22.3574 16.5206 22.3348H18.1971C18.194 22.3574 18.1924 22.3805 18.1924 22.404V23.0709C18.1924 23.347 18.4162 23.5709 18.6924 23.5709C18.9685 23.5709 19.1924 23.347 19.1924 23.0709V22.404C19.1924 22.3805 19.1908 22.3574 19.1876 22.3348H23.5301C23.527 22.3574 23.5254 22.3805 23.5254 22.404V23.0709C23.5254 23.347 23.7492 23.5709 24.0254 23.5709C24.3015 23.5709 24.5254 23.347 24.5254 23.0709V22.404C24.5254 22.3805 24.5238 22.3574 24.5206 22.3348H27.0231V25.1652H3.66699L3.66699 22.3348H6.19713C6.194 22.3574 6.19238 22.3805 6.19238 22.404V23.0709C6.19238 23.347 6.41624 23.5709 6.69238 23.5709C6.96853 23.5709 7.19238 23.347 7.19238 23.0709V22.404C7.19238 22.3805 7.19077 22.3574 7.18764 22.3348ZM2.66699 22.3348C2.66699 21.7825 3.11471 21.3348 3.66699 21.3348H27.0231C27.5754 21.3348 28.0231 21.7825 28.0231 22.3348V25.1652C28.0231 25.7175 27.5754 26.1652 27.0231 26.1652H3.66699C3.11471 26.1652 2.66699 25.7175 2.66699 25.1652V22.3348ZM24.6607 29.0065H25.4055C26.2449 29.3318 26.4102 29.8185 26.4067 30.0426C26.4035 30.2521 26.2412 30.7141 25.398 30.9925H24.6374L24.6541 29.5726L24.6607 29.0065ZM23.6702 29.0065H8.75851L8.72845 30.9925H23.6469L23.6637 29.5653L23.6702 29.0065ZM8.77376 27.9987H25.5902C28.0317 28.8195 27.9917 31.2954 25.5296 32.0003H8.71319H7.72116L7.7266 31.6413L7.64703 31.6225C7.54749 31.5988 7.40552 31.5646 7.23522 31.5227C6.89503 31.4388 6.44002 31.3234 5.98368 31.1975C5.52999 31.0724 5.0643 30.9341 4.70729 30.8042C4.53147 30.7403 4.36417 30.672 4.2339 30.6018C4.17084 30.5679 4.09454 30.522 4.02716 30.4623C3.98367 30.4238 3.82304 30.2777 3.81887 30.0307C3.81454 29.7742 3.98103 29.6169 4.02635 29.5755C4.09535 29.5126 4.17344 29.4645 4.2367 29.4294C4.36784 29.3568 4.53626 29.2861 4.71256 29.2199C5.0709 29.0852 5.53911 28.9408 5.99531 28.8097C6.45423 28.6779 6.91215 28.5565 7.25458 28.4682C7.426 28.424 7.56893 28.388 7.66916 28.363L7.77663 28.3364L7.78174 27.9987H8.77376ZM7.43647 29.4578L7.42986 30.5295C7.10131 30.4482 6.67856 30.3405 6.25668 30.2241C5.99571 30.1521 5.73871 30.0779 5.50637 30.0054C5.73727 29.9308 5.99235 29.8542 6.25152 29.7797C6.67772 29.6573 7.10514 29.5435 7.43647 29.4578ZM11.7285 9.09104C11.7285 10.6287 10.5058 11.848 9.03077 11.848C7.55576 11.848 6.33301 10.6287 6.33301 9.09104C6.33301 7.55337 7.55576 6.33406 9.03077 6.33406C10.5058 6.33406 11.7285 7.55337 11.7285 9.09104ZM12.7285 9.09104C12.7285 11.166 11.073 12.848 9.03077 12.848C6.98855 12.848 5.33301 11.166 5.33301 9.09104C5.33301 7.01612 6.98855 5.33406 9.03077 5.33406C11.073 5.33406 12.7285 7.01612 12.7285 9.09104ZM22.7142 10.1974L22.109 9.30992L20.8343 7.44052H20.0166V12.3342H25.4121V7.44052H24.5941L23.3194 9.30992L22.7142 10.1974ZM20.1524 6.44052H20.0166H19.0166V7.44052V12.3342V13.3342H20.0166H25.4121H26.4121V12.3342V7.44052V6.44052H25.4121H25.276L26.1496 5.15941L26.8315 4.15941H25.6212H19.8073H18.5969L19.2788 5.15941L20.1524 6.44052ZM22.7142 8.42242L20.4892 5.15941H24.9393L22.7142 8.42242Z" fill="#5A8B23"/>
</svg>
