<svg width="176" height="201" viewBox="0 0 176 201" fill="none" xmlns="http://www.w3.org/2000/svg">
<path d="M106.131 115.403C110.073 123.226 116.654 124.166 116.05 126.594C110.455 141.284 84.9448 144.717 72.0502 144.717C62.2822 144.717 66.6388 141.026 67.4721 131.364C67.9468 125.861 65.42 116.961 63.1484 109.364C63.1484 88.4671 78.7099 84.883 94.05 84.883C114.397 79.4145 102.062 103.449 106.131 115.403Z" fill="#CDE4A9"/>
<path d="M107.102 78.8734C107.102 85.5434 102.91 92.6075 107.102 92.6075C109.377 92.6075 113.113 89.5607 115.091 85.3589C116.758 81.8178 116.871 77.3458 116.871 74.2954C116.362 67.6827 113.946 66.1569 110.258 68.8274C107.786 70.6174 107.102 72.2035 107.102 78.8734Z" fill="#CDE4A9"/>
<path d="M54.6453 82.4891C54.6453 88.5894 58.0367 95.0503 54.6453 95.0503C52.8049 95.0503 49.7827 92.2637 48.1825 88.4208C46.8339 85.182 46.7422 81.0919 46.7422 78.302C47.1537 72.254 49.1084 70.8585 52.0918 73.3009C54.0916 74.9381 54.6453 76.3887 54.6453 82.4891Z" fill="#CDE4A9"/>
<g filter="url(#filter0_d)">
<path d="M52.5365 81.2106C53.6381 93.486 55.8965 106.113 64.5439 110.691C69.5034 114.274 69.9675 114.535 76.3168 114.274C98.4975 113.361 103.966 113.107 107.654 78.2632C108.544 57.408 102.763 32.4741 73.9006 37.2105C49.103 41.2798 50.6078 59.7193 52.5365 81.2106Z" fill="#CDE4A9"/>
</g>
<path d="M52.336 60.9144L51.3187 68.6717L50.81 73.504C50.4285 68.926 49.8181 58.3711 50.4285 52.7757L49.6655 48.8335C49.5383 47.0955 49.7672 42.9075 51.7002 40.0592C52.5904 38.3635 56.0747 34.845 62.8909 34.3364L64.2898 32.6832L62.8909 31.4115C64.205 30.0551 67.647 27.2404 70.9025 26.8335C73.3611 26.5368 79.0667 26.5792 82.2204 29.1225H83.8736V24.6716L86.1626 23.6543C87.3495 23.7391 89.8759 24.4936 90.4863 26.8335H94.3013V30.0127L98.1164 26.8335L100.405 27.8508C101.465 28.3171 103.585 29.9364 103.585 32.6832C104.814 33.4038 107.272 36.1422 107.272 41.3306C109.731 45.1456 114.318 54.4034 112.995 60.9144L112.614 67.7815L110.96 68.4173C109.434 69.689 107.781 71.6982 107.781 74.6485L107.527 80.4982L105.365 74.6485L104.729 60.9144C103.288 60.2362 100.329 57.837 100.024 53.6659V47.4346C100.193 46.3325 98.447 45.0693 94.6829 43.7468L87.6887 41.0763C85.7811 40.61 81.8389 40.1861 77.1337 41.3306C74.4632 40.9491 67.7487 40.7202 62.2551 42.8566C60.3476 43.4925 56.1002 46.1376 54.3707 51.6312L53.4806 57.3537C53.2686 57.3961 53.4551 58.3711 52.336 60.9144Z" fill="#5A8B23"/>
<path fill-rule="evenodd" clip-rule="evenodd" d="M78.4062 77.6545C77.7279 75.8742 76.5241 71.6013 77.1345 68.7528C75.9901 68.5833 73.269 68.4224 71.5395 69.1345V75.62C70.9037 77.5276 68.7927 81.8004 65.4354 83.6316C64.4181 83.9707 61.6204 84.4455 58.5684 83.6316C56.7457 82.911 52.8204 80.0709 51.7013 74.4755C51.5318 73.543 50.8112 71.627 49.2852 71.4235V69.8975C50.8959 68.9649 55.0077 66.9726 58.5684 66.464C60.4759 66.1673 65.4609 66.2096 70.1406 68.7528C70.2254 68.5833 70.8782 68.1426 72.8112 67.7357C74.0405 67.6085 76.8042 67.5322 78.025 68.2443C78.5761 67.778 80.2378 66.6418 82.4759 65.828C84.1291 65.1073 89.9025 64.3019 99.7707 66.8453L105.366 66.591V69.3886C103.459 68.88 99.3129 68.1678 97.9904 69.3886C97.5241 70.1516 96.4643 72.695 95.9557 76.7644C95.5318 78.2056 93.11 81.6855 89.9788 82.6141C88.0743 83.1788 86.8178 83.1016 84.8921 82.6141C81.801 81.8316 79.729 80.2996 78.4062 77.6545ZM57.0427 68.0367C56.4917 68.0367 54.9318 68.6217 53.1005 70.9616C52.8038 72.4875 52.5919 76.1752 54.1179 78.7186C54.7113 79.8631 56.763 82.3556 60.2219 83.1694C61.4088 83.3814 64.3676 83.322 66.7075 81.3891C67.8096 80.3293 70.0138 77.6758 70.0138 75.5394L69.7595 71.47C69.378 70.4527 67.7757 68.24 64.4185 67.5281C63.2316 67.3161 60.0948 67.1211 57.0427 68.0367ZM78.5336 70.8343C80.2631 67.5788 83.6627 66.3411 85.1463 66.1291C88.3001 65.7222 90.6993 65.9596 91.5047 66.1291C94.1498 66.6377 95.4045 68.8843 95.7012 69.944V74.6492C95.1925 77.1925 93.0307 79.524 92.0133 80.3717C89.1648 82.3047 85.7397 82.0249 84.3833 81.6434C81.1278 79.7105 79.4661 77.1925 79.0423 76.1752C78.3301 74.7509 78.4064 72.0212 78.5336 70.8343Z" fill="#5A8B23"/>
<mask id="path-7-inside-1" fill="white">
<path fill-rule="evenodd" clip-rule="evenodd" d="M29.8281 175.604C29.9042 175.274 29.9802 174.944 30.0562 174.614C31.5651 168.069 33.0477 161.638 34.0157 156.29C36.1395 152.892 37.9702 151.742 44.8389 147.429C49.3566 144.592 56.0539 140.387 66.4476 133.273C67.3139 132.68 67.2065 134.047 67.0594 135.919C66.8568 138.497 66.579 142.033 68.67 142.715C79.0194 146.092 99.3173 135.346 118.665 125.103L119.028 124.91C126.904 127.196 148.93 148.289 155.938 162.771C139.807 185.478 115.111 200.001 87.4302 200.001C65.4019 200.001 45.2639 190.804 29.8281 175.604Z"/>
</mask>
<path fill-rule="evenodd" clip-rule="evenodd" d="M29.8281 175.604C29.9042 175.274 29.9802 174.944 30.0562 174.614C31.5651 168.069 33.0477 161.638 34.0157 156.29C36.1395 152.892 37.9702 151.742 44.8389 147.429C49.3566 144.592 56.0539 140.387 66.4476 133.273C67.3139 132.68 67.2065 134.047 67.0594 135.919C66.8568 138.497 66.579 142.033 68.67 142.715C79.0194 146.092 99.3173 135.346 118.665 125.103L119.028 124.91C126.904 127.196 148.93 148.289 155.938 162.771C139.807 185.478 115.111 200.001 87.4302 200.001C65.4019 200.001 45.2639 190.804 29.8281 175.604Z" fill="#5A8B23"/>
<path d="M30.0562 174.614L32.0051 175.063L32.0051 175.063L30.0562 174.614ZM29.8281 175.604L27.8792 175.155L27.6281 176.244L28.4248 177.029L29.8281 175.604ZM34.0157 156.29L32.3197 155.23L32.1161 155.556L32.0477 155.934L34.0157 156.29ZM44.8389 147.429L43.7753 145.735L43.7753 145.735L44.8389 147.429ZM66.4476 133.273L67.5772 134.923L67.5772 134.923L66.4476 133.273ZM67.0594 135.919L69.0533 136.075L69.0533 136.075L67.0594 135.919ZM68.67 142.715L69.2905 140.814L69.2905 140.814L68.67 142.715ZM118.665 125.103L117.729 123.335L117.729 123.335L118.665 125.103ZM119.028 124.91L119.586 122.989L118.808 122.764L118.093 123.143L119.028 124.91ZM155.938 162.771L157.569 163.929L158.254 162.965L157.739 161.9L155.938 162.771ZM28.1073 174.165C28.0313 174.494 27.9553 174.824 27.8792 175.155L31.7771 176.053C31.8531 175.723 31.9291 175.393 32.0051 175.063L28.1073 174.165ZM32.0477 155.934C31.0899 161.225 29.6196 167.605 28.1073 174.165L32.0051 175.063C33.5107 168.533 35.0054 162.051 35.9837 156.646L32.0477 155.934ZM43.7753 145.735C36.9907 149.996 34.73 151.373 32.3197 155.23L35.7117 157.35C37.5491 154.41 38.9497 153.489 45.9025 149.123L43.7753 145.735ZM65.318 131.623C54.9556 138.715 48.2835 142.905 43.7753 145.735L45.9025 149.123C50.4298 146.28 57.1522 142.059 67.5772 134.923L65.318 131.623ZM69.0533 136.075C69.1183 135.248 69.2131 134.179 69.1179 133.422C69.0909 133.208 69.0388 132.918 68.9191 132.617C68.8033 132.326 68.5593 131.861 68.0499 131.517C66.8229 130.686 65.6329 131.407 65.318 131.623L67.5772 134.923C67.5712 134.928 67.407 135.044 67.1154 135.102C66.7642 135.171 66.2679 135.14 65.8087 134.83C65.4088 134.559 65.2511 134.218 65.2022 134.095C65.1493 133.962 65.1446 133.885 65.1491 133.921C65.1584 133.995 65.1659 134.183 65.1497 134.542C65.1343 134.884 65.1031 135.285 65.0656 135.762L69.0533 136.075ZM69.2905 140.814C69.2853 140.812 69.2958 140.816 69.3043 140.823C69.3087 140.827 69.2862 140.81 69.2481 140.742C69.1604 140.588 69.0543 140.285 68.9882 139.772C68.8532 138.726 68.9478 137.417 69.0533 136.075L65.0656 135.762C64.9684 136.999 64.8228 138.747 65.021 140.284C65.2056 141.714 65.8172 143.888 68.0496 144.616L69.2905 140.814ZM117.729 123.335C108.029 128.47 98.216 133.663 89.5449 137.162C85.2134 138.909 81.2363 140.205 77.7553 140.863C74.25 141.526 71.4225 141.509 69.2905 140.814L68.0496 144.616C71.0922 145.609 74.683 145.515 78.4989 144.793C82.3391 144.067 86.5863 142.669 91.0414 140.871C99.9436 137.28 109.953 131.978 119.601 126.87L117.729 123.335ZM118.093 123.143L117.729 123.335L119.601 126.87L119.964 126.678L118.093 123.143ZM157.739 161.9C154.09 154.36 146.647 145.279 139.223 137.853C135.493 134.121 131.717 130.757 128.352 128.169C125.058 125.634 121.947 123.675 119.586 122.989L118.471 126.831C120.048 127.289 122.644 128.823 125.913 131.339C129.112 133.8 132.758 137.044 136.394 140.681C143.705 147.994 150.779 156.7 154.138 163.642L157.739 161.9ZM154.308 161.613C138.497 183.868 114.375 198.001 87.4302 198.001V202.001C115.847 202.001 141.116 187.088 157.569 163.929L154.308 161.613ZM87.4302 198.001C65.9806 198.001 46.3331 189.05 31.2314 174.179L28.4248 177.029C44.1947 192.558 64.8231 202.001 87.4302 202.001V198.001Z" fill="#5A8B23" mask="url(#path-7-inside-1)"/>
<path d="M175 100C175 154.8 135.932 199 88 199C40.0675 199 1 154.8 1 100C1 45.1999 40.0675 1 88 1C135.932 1 175 45.1999 175 100Z" stroke="#5A8B23" stroke-width="2"/>
<defs>
<filter id="filter0_d" x="46.5742" y="36.625" width="66.1656" height="87.7233" filterUnits="userSpaceOnUse" color-interpolation-filters="sRGB">
<feFlood flood-opacity="0" result="BackgroundImageFix"/>
<feColorMatrix in="SourceAlpha" type="matrix" values="0 0 0 0 0 0 0 0 0 0 0 0 0 0 0 0 0 0 127 0"/>
<feOffset dy="5"/>
<feGaussianBlur stdDeviation="2.5"/>
<feColorMatrix type="matrix" values="0 0 0 0 0.2 0 0 0 0 0.2 0 0 0 0 0.2 0 0 0 0.3 0"/>
<feBlend mode="normal" in2="BackgroundImageFix" result="effect1_dropShadow"/>
<feBlend mode="normal" in="SourceGraphic" in2="effect1_dropShadow" result="shape"/>
</filter>
</defs>
</svg>
