<svg width="32" height="33" viewBox="0 0 32 33" fill="none" xmlns="http://www.w3.org/2000/svg">
<path fill-rule="evenodd" clip-rule="evenodd" d="M18.7892 1.99945H2C1.44772 1.99945 1 2.44716 1 2.99945V30.9256C1 31.4779 1.44772 31.9256 2 31.9256H21.9924C22.5447 31.9256 22.9924 31.4779 22.9924 30.9256V25.8763L21.042 27.8151L21.0318 27.8253L21.0995 27.892L20.817 28.0389L20.3329 28.5202L20.3328 28.5201L20.3324 28.5204L20.1784 28.3677C20.1124 28.4009 20.0378 28.4382 19.9561 28.4787C19.6341 28.6383 19.1994 28.8486 18.7525 29.0494C18.3088 29.2487 17.8396 29.4447 17.4524 29.5711C17.2613 29.6334 17.0693 29.6859 16.9007 29.7088C16.8171 29.7201 16.718 29.7273 16.6172 29.7159C16.5242 29.7053 16.3653 29.6718 16.231 29.5449C16.092 29.4136 16.0525 29.252 16.0398 29.1554C16.0263 29.0527 16.0335 28.9523 16.0449 28.8694C16.068 28.702 16.1223 28.5122 16.1863 28.3249C16.3162 27.9448 16.5187 27.4838 16.7243 27.0482C16.9316 26.6092 17.149 26.182 17.3139 25.8655C17.3564 25.784 17.3955 25.7097 17.4301 25.6442L17.2939 25.5093L17.294 25.5092L17.2939 25.5091L17.7471 25.0586L17.9138 24.7538L17.984 24.823L18.003 24.804L22.9924 19.8428V5.69193C22.8998 5.70835 22.7926 5.72666 22.6741 5.74571C22.2661 5.81126 21.7174 5.88657 21.166 5.92252C20.6248 5.95782 20.0401 5.9584 19.5784 5.85408C19.3501 5.8025 19.1029 5.715 18.9057 5.55113C18.6862 5.36877 18.5386 5.09649 18.5531 4.75738C18.5801 4.12846 18.649 3.3541 18.7104 2.74314C18.7399 2.44828 18.768 2.18917 18.7892 1.99945ZM23.9924 5.49082V18.8484L28.6692 14.1979C29.7074 13.752 30.6753 13.9361 31.2969 14.4755C31.9885 15.0739 32.2525 16.1113 31.7097 17.2104L23.9924 24.8822V30.9256C23.9924 32.0301 23.0969 32.9256 21.9924 32.9256H2C0.89543 32.9256 0 32.0301 0 30.9256V2.99945C0 1.89488 0.895431 0.999447 2 0.999447H18.8213L18.8992 1.06621L18.916 0.925781L19.1418 0.932836L19.617 1.33942L23.5714 4.72291L24.3757 5.41106L23.9924 5.49082ZM19.6798 2.85679C19.6205 3.44782 19.556 4.17479 19.529 4.76412C19.5678 4.78795 19.6445 4.82241 19.7777 4.8525C20.1033 4.92608 20.5781 4.93398 21.0997 4.89997C21.4492 4.87717 21.8015 4.83697 22.1147 4.79368L19.6935 2.72201L19.6798 2.85679ZM6.74512 5.79792C6.74512 5.52177 6.96897 5.29792 7.24512 5.29792H15.8321C16.1082 5.29792 16.3321 5.52177 16.3321 5.79792C16.3321 6.07406 16.1082 6.29792 15.8321 6.29792H7.24512C6.96897 6.29792 6.74512 6.07406 6.74512 5.79792ZM3.50098 10.7747C3.50098 10.4985 3.72483 10.2747 4.00098 10.2747H15.8081C16.0842 10.2747 16.3081 10.4985 16.3081 10.7747C16.3081 11.0508 16.0842 11.2747 15.8081 11.2747H4.00098C3.72483 11.2747 3.50098 11.0508 3.50098 10.7747ZM9.99484 15.4648C9.7187 15.4661 9.49584 15.6909 9.49708 15.967C9.49831 16.2432 9.72316 16.466 9.9993 16.4648L19.8595 16.421C20.1356 16.4197 20.3585 16.1949 20.3572 15.9188C20.356 15.6426 20.1312 15.4198 19.855 15.421L9.99484 15.4648ZM3.49951 20.9533C3.49951 20.6771 3.72337 20.4533 3.99951 20.4533H13.0099C13.2861 20.4533 13.5099 20.6771 13.5099 20.9533C13.5099 21.2294 13.2861 21.4533 13.0099 21.4533H3.99951C3.72337 21.4533 3.49951 21.2294 3.49951 20.9533ZM3.99951 25.4417C3.72337 25.4417 3.49951 25.6656 3.49951 25.9417C3.49951 26.2179 3.72337 26.4417 3.99951 26.4417H14.1966C14.4727 26.4417 14.6966 26.2179 14.6966 25.9417C14.6966 25.6656 14.4727 25.4417 14.1966 25.4417H3.99951ZM3.25732 15.921C3.25732 15.6448 3.48118 15.421 3.75732 15.421H6.44148C6.71762 15.421 6.94148 15.6448 6.94148 15.921C6.94148 16.1971 6.71762 16.421 6.44148 16.421H3.75732C3.48118 16.421 3.25732 16.1971 3.25732 15.921ZM16.9946 20.4533C16.7185 20.4533 16.4946 20.6771 16.4946 20.9533C16.4946 21.2294 16.7185 21.4533 16.9946 21.4533H19.6788C19.9549 21.4533 20.1788 21.2294 20.1788 20.9533C20.1788 20.6771 19.9549 20.4533 19.6788 20.4533H16.9946ZM29.3941 18.0996L20.3315 27.1112L18.7135 25.5081L27.7787 16.4964L28.6296 17.3408L29.3941 18.0996ZM30.6339 15.2236C30.6526 15.2396 30.6703 15.256 30.6872 15.2727C30.9527 15.5361 31.1255 16.0068 30.8686 16.6334L30.1032 17.3944L29.334 16.631L28.4879 15.7913L29.2333 15.0504C29.8677 14.8318 30.3524 14.9833 30.6339 15.2236ZM19.4129 27.6344L18.1635 26.4037C18.0084 26.703 17.8161 27.0833 17.6332 27.4706C17.4363 27.8877 17.2566 28.2996 17.1443 28.6231C17.4787 28.5136 17.9066 28.336 18.3389 28.1418C18.7282 27.967 19.1102 27.7835 19.4129 27.6344Z" fill="#5A8B23"/>
</svg>
