<svg xmlns="http://www.w3.org/2000/svg" viewBox="0 0 442.14 92.74"><defs><style>.cls-1{fill:#6dbd65;}.cls-2{fill:#6b6a6a;}.cls-3{fill:#f48c31;}.cls-4{fill:#f58b32;}.cls-5{fill:#bbbaba;}.cls-6{fill:#f2ad6a;}.cls-7{fill:#e4e4ce;}.cls-8{fill:#8f8f8f;}.cls-9{fill:#858484;}.cls-10{fill:#f38c33;}.cls-11{fill:#9d9d9d;}.cls-12{fill:#9b9a9a;}.cls-13{fill:#d2d2d2;}.cls-14{fill:#949393;}.cls-15{fill:#e79d51;}.cls-16{fill:#d0d0d0;}.cls-17{fill:#72a664;}.cls-18{fill:#cda967;}.cls-19{fill:#959494;}.cls-20{fill:#cfe9cd;}.cls-21{fill:#a9d8a5;}.cls-22{fill:#9d9c9c;}.cls-23{fill:#d0e9cd;}.cls-24{fill:#c5c4c4;}.cls-25{fill:#93cf8e;}.cls-26{fill:#9ad295;}.cls-27{fill:#fbfdfb;}.cls-28{fill:#68bb60;}.cls-29{fill:#65ba5d;}.cls-30{fill:#6abc63;}.cls-31{fill:#5db554;}.cls-32{fill:#67ba5f;}.cls-33{fill:#45a76c;}.cls-34{fill:#d7ecd5;}.cls-35{fill:#57b34f;}.cls-36{fill:#ccc;}.cls-37{fill:#cccbcb;}.cls-38{fill:#9f9e9e;}.cls-39{fill:#c5c5c5;}.cls-40{fill:#40a76b;}.cls-41{fill:#72a462;}.cls-42{fill:#46a568;}.cls-43{fill:#3da76c;}.cls-44{fill:#4caa72;}.cls-45{fill:#64ba5d;}.cls-46{fill:#6cbd64;}.cls-47{fill:#63b95b;}.cls-48{fill:#bbe0b7;}.cls-49{fill:#d8edd5;}.cls-50{fill:#68bb61;}.cls-51{fill:#fafcfa;}.cls-52{fill:#40a363;}.cls-53{fill:#e6e6e7;}.cls-54{fill:#c5d8cc;}.cls-55{fill:#59b351;}.cls-56{fill:#bed6c7;}.cls-57{fill:#e6e5e6;}.cls-58{fill:#59b353;}.cls-59{fill:#5cb554;}.cls-60{fill:#ec8b32;}.cls-61{fill:#40a76c;}.cls-62{fill:#2fa972;}.cls-63{fill:#2faa72;}.cls-64{fill:#5ab452;}.cls-65{fill:#eae8ea;}.cls-66{fill:#75bf72;}.cls-67{fill:#6cbc66;}.cls-68{fill:#e4e4e4;}.cls-69{fill:#e9e8eb;}.cls-70{fill:#67ba61;}.cls-71{fill:#6c9f5a;}.cls-72{fill:#40a362;}.cls-73{fill:#58ac76;}.cls-74{fill:#90c3a3;}.cls-75{fill:#faedf7;}.cls-76{fill:#c5d8cd;}.cls-77{fill:#62b85a;}.cls-78{fill:#63b864;}.cls-79{fill:#50b04c;}.cls-80{fill:#2b9a53;}.cls-81{fill:#5faf7c;}.cls-82{fill:#fbeef7;}.cls-83{fill:#84bf9a;}.cls-84{fill:#c5d9cd;}.cls-85{fill:#2b9952;}</style></defs><g id="Layer_2" data-name="Layer 2"><g id="Layer_1-2" data-name="Layer 1"><path class="cls-1" d="M91.14,60A45.7,45.7,0,0,1,74.11,84a23.1,23.1,0,0,1-5.51,3.48h0a7.68,7.68,0,0,1-2,1h0a29.19,29.19,0,0,1-7.8,2.79,51.05,51.05,0,0,1-23.61.2,3,3,0,0,1-.79-.13,21.48,21.48,0,0,0-2.83-1.09c-3-.64-5.56-2.37-8.34-3.55-1.47-1.18-3.18-2-4.58-3.27A49.58,49.58,0,0,1,6.09,68.53a5.51,5.51,0,0,0-1-2h0a20.86,20.86,0,0,0-1-2.5C3,62.49,2.91,60.61,2.15,59A34.71,34.71,0,0,1,.42,46.23c.31-.55.71-.3,1.1-.12a3.79,3.79,0,0,0,2.82.71c2.75,0,5.49,0,8.24,0a2.5,2.5,0,0,1,2.76,2.22c1,3.92,3.33,6.91,7.27,8.16C27.31,58.72,33,54.93,34,49.89c.6-3,.6-3,3.67-3.06q9.36,0,18.71,0a4.74,4.74,0,0,1,2.67.44,2.35,2.35,0,0,1,.66,1.57c.63,4.36,3.78,7.83,7.6,8.4a9.7,9.7,0,0,0,10.14-6.09c.17-.38.34-.76.5-1.14,1.53-3.67,1.52-3.74,5.69-3.65,2.9,0,5.82-.39,8.7.3a1,1,0,0,1,.47.66,44.62,44.62,0,0,1-.51,8.41C91.45,57,91.58,58.62,91.14,60Z"/><path class="cls-2" d="M253.76,26.54H264c1.11,0,1.51.92,2,1.68,2,3.05,4,6.09,6,9.2.9,1.45,1.46,1.43,2.35,0,1.92-3.11,4-6.14,5.93-9.23a3,3,0,0,1,3-1.69,60.62,60.62,0,0,0,6.74,0c2.28-.12,2.11.66,1.08,2.18-3.93,5.77-7.76,11.61-11.72,17.36a8,8,0,0,0-1.45,4.89c.08,4.74,0,9.49.06,14.23,0,1.76-.61,2.39-2.33,2.29a36.13,36.13,0,0,0-5,0c-1.73.13-2.33-.45-2.29-2.23.11-4.82,0-9.65.07-14.48a7.22,7.22,0,0,0-1.35-4.41C262.75,39.94,258.46,33.52,253.76,26.54Z"/><path class="cls-2" d="M316.53,46.94c0-6.07.06-12.13,0-18.2,0-1.75.51-2.39,2.27-2.25a27.67,27.67,0,0,0,4.73,0c2-.17,2.6.56,2.58,2.55-.09,9.06.05,18.12-.09,27.17,0,2.48.57,3.48,3.18,3.27a38.3,38.3,0,0,1,7.72,0c3.5.41,1.28,3.27,1.7,5,.27,1.12.79,3-1.67,3-6.24-.05-12.48-.06-18.71,0-1.61,0-1.69-.84-1.68-2C316.54,59.24,316.53,53.09,316.53,46.94Z"/><path class="cls-2" d="M371.48,46.92c0,6.07-.05,12.14,0,18.21,0,1.73-.56,2.29-2.3,2.32-7.26.13-7.26.18-7.26-7,0-10.39.06-20.79,0-31.18,0-2.09.38-2.9,2.7-2.85,6.86.13,6.87,0,6.87,7Z"/><path class="cls-3" d="M74.11,9l1.52,1.44a65.37,65.37,0,0,1,11.07,13l0,0c.2.86.71,1.94-1,1.4-1.43-1.55-2.84-3.12-4.26-4.68-1.77-2.24-4.76-3.11-6.29-5.62-2.34-2.53-5.6-3.47-8.59-4.8C58,6,48.91,5.51,39.87,6.4a35.73,35.73,0,0,0-15.55,4.81,16.15,16.15,0,0,0-5.94,3c-.58.49-1.38,1-2,.42-.82-.82.11-1.52.63-2.07,3.54-3.78,8-6.1,12.77-7.91C34,3,38.32,1.6,42.9,1.43c.85,0,.49-.68.79-1,5.08-.55,10.06.24,15,1.1A31,31,0,0,1,64,3.26c.75.71,1.94.51,2.65,1.3h0A23.81,23.81,0,0,1,74.11,9Z"/><path class="cls-4" d="M43.61,1c.33,0,.82,0,1,.14.39.53-.19.8-.51.76-2.45-.3-4.71.58-7,1.13C29.22,5,21.92,7.94,16.47,14.29c2.61-1,4.51-3.55,7.64-3.26l.09.34c-.51,1.28-2.11,1.36-2.75,2.5-1.61,1.68-3.75,2.64-5.51,4.13a58.22,58.22,0,0,0-8.42,8.63,16.58,16.58,0,0,1-2.27,3.18c-.79.37-1.57.72-1.16-.75,1.46-4.52,4.22-8.29,7-12a48.76,48.76,0,0,1,7.05-7A47.31,47.31,0,0,1,28.62,4,59.37,59.37,0,0,1,41.26.69,2.56,2.56,0,0,1,43.61,1Z"/><path class="cls-5" d="M426,67.48c2.17-1.17,4.57-1.83,6.62-3.28a21.12,21.12,0,0,0,7.9-23.54A5.21,5.21,0,0,1,440,38c1.38,1.27,1.65,3.14,1.86,4.73,1.43,10.65-2.69,19.62-12.95,24.27A4.91,4.91,0,0,1,426,67.48Z"/><path class="cls-6" d="M43.61,1A37.66,37.66,0,0,0,31,3.59,5.2,5.2,0,0,1,28.62,4C33.18,1.43,38.26.68,43.35.14A76.41,76.41,0,0,1,51.07.07,65.31,65.31,0,0,1,58.43,1.3c.43.11.78.19.67.74-3-.41-6-.85-9-1.23C47.94.54,45.75.17,43.61,1Z"/><path class="cls-7" d="M.69,46c-.47,4.42,1,8.62,1.46,12.94C.4,57,.44,54.37.26,52.1a54.15,54.15,0,0,1,.88-16.74,1.85,1.85,0,0,1,1-1.35,1.6,1.6,0,0,1,.52,1.45,14.69,14.69,0,0,0-.38,3.1A5.92,5.92,0,0,1,2,39.74C1.28,41.78,1.71,44.06.69,46Z"/><path class="cls-8" d="M144.14,67c6.52-.25,13.07.64,19.55-.89,1.85-.44,3.46-1.62,5.43-1.57-2.39,2-5.42,2.63-8.32,2.82-5.19.34-10.43.14-15.65.17C144.73,67.5,144.32,67.44,144.14,67Z"/><path class="cls-9" d="M397.6,48.48a1.79,1.79,0,0,1,.94,1.63c.2,6.21,3.71,10.45,8.38,14,.58.43,1.41.58,1.61,1.43-5.67-2.37-8.66-7-10.44-12.55C397.51,51.53,396.89,50.08,397.6,48.48Z"/><path class="cls-10" d="M86.7,23.49c-2.64-2.37-4.19-5.63-6.69-8.13-1.55-1.54-3.58-2.68-4.38-4.89A34.18,34.18,0,0,1,86.7,23.49Z"/><path class="cls-11" d="M231.1,45c-2.1-2.69-2.71-6-3.95-9.11-.64-1.56-1.9-3-1.56-4.88A78.22,78.22,0,0,1,231.1,45Z"/><path class="cls-12" d="M214.09,29.53c-.08,3.17-2,5.7-3,8.57-.57,1.7-.87,3.69-2.5,4.91A90.05,90.05,0,0,1,214.09,29.53Z"/><path class="cls-13" d="M397.6,48.48c-.35,1.56.62,3,.49,4.5-1.95-2.8-1.32-11.88,1-14.45C398.54,41.84,397.08,45,397.6,48.48Z"/><path class="cls-11" d="M225.6,31c-.21-.14-.51-.22-.61-.41-.61-1.22-.57-3.18-2.05-3.44a31.87,31.87,0,0,0-6.7-.09c-1.47.06-.85,2.13-2.15,2.45.14-2.49,1.45-3.48,3.91-3.13a15.07,15.07,0,0,0,2.23,0C224.36,26.41,224.82,26.8,225.6,31Z"/><path class="cls-14" d="M235.5,56.55c-1.89-3.69-3.74-7.4-4.42-11.55,2,3.3,2.88,7,4.48,10.51A.65.65,0,0,1,235.5,56.55Z"/><path class="cls-15" d="M87.64,25A21.93,21.93,0,0,1,91.52,35c-1.59-.31-1.34-2-2.23-2.88a6.74,6.74,0,0,1-1-2.62C88.66,27.92,86.52,26.67,87.64,25Z"/><path class="cls-16" d="M178.61,52a53.39,53.39,0,0,0,0-10.5"/><path class="cls-10" d="M87.64,25c-.27,1.67,1.92,2.77,1.06,4.58a1.9,1.9,0,0,1-1.39-.92c-.62-1.29-2-2.2-1.91-3.85l.22-.26c1.35.63.86-.55,1-1.06A1.6,1.6,0,0,1,87.64,25Z"/><path class="cls-17" d="M89.64,32c1.23.65.87,2.27,1.88,3.05.37,1.83,1.31,3.55,1.09,5.51a2.56,2.56,0,0,1,.13,1.92.64.64,0,0,1-.73.1,2.38,2.38,0,0,1-.53-1.46,6.16,6.16,0,0,0-.4-2.58C90.79,36.3,88.81,34.44,89.64,32Z"/><path class="cls-18" d="M2.15,35.56,2.09,34c.72-1.63.77-3.53,2-4.95,0,.67.34.86.93.49a.71.71,0,0,1,.37.49,1.32,1.32,0,0,1-.09.62,10.65,10.65,0,0,0-.8,1.71,4.48,4.48,0,0,1-.29.58c-.59.8-.7,1.87-1.43,2.6A.62.62,0,0,1,2.15,35.56Z"/><path class="cls-19" d="M207.54,46a20.9,20.9,0,0,1-3.52,8.5A28.79,28.79,0,0,1,207.54,46Z"/><path class="cls-20" d="M23.15,86.36C26,87.5,28.6,89.18,31.57,90c.13.13.17.25.11.36s-.11.16-.16.16c-3.07-.59-5.68-2.23-8.4-3.61a.32.32,0,0,1-.12-.39Q23.08,86.36,23.15,86.36Z"/><path class="cls-21" d="M92,55.94c0-3,.89-5.91.6-8.92a.27.27,0,0,1,.46,0c.22,3.25.27,6.49-.9,9.61A.41.41,0,0,1,92,55.94Z"/><path class="cls-22" d="M175.62,35l-5.55-4.93"/><path class="cls-23" d="M23.15,86.36l0,.57c-1.51-1.15-3.48-1.7-4.47-3.51A15.76,15.76,0,0,1,23.15,86.36Z"/><path class="cls-24" d="M235.5,56.55l.06-1a12.52,12.52,0,0,1,2,5.5C236.38,59.75,236.18,58,235.5,56.55Z"/><path class="cls-1" d="M93.08,47a3.55,3.55,0,0,0-.46,0l-.05,0a3.18,3.18,0,0,1-.41-.66,5.34,5.34,0,0,1-.2-1.54,3.15,3.15,0,0,1,.59-2.24l.06-2C93.54,42.63,93,44.83,93.08,47Z"/><path class="cls-25" d="M92,55.94c0,.22.1.44.16.66a6.86,6.86,0,0,1-1,3.44C91,58.59,90.93,57.14,92,55.94Z"/><path class="cls-19" d="M204,54.45c.15,1,.21,2-1,2.54A3.34,3.34,0,0,1,204,54.45Z"/><path class="cls-26" d="M4.08,64a2.59,2.59,0,0,1,1,2.5A2.79,2.79,0,0,1,4.08,64Z"/><path class="cls-26" d="M5.11,66.49a1.66,1.66,0,0,1,1,2A2.72,2.72,0,0,1,5.11,66.49Z"/><path class="cls-27" d="M23.17,66.43c-.87-4.31-.39-4.89,4.1-4.89H66.84c5.49,0,6,.74,4.28,5.95-.88.86-.93,2-1.21,3.14a14.5,14.5,0,0,1-6.64,6.82,55.55,55.55,0,0,0-5.7,2.91c-1,.34-1.87.81-2.84,1.12-4.56,1.19-9.13.81-13.7.15-7.31-2.17-13.47-5.89-17.29-12.78C23.3,68.11,23.46,67.21,23.17,66.43Z"/><path class="cls-28" d="M92.56,46.48c0,.17,0,.33,0,.5-3.82,0-7.65.05-11.47,0-1.27,0-1.84.25-2.06,1.73-.66,4.54-5.27,9.1-9.06,9.28-6.55.29-10.87-3.87-10.87-10.49-1.7-.56-3.45-.22-5.17-.25-6.55-.08-13.11.08-19.66-.08a.56.56,0,0,1-.09-.83,3.2,3.2,0,0,1,2.11-.6c7.43,0,14.86-.2,22.28.1a2.73,2.73,0,0,1,1.58.82,2.41,2.41,0,0,1,.42,1.91c-.08.74-.6,1.48,0,2.22l.79.53c1.1.89,1.63,2.35,3,2.92,5,2.68,8.67,1.53,11.77-3.7.18-.31.37-.6.55-.91.93-1-.15-2.8,1.44-3.53,4.27-.67,8.55-.29,12.83-.27A2.28,2.28,0,0,1,92.56,46.48Z"/><path class="cls-29" d="M24.08,68.5C28,74.84,33.67,78.73,40.64,81a30.9,30.9,0,0,0,13.86.41,4.5,4.5,0,0,1,2.57,0,.42.42,0,0,1,.15.41c0,.15-.07.22-.11.22-4.44,1.31-8.64,2.55-13.59,1.29a38.6,38.6,0,0,1-12.83-5.41A27,27,0,0,1,21.35,66.3a6.66,6.66,0,0,1-.13-3.68c.08-.59.54-.48.88-.1a5.17,5.17,0,0,0,0,3.45L23,67C23.58,67.36,23.68,68,24.08,68.5Z"/><path class="cls-30" d="M34.12,47c7.47,0,14.94,0,22.41,0,.87,0,1.84-.33,2.58.49-7.24,0-14.48.05-21.72,0-1.72,0-2.4.24-2.68,2.2-.64,4.42-3.64,7.14-7.78,8.3-3.76,1.06-6.84-.36-9.37-3.38a10.84,10.84,0,0,1-3-6c-.11-1.25-1.09-1-1.88-1-3,0-6,0-9,0-1,0-2,.19-2.59-1A2.08,2.08,0,0,1,1.89,46a62.85,62.85,0,0,1,12.19,0c1.59.5,1.52,2,1.87,3.21.26.37.58.71.83,1.09a4.22,4.22,0,0,1,.41.89A5.73,5.73,0,0,0,18,52.5a8.32,8.32,0,0,0,1.68,1.92C22.86,57,26,57.08,29,54.76c.8-1.17,2.08-1.91,2.78-3.17a3.07,3.07,0,0,1,.41-.47,2.73,2.73,0,0,1,1.21-.77c.46-.71-.15-1.32-.18-2A1.71,1.71,0,0,1,33.48,47,.48.48,0,0,1,34.12,47Z"/><path class="cls-31" d="M24,60.22H70.75v.48H24Z"/><path class="cls-32" d="M57.11,82v-.5c-.27-.54,0-.86.42-1.16l.6-.34c1.63-1.06,3.31-2,5-3a20.62,20.62,0,0,0,6.44-6.57c.42-.22.12-1,.82-1L72.1,69q.25-.36.51,0A44.2,44.2,0,0,1,66,76.88,23.44,23.44,0,0,1,57.11,82Z"/><path class="cls-32" d="M72.61,69H72.1c-.65-1.07.44-1.84.47-2.78.05-1.67.33-3.36-.88-5.11a4.55,4.55,0,0,1,1.58,5.84A3.89,3.89,0,0,0,72.61,69Z"/><path class="cls-33" d="M1.62,46.49l-.5,0C1,46.35.84,46.19.69,46a16,16,0,0,1,.86-6.66c1.39,1.82.57,3.9.69,5.87A2.36,2.36,0,0,1,1.62,46.49Z"/><path class="cls-34" d="M70.41,69.41c-.43.22-.21,1-.82,1a3.16,3.16,0,0,1,1.53-3Z"/><path class="cls-35" d="M22.11,66a2.85,2.85,0,0,1,0-3.45C22.1,63.67,22.11,64.82,22.11,66Z"/><path class="cls-2" d="M440,38A22.54,22.54,0,0,0,433.52,30c-9.47-7.37-28.73-5.89-34.42,8.58a18.7,18.7,0,0,0-1.79,9.6c.78,1.69.43,3.61,1.11,5.33,2,5.15,5.17,9.36,10.11,12.07,5.56,3.08,11.43,3.39,17.5,2,7.39-1.92,12.19-6.62,14.7-13.75C442.6,48.41,442,43.18,440,38Zm-20.42,21.6c-7.39,0-12.53-5.28-12.46-12.87.05-6.41,4.05-12.42,12.37-12.51,7.38-.07,12.6,4.87,12.53,12.79C432,54.56,427,59.63,419.59,59.63Z"/><path class="cls-2" d="M178.58,41.51a18.48,18.48,0,0,0-3-6.51c-1.74-1.77-3.08-4-5.55-4.93l-.54-.53c-.61-.42-1.45-.43-1.93-1.08a16.78,16.78,0,0,0-3.28-1.15c-6.25-1.49-12.6-.49-18.9-.79-1.33-.06-1.44.76-1.43,1.77,0,3.5,0,7,0,10.49q.06,14.09.14,28.19c8.44.29,17,1.38,25-2.46,5.17-2.64,8-7,9.49-12.5A18.93,18.93,0,0,0,178.58,41.51Zm-12,13.94-1,1a14.85,14.85,0,0,1-10,2.8c-1.38-.08-1.95-.52-1.95-1.88,0-7,0-13.93,0-20.89,0-.88.16-1.66,1.3-1.73,4.09-.26,8,.12,11,3.33C170.27,42.7,170.51,49.23,166.55,55.45Z"/><path class="cls-36" d="M166.08,38.55A13.32,13.32,0,0,0,155.84,35c-1.25.07-1.77.42-1.77,1.73q.08,10.32,0,20.65c0,1.39.68,1.53,1.84,1.66,3.57.4,6.55-1.26,9.65-2.54-3.11,3.4-7.21,3.18-11.27,3-1-.05-1.16-1-1.16-1.88V36.42c0-.87.12-1.61,1.14-1.94,3.42-1.14,9.24.57,11.82,3.53q.24.18.15.36C166.19,38.49,166.13,38.55,166.08,38.55Z"/><path class="cls-36" d="M166.08,38.55V38c4.72,3.36,4.55,14.3.46,17.44.49-1.13,1-2.24,1.45-3.38C170,47.2,169.1,42.72,166.08,38.55Z"/><path class="cls-2" d="M239.25,65.42c-.58-1.46-1.13-2.94-1.7-4.41s-1.11-3.17-1.88-4.68A104.87,104.87,0,0,1,231.08,45h0c-1.92-4.63-3.79-9.28-5.51-14h0c-.73-3.74-3.09-4.89-6.63-4.24l-.12,0-.12,0c-2.33-.39-4,.24-4.64,2.75h0c-1.72,4.54-3.39,9.1-5.49,13.48-.22,1-1.09,1.83-1.06,3-1.12,2.85-2.23,5.71-3.52,8.5h0c-.34.84-.29,1.83-1,2.54l-3.57,8.47c-.56,1.31-.36,2.1,1.28,2a5.38,5.38,0,0,1,1.5,0c4.48.85,7.52-.6,8.53-5.31.37-1.74,1.54-2.07,3.15-2,3.73.08,7.48.07,11.21,0,1.42,0,2.43.25,2.74,1.8,1,5,4.18,6.42,8.84,5.53a5.23,5.23,0,0,1,1.25,0C239.64,67.54,239.76,66.7,239.25,65.42Zm-16.6-12.53c-2.15,0-4.3,0-6.44,0-1.31,0-1.61-.53-1.17-1.69q1.28-3.35,2.53-6.71a9.54,9.54,0,0,0,.89-2.55c.56-.47.43-1.72,1.64-1.47h0a8.07,8.07,0,0,0,1.06,2.93,11.66,11.66,0,0,0,.92,2.58c.33.84.65,1.68,1,2.51.6.91.6,2,1,3C224.32,52.7,223.6,52.9,222.65,52.89Z"/><path class="cls-37" d="M220.1,40.48c-.77.29-.95,1.11-1.45,1.63a.44.44,0,0,1-.12-.71c.15-.78.29-1.57,1.27-1.69C219.87,39.7,220,40.21,220.1,40.48Z"/><path class="cls-38" d="M224.07,51.5a4.33,4.33,0,0,1-1-3A3,3,0,0,1,224.07,51.5Z"/><path class="cls-37" d="M221,43.61a3.71,3.71,0,0,1-.89-3.12c.35.81.69,1.62,1,2.43A.42.42,0,0,1,221,43.61Z"/><path class="cls-39" d="M218.53,41.4l.12.71a2.93,2.93,0,0,1-1.08,2.39A5.46,5.46,0,0,1,218.53,41.4Z"/><path class="cls-5" d="M221,43.61c0-.23.1-.46.14-.69a5.22,5.22,0,0,1,1,3.08A3,3,0,0,1,221,43.61Z"/><path class="cls-4" d="M24.11,11c.23-1.35,1.57-1.46,2.42-1.82,8.85-3.8,18.25-4.47,27.61-3.52,7.17.73,14,3.46,20.26,7.07.57.32,1.64.62,1.21,1.77a1.5,1.5,0,0,1-1.43.38,3.79,3.79,0,0,1-2-1.07c-2.12-2-4.88-2.67-7.5-3.62a51.24,51.24,0,0,0-19.35-3.4A42,42,0,0,0,31.83,9.31a28,28,0,0,0-5.11,1.58,3.1,3.1,0,0,1-2.6.14Z"/><path class="cls-10" d="M74.21,14.52h1.4C76.81,16,78.53,16.82,80,18c.67.56,1.48,1,1.65,2l-.28.22A15.92,15.92,0,0,1,74.21,14.52Z"/><path class="cls-10" d="M81.62,20a11.18,11.18,0,0,1,4,4.49l-.1.09c-2.09-.81-3.82-1.95-4-4.46Z"/><path class="cls-40" d="M1.62,45.51q0-3.07-.07-6.13l0-.85c.63-.75.33-1.82.9-2.59,1-.93.75-2.45,1.6-3.45h0c.43-.65.59-1.43,1-2.1A.59.59,0,0,1,5.15,30a21.45,21.45,0,0,0,2-3.5A40.54,40.54,0,0,1,18.49,15.4l2.64-1.82a12.52,12.52,0,0,1,3.79-2.12,14.75,14.75,0,0,1,2.2-.2,2.13,2.13,0,0,1,1.6.86c-.25,1.14-1.32,1.13-2.12,1.48-12,5.31-20,14-23.14,27-.22.9-.11,1.84-.33,2.72S3,45.36,1.62,45.51Z"/><path class="cls-3" d="M25.05,12c-1.53,0-2.47,1.4-3.92,1.57.39-1.56,2.27-1.37,3-2.55,2.55-.44,4.71-2.33,7.47-2l.09.36C29.86,11.23,27.2,11,25.05,12Z"/><path class="cls-33" d="M7.11,26.51a4.4,4.4,0,0,1-2,3.5A2.39,2.39,0,0,0,5,29.55Z"/><path class="cls-41" d="M2.67,36a3.18,3.18,0,0,1-1.09,2.53,4.87,4.87,0,0,1,.57-3,2.31,2.31,0,0,1,.46-.05c.16.09.22.19.18.31S2.72,36,2.67,36Z"/><path class="cls-42" d="M1.62,45.51c1.68-2.15,1.16-4.89,1.83-7.32A38.08,38.08,0,0,1,14.18,20.77c4.15-4,9.25-6.44,14.44-8.74.64-1.07,1.8-1,2.8-1.31,3-1,5.9-2,9.07-1.88a6,6,0,0,0,2.36-.65A26.7,26.7,0,0,1,52,8.46c3.56.68,7.11,1.28,10.62,2.27A41.73,41.73,0,0,1,83.67,24.16a22.22,22.22,0,0,1,4.27,6.63c-.31-.8-1.1-1.46-.28-2.4l1,1.14c.31.82.63,1.63.94,2.45q1,3.25,2,6.53c.58.75-.1,1.75.49,2.51l0,1.46c.57.77-.1,1.76.47,2.53,0,.49,0,1,0,1.47l-15,.05a.44.44,0,0,1-.6-.05.94.94,0,0,1,.07-.66c.63-1,0-1.77-.52-2.48-4.77-6.09-10.78-6-15.63.22-.71.91-1,2.07-1.81,2.94l-25,0A11.05,11.05,0,0,0,29,40.09c-3.46-2-7-1.43-10.23,1.38-1.61,1.43-2.29,3.42-3.49,5.1a.54.54,0,0,1-.65,0l-13,0Z"/><path class="cls-43" d="M87.66,28.39c-.24,1.52,1.73,2.59.86,4.62C84.3,23.78,77.31,17.75,68.71,13.5a37.47,37.47,0,0,0-8.31-2.86C54.72,9.36,49,8.22,43.11,8.53c-.64.09-.65-.21-.41-.67a3.28,3.28,0,0,1,1.93-.49,25.48,25.48,0,0,0,3.91-.16A13.16,13.16,0,0,1,53,8a6.23,6.23,0,0,0,3.72.28,3.18,3.18,0,0,1,.69,0l.33.11c.4.2.74.5,1.12.74a2.94,2.94,0,0,0,2.2.15,2,2,0,0,1,.69.08l.31.16c3,.67,5.73,2.18,8.66,3.08.65.31,1.49.31,1.8,1.14l1.67.8,7.29,5.61a22.43,22.43,0,0,0,4,4.46Z"/><path class="cls-44" d="M92.58,45c-.79-.73-.37-1.67-.47-2.53l.44.06Z"/><path class="cls-44" d="M92.09,41c-.81-.71-.37-1.67-.49-2.51C92.4,39.22,92,40.17,92.09,41Z"/><path class="cls-33" d="M2.67,36l-.06-.49c.4-1.06.37-2.32,1.47-3C3.58,33.64,4.05,35.19,2.67,36Z"/><path class="cls-33" d="M5.07,30.4a2.33,2.33,0,0,1-1,2.1A2.22,2.22,0,0,1,5.07,30.4Z"/><path class="cls-45" d="M64.61,70l-2.5,2.5a32.17,32.17,0,0,1-2.83,1.94c-.86.51-1.74.73-1.83-.77,1.35-2,3.9-2.79,5.17-4.92-.86-.87-1.82-.51-2.67-.51-8.56,0-17.11,0-25.67,0a7.68,7.68,0,0,1-3.67-.46c-.41-.44-1-.86-.28-1.5a7.28,7.28,0,0,1,3-.25Q49,66,64.79,66c.62,0,1.45-.43,1.85.21.52.81-.49,1.27-.76,1.92S65,69.33,64.61,70Z"/><path class="cls-28" d="M64.61,70c.14-1.38,1.45-2.16,1.81-3.49H30.11a3.22,3.22,0,0,1-1.53,1.06,1.26,1.26,0,0,1-.82-1.39c.18-.81.9-.57,1.44-.57q18.18,0,36.38,0c1.76,0,1.86.81,1.07,2C66.07,68.44,65.69,69.53,64.61,70Z"/><path class="cls-28" d="M57.61,74c.84,1,1.41.1,2.11-.25s1.38-1.25,2.39-1.24a8.28,8.28,0,0,1-4.44,3C55.78,76,54,77.13,52,77.08c-2.57.13-5.15.08-7.73,0-2.37-.27-4.77-.47-6.38-2.6a.78.78,0,0,1,.41-.67c2.9.41,5.67,1.53,8.68,1.48a24.55,24.55,0,0,0,8.26-1.17A2.89,2.89,0,0,1,57.61,74Z"/><path class="cls-46" d="M52.05,77c1.88-.46,3.66-1.31,5.62-1.44-5.8,3.68-15.45,3.22-21.56-1a1.39,1.39,0,0,1,2,0c1.66,1.7,3.92,1.93,6,2.46A30.2,30.2,0,0,1,52.05,77Z"/><path class="cls-47" d="M38.11,74.49h-2a30.32,30.32,0,0,0-4.69-3.43,8.66,8.66,0,0,1-2.85-3.49c.06-1,.75-1.11,1.53-1.06l.5,1c2.11,2.62,5.22,4.08,7.5,6.49Z"/><path class="cls-48" d="M55.05,81.44c-4.85,1.09-9.67,1.47-14.41-.49,3.27-.25,6.43,1.38,9.76.58,1.5-.36,3.07-.45,4.62-.66l.23.27Z"/><path class="cls-49" d="M63.15,77c-1.44,1.46-3.32,2.24-5,3.28a.51.51,0,0,1-.56-.4A16.94,16.94,0,0,1,63.15,77Z"/><path class="cls-50" d="M31.43,71.05a8.24,8.24,0,0,1,4.69,3.43A13.71,13.71,0,0,1,31.43,71.05Z"/><path class="cls-48" d="M57.55,79.89l.56.4-.51.24c-.75.38-1.41,1.17-2.39.56-.07-.07-.13-.15-.19-.22A4.77,4.77,0,0,1,57.55,79.89Z"/><path class="cls-51" d="M76.61,50.5c-2.32,5.78-7.89,7.6-12.54,4.09-3.36-3.12-4-5.46-2.65-9,1.26-.34,2.11.39,3,1.12.6,1.19.11,2.79,1.41,3.71l.57.35c2,1.49,3.8,1.05,5.54-.44,1.44-1.52,1-4,2.79-5.37.39-.3.66-.79,1.21-.27C76.86,46.53,77.8,48.39,76.61,50.5Z"/><path class="cls-52" d="M59.11,46.5c.46-3.68,3-5.92,6-7.32,4.7-2.19,10.51.24,12.77,5,.41.86,1,2-.87,1.89-1.27,0-.72-1.52-1.57-1.87a28.08,28.08,0,0,1-2.26-2c-2.77-2-5.58-2.25-8.43-.19-.18.14-.38.26-.57.38a4.52,4.52,0,0,0-2,2.24,1.94,1.94,0,0,1-.41.49,2.08,2.08,0,0,0-.51.37c-.33.53-.53,1.16-1.15,1.46Z"/><path class="cls-52" d="M15.12,46.5c1-4.68,4.41-7,8.59-8.39C27,37,35.34,42.58,34.13,46.53c0,.16,0,.32,0,.48l-.5,0a1.35,1.35,0,0,1-.89-.26,3.17,3.17,0,0,1-.82-1.3c-.1-.18-.18-.37-.27-.55a7,7,0,0,0-.87-1.23,5.94,5.94,0,0,0-1.58-1.5c-2.75-1.82-5.52-2.21-8.36-.2a5.14,5.14,0,0,1-.55.35,4.89,4.89,0,0,0-1.52,1.15c-.76.8-1.09,1.89-1.83,2.71a2,2,0,0,1-1.2.63A.86.86,0,0,1,15.12,46.5Z"/><path class="cls-53" d="M61.13,45a1,1,0,0,1,.39-.11.46.46,0,0,1,.14.66c-1,3.49.21,6.37,2.41,9-1.64-.41-2.06-2-3-3.09C59.4,49.34,60.38,47.19,61.13,45Z"/><path class="cls-54" d="M75.63,44c.46.69.91,1.39,1.36,2.08a.86.86,0,0,0,.11.47,4.41,4.41,0,0,1,0,3.49l-.51.5c.51-2.13-.74-3.94-1.08-5.91A.5.5,0,0,1,75.63,44Z"/><path class="cls-1" d="M61.13,45a10.13,10.13,0,0,0,0,6.46h-1a3,3,0,0,1,0-2.43c0-.7,0-1.41,0-2.11A2.61,2.61,0,0,1,61.13,45Z"/><path class="cls-1" d="M77.12,50c0-1.16,0-2.33,0-3.49l.5,0C78,47.76,78.11,49,77.12,50Z"/><path class="cls-55" d="M60.06,49.07c0,.81,0,1.62,0,2.43A1.65,1.65,0,0,1,60.06,49.07Z"/><path class="cls-1" d="M55.21,81.09l2.39-.56-.49,1a1.65,1.65,0,0,1-2.06,0A1.58,1.58,0,0,1,55.21,81.09Z"/><path class="cls-51" d="M32.1,51.46c0,1.76-1.78,2.24-2.5,3.48-3.88,2.44-6.57,2.4-9.91-.14a17.21,17.21,0,0,1-2-2.68c-.39-.64-.66-1.35-1-2a5.64,5.64,0,0,1,1-5.22,1.18,1.18,0,0,1,.71-.11c1.49.78,2.5,1.84,2.37,3.71a2.66,2.66,0,0,0,1.45,2.45c.39.22.76.46,1.13.7a2.59,2.59,0,0,0,3,.18c2-1,2.42-2.92,2.84-4.85.84-1.12,1.81-1.69,3.12-.69A5.73,5.73,0,0,1,32.1,51.46Z"/><path class="cls-1" d="M19.65,54.43c3.19,2.55,6.53,2.31,10,.51a7.09,7.09,0,0,1-10.49-.4A.37.37,0,0,1,19.65,54.43Z"/><path class="cls-56" d="M18.07,45c-1.14,1.69-1.05,3.57-.89,5.46.19.41.37.81-.28,1l-.28-.91a3.9,3.9,0,0,1,0-4.47c.67-1,.76-2.37,2-3a1,1,0,0,1,.26.58A1.67,1.67,0,0,1,18.07,45Z"/><path class="cls-57" d="M32.1,51.46l0-5.39A.8.8,0,0,1,32.14,45l.92,1.55c.53,1.74.78,3.44-.63,4.93Z"/><path class="cls-1" d="M16.64,46c0,1.49,0,3,0,4.47l-1-.5a5.29,5.29,0,0,1,0-3.47Z"/><path class="cls-1" d="M32.43,51.46a10.62,10.62,0,0,0,.63-4.93l.56.46c0,.52,0,1,0,1.56a2,2,0,0,1,0,2Z"/><path class="cls-58" d="M15.63,46.53c0,1.16,0,2.32,0,3.47-1-1-.11-2.48-1-3.48l.5,0Z"/><path class="cls-59" d="M33.61,50.5l0-2a2.23,2.23,0,0,1,.3,2.45c-.1.31-.44.19-.21,0C33.78,50.9,33.65,50.66,33.61,50.5Z"/><path class="cls-60" d="M31.59,9c1.07-1.74,3.27-1.52,4.62-1.7C39.13,6.94,42,6.07,45,6,51.58,6,58,7.38,64.26,9.19c.35.1.6.54.89.82l-.28.25a5.42,5.42,0,0,1-3.24-.79l0,0c-1.37-.2-2.83-.06-4-1l0,0c-4.16,0-8.21-1.47-12.43-1a10.4,10.4,0,0,0-3.37.61A20.34,20.34,0,0,0,35.7,9c-1.34.08-2.65,1.08-4,.12Z"/><path class="cls-10" d="M72.54,13.72,70.69,13c-1.81-1.09-4.2-1.07-5.62-2.91l.08-.07C67.92,10.64,70.75,11.13,72.54,13.72Z"/><path class="cls-61" d="M42.61,8l.5.49a2.27,2.27,0,0,1-1.92,1c-4.43-.26-8.37,1.76-12.57,2.54-.55,0-1.14.09-1.5-.49,1.93-1.37,4.24-1.7,6.44-2.33.86-.25,1.86-.06,2.55-.82.86-.09,1.7-.26,2.56-.34s1.6,0,2.4-.05a4.64,4.64,0,0,0,.64-.17C42,7.8,42.36,7.75,42.61,8Z"/><path class="cls-42" d="M36.12,8.6c-1.25,1.78-3.47.65-5.13,1.71a11.15,11.15,0,0,1-3.87,1.23,3.28,3.28,0,0,1-2.07.47c2-1.52,4.5-1.75,6.63-2.9l3.86-.63C35.78,8.28,36,8.32,36.12,8.6Z"/><path class="cls-42" d="M42.61,8h-1a.32.32,0,0,1-.14-.35c.05-.11.09-.17.13-.17a38,38,0,0,1,16,1l-.6.1a7.7,7.7,0,0,1-3.93-.05l-4.54-.95c-1.28.54-2.7-.21-4,.44Z"/><path class="cls-42" d="M65.07,10.08c1.67,1.36,4.08,1.3,5.62,2.91a43.39,43.39,0,0,1-9.06-3.52Z"/><path class="cls-42" d="M57.63,8.47a6.47,6.47,0,0,1,4,1l-.6.09a3.09,3.09,0,0,1-2.44,0A1.55,1.55,0,0,1,57.63,8.47Z"/><path class="cls-62" d="M53.12,8.54l3.93.05A3.71,3.71,0,0,1,53.12,8.54Z"/><path class="cls-61" d="M44.61,8c1.23-1,2.65-.32,4-.44C47.34,8.49,45.93,7.83,44.61,8Z"/><path class="cls-63" d="M58.61,9.54l2.44,0A1.67,1.67,0,0,1,58.61,9.54Z"/><path class="cls-46" d="M38.11,74A21.37,21.37,0,0,1,31,68.65c-.26-.31-1-.52-.43-1.16H64.34C62.86,70.7,60,72.12,57.61,74,51.11,76.67,44.61,77,38.11,74Z"/><path class="cls-64" d="M52.05,77H44.16A14.21,14.21,0,0,1,52.05,77Z"/><path class="cls-65" d="M75.63,44c0,.21-.06.41-.1.63-1.85,1.75-1.4,4.76-3.5,6.37a1.11,1.11,0,0,1-.19-1c.45-1.12.8-2.24,0-3.34a11.06,11.06,0,0,1-1-1.18c-.16-.24-.31-.49-.48-.72a3.92,3.92,0,0,1-.44-.7,1.74,1.74,0,0,0-.27-.46c-1.08-.09-2.21.12-3.13-.66a.56.56,0,0,1,.21-.59,7.21,7.21,0,0,1,2.15,0c-.7.11-1.8-.36-2.84.37-.46.43-1.14.57-1.48,1.13a2.92,2.92,0,0,1,1.72-.92,7.53,7.53,0,0,1,.87.5.92.92,0,0,1,.16.64,1.91,1.91,0,0,1-.35.58,3.05,3.05,0,0,1-.51.43c-1.07.31-1,2-2.32,2-.66-.74-1.94-.41-2.45-1.41,0-.22-.1-.44-.14-.66v0c.86-1,1.4-2.29,2.54-3.06l0,0a8.19,8.19,0,0,1,9.66,0A4.35,4.35,0,0,1,75.63,44Z"/><path class="cls-66" d="M72.19,50.06c-.06.3-.11.6-.16.9-2,1.46-3.94,2.25-6,.09l.24-.24a10.61,10.61,0,0,0,5.58-.94A2.9,2.9,0,0,0,72.19,50.06Z"/><path class="cls-53" d="M64.11,47c.74-.92.86-2.44,2.46-2.51a.67.67,0,0,1,.19.57c-.28.68-.9,1.16-1.11,1.88a2.88,2.88,0,0,0-.15,2.12c.15.64.48,1.26.13,1.93C63.83,50.15,64.17,48.5,64.11,47Z"/><path class="cls-67" d="M65.63,51l-.71-2c1.52-.11,1.54.77,1.25,1.86l-.09.16Z"/><path class="cls-68" d="M73.68,42a11,11,0,0,0-9.66,0A6.89,6.89,0,0,1,73.68,42Z"/><path class="cls-53" d="M64.06,41.91A8.64,8.64,0,0,1,61.52,45,4,4,0,0,1,64.06,41.91Z"/><path class="cls-69" d="M32.14,45c0,.36,0,.73-.07,1.09-.72.66-2.24-.07-2.47,1.43-1.45-.5-1.46-2.24-2.61-3,.67-1.71.86-1.69,2.61.25A6.21,6.21,0,0,0,20.73,44c-.61.5-1.1,1.32-2.11,1l-.55,0,.63-1.48c.25-.7.91-1.05,1.38-1.57l0,0a8.58,8.58,0,0,1,9.67,0c.79.15,1.12.78,1.46,1.39a3.37,3.37,0,0,0,1,1.63Z"/><path class="cls-57" d="M29.71,42A12.39,12.39,0,0,0,20,42C23,39.33,26.66,39.34,29.71,42Z"/><path class="cls-57" d="M20.08,41.92a2.74,2.74,0,0,1-1.38,1.57c0-.15,0-.3-.07-.44A1.82,1.82,0,0,1,20.08,41.92Z"/><path class="cls-57" d="M32.14,45c-1.13-.06-1-.85-1-1.62A2,2,0,0,1,32.14,45Z"/><path class="cls-70" d="M23.11,52l-.9-.55a1.47,1.47,0,0,1-.94-1.6c.31-1.12-.05-2.5,1.26-3.23,2.07-.54,4.15-.17,6.22-.08.84,2.54-.22,4.3-2.29,5.66A4.67,4.67,0,0,1,23.11,52Z"/><path class="cls-57" d="M21.55,50.05c.22.46.44.93.65,1.4-1,.12-1.39-.7-1.6-1.31-.61-1.73-.53-3.72-2-5.13,1.95-1.79,3.79-3.49,6.9-3.08,2.89.38,3.81.75,5.12,4-1.28,0-1.37-1.31-2.16-1.81s-1.18-.82-1.33.37l-.22.23a1,1,0,0,1-.9-.09,1.51,1.51,0,0,1-.26-.56,5.44,5.44,0,0,1,0-.57,8.41,8.41,0,0,0-1.88.11,1.2,1.2,0,0,1-.08.5,3,3,0,0,1-.47.69l-.55.68a11.83,11.83,0,0,0-1.07,1.48A8.79,8.79,0,0,0,21.55,50.05Z"/><path class="cls-57" d="M26.58,51.92c1.73-1.39,2.7-3.05,1.84-5.34a6.19,6.19,0,0,1-.91-.71,2.35,2.35,0,0,1-.36-.47.84.84,0,0,1-.07-.85l.07-.08c1.9.14,1.71,2,2.45,3a5.45,5.45,0,0,1-3,5c-.16-.12-.21-.23-.16-.35S26.53,51.92,26.58,51.92Z"/><path class="cls-23" d="M26.58,51.92c0,.18,0,.36,0,.54-1.23.41-2.48.91-3.48-.46Z"/><path class="cls-71" d="M41.6,7.51c0,.17,0,.35,0,.52h0c-.76.58-1.76-.09-2.53.48l-3,.09-.58-.12A11.9,11.9,0,0,1,41.6,7.51Z"/><path class="cls-42" d="M39.08,8.51c.73-.75,1.68-.38,2.53-.48C40.9,8.87,39.94,8.42,39.08,8.51Z"/><path class="cls-72" d="M65.16,46.49c.12-.8.74-1.17,1.37-1.53a1.11,1.11,0,0,1,.61-.23,12.15,12.15,0,0,0,3.3.1.8.8,0,0,1,.61.19l1,1.08a.76.76,0,0,1,.07,1,1.66,1.66,0,0,1-1.09.24,13.27,13.27,0,0,0-4.31-.09A1.85,1.85,0,0,1,65.16,46.49Z"/><path class="cls-68" d="M74.28,45.73l-2.94-3.15C73.05,43,74.13,43.84,74.28,45.73Z"/><path class="cls-68" d="M66.61,42.51V43h0c-1.28.38-2.1,1.49-3.46,2.45a4.13,4.13,0,0,1,2.46-3A.69.69,0,0,1,66.61,42.51Z"/><path class="cls-66" d="M72.06,47l0-.87a2.75,2.75,0,0,1,.11,4L72,50A2.27,2.27,0,0,1,72.06,47Z"/><path class="cls-73" d="M71.05,45l-.53.06a6.67,6.67,0,0,1-3.35,0l-.64-.1c0-.15,0-.31,0-.47l.14.09a3.06,3.06,0,0,1,3.87,0Z"/><path class="cls-53" d="M66.61,42.51h-1c1.24-1,2.62-.28,4,0Z"/><path class="cls-74" d="M70.58,44.53l-3.87,0,.41-.56a2.51,2.51,0,0,1,3,0Z"/><path class="cls-75" d="M67.14,43.53,66.61,43h0l3.46.09a.28.28,0,0,1,.11.19c0,.08-.06.15-.09.23A4.22,4.22,0,0,1,67.14,43.53Z"/><path class="cls-76" d="M67.14,43.53h3l0,.47-3,0A4,4,0,0,1,67.14,43.53Z"/><path class="cls-77" d="M72.06,47c0,1,0,2,0,3a4.75,4.75,0,0,1-5.88.94c-.24-.73-.36-1.54-1.24-1.86-.79-.92.07-1.7.24-2.54l1.45.5c.3.42.23.95.42,1.39.36.87.89,1.63,2,1.56s1.36-.77,1.53-1.65a1.83,1.83,0,0,1,.6-1.29Z"/><path class="cls-78" d="M27.62,45.52a1,1,0,0,1,.8,1.06c-1.87,1-3.88.14-5.81.43a.59.59,0,0,1,0-.66C24.06,44.89,25.92,45.7,27.62,45.52Z"/><path class="cls-79" d="M22.61,46.51V47c-1.06.76.1,2.3-1.06,3-1.07-1.11-.64-2.34-.31-3.57A1,1,0,0,1,22.61,46.51Z"/><path class="cls-80" d="M22.61,46.51l-1.37,0,1.29-1.54a4.65,4.65,0,0,1,5.09.57h0c-.11.51-.26,1-.94.76C25.27,45.68,24,46.17,22.61,46.51Z"/><path class="cls-81" d="M27.62,45.51c-1.65-.65-3.39-.48-5.09-.57l.56-.45a2.55,2.55,0,0,1,3.08,0l.91.08Z"/><path class="cls-82" d="M23.63,43.52c-.08,0-.18,0-.24-.05a2.43,2.43,0,0,1-.26-.29,6.52,6.52,0,0,1,3-.06s.09.13.09.19a1,1,0,0,1-.1.21A1.92,1.92,0,0,1,23.63,43.52Z"/><path class="cls-83" d="M26.17,44.47l-3.08,0,.5-.53a2.88,2.88,0,0,1,2.48.1C26.1,44.2,26.13,44.33,26.17,44.47Z"/><path class="cls-84" d="M26.07,44.06,23.59,44c0-.15,0-.29,0-.44H26.1Z"/><path class="cls-67" d="M71.11,47c-.18,1,.5,2.26-.62,3-.76.49-1.6,1.46-2.63.49S65.45,48.72,66.61,47A4.62,4.62,0,0,1,71.11,47Z"/><path class="cls-85" d="M67.17,45.06l3.36,0A3,3,0,0,1,67.17,45.06Z"/></g></g></svg>