<svg width="32" height="32" viewBox="0 0 32 32" fill="none" xmlns="http://www.w3.org/2000/svg">
<path fill-rule="evenodd" clip-rule="evenodd" d="M2 1H30C30.5523 1 31 1.44772 31 2V3.5H1V2C1 1.44772 1.44772 1 2 1ZM1 4.5V30C1 30.5523 1.44772 31 2 31H30C30.5523 31 31 30.5523 31 30V4.5H1ZM0 2C0 0.895431 0.895431 0 2 0H30C31.1046 0 32 0.895431 32 2V30C32 31.1046 31.1046 32 30 32H2C0.895431 32 0 31.1046 0 30V2ZM3 2.5C3 2.77614 2.77614 3 2.5 3C2.22386 3 2 2.77614 2 2.5C2 2.22386 2.22386 2 2.5 2C2.77614 2 3 2.22386 3 2.5ZM5 3C5.27614 3 5.5 2.77614 5.5 2.5C5.5 2.22386 5.27614 2 5 2C4.72386 2 4.5 2.22386 4.5 2.5C4.5 2.77614 4.72386 3 5 3ZM8 2.5C8 2.77614 7.77614 3 7.5 3C7.22386 3 7 2.77614 7 2.5C7 2.22386 7.22386 2 7.5 2C7.77614 2 8 2.22386 8 2.5ZM19 8H25.6667C26.219 8 26.6667 8.44772 26.6667 9V10.333C26.6667 10.8853 26.219 11.333 25.6667 11.333H19C18.4477 11.333 18 10.8853 18 10.333V9C18 8.44772 18.4477 8 19 8ZM17 9C17 7.89543 17.8954 7 19 7H25.6667C26.7712 7 27.6667 7.89543 27.6667 9V10.333C27.6667 11.4376 26.7712 12.333 25.6667 12.333H19C17.8954 12.333 17 11.4376 17 10.333V10.0133C16.7715 10.027 16.5925 10.0506 16.4522 10.0818C16.2235 10.1326 16.1371 10.195 16.1036 10.2285C16.0761 10.256 16.0451 10.3021 16.0245 10.426C16.0014 10.5642 16 10.7374 16 11V11L16 17.5H17V17C17 15.8954 17.8954 15 19 15H25.6667C26.7712 15 27.6667 15.8954 27.6667 17V18.333C27.6667 19.4376 26.7712 20.333 25.6667 20.333H19C17.9517 20.333 17.0917 19.5264 17.0069 18.5H16L16 24.0003C16 24.1638 16.0392 24.2362 16.0666 24.2714C16.0973 24.3109 16.1568 24.3588 16.2831 24.4009C16.468 24.4625 16.7075 24.4861 17 24.495V24C17 22.8954 17.8954 22 19 22H25.6667C26.7712 22 27.6667 22.8954 27.6667 24V25.333C27.6667 26.4376 26.7712 27.333 25.6667 27.333H19C17.9504 27.333 17.0896 26.5244 17.0066 25.4962C16.6536 25.4866 16.2822 25.4547 15.9669 25.3496C15.7182 25.2667 15.4652 25.1271 15.2772 24.8853C15.0858 24.6393 15 24.3367 15 24.0002L15 18.5H13.6667V20C13.6667 21.1046 12.7712 22 11.6667 22H5C3.89543 22 3 21.1046 3 20V16C3 14.8954 3.89543 14 5 14H11.6667C12.7712 14 13.6667 14.8954 13.6667 16V17.5H15L15 11V11L15 10.9762C15 10.7451 14.9999 10.4906 15.0381 10.2616C15.0799 10.0105 15.1739 9.74403 15.3964 9.5215C15.6129 9.30496 15.9015 9.17975 16.2353 9.10558C16.453 9.0572 16.7064 9.02691 17 9.01176V9ZM11.6667 15H5C4.44772 15 4 15.4477 4 16V20C4 20.5523 4.44772 21 5 21H11.6667C12.219 21 12.6667 20.5523 12.6667 20V16C12.6667 15.4477 12.219 15 11.6667 15ZM25.6667 16H19C18.4477 16 18 16.4477 18 17V18.333C18 18.8853 18.4477 19.333 19 19.333H25.6667C26.219 19.333 26.6667 18.8853 26.6667 18.333V17C26.6667 16.4477 26.219 16 25.6667 16ZM19 23H25.6667C26.219 23 26.6667 23.4477 26.6667 24V25.333C26.6667 25.8853 26.219 26.333 25.6667 26.333H19C18.4477 26.333 18 25.8853 18 25.333V24C18 23.4477 18.4477 23 19 23Z" fill="#5A8B23"/>
</svg>
