<svg width="176" height="200" viewBox="0 0 176 200" fill="none" xmlns="http://www.w3.org/2000/svg">
<path d="M98.5315 130.547C91.4638 131.147 74.6121 131.027 69.2906 127.479C69.7063 126.093 71.3645 119.136 70.3667 115.699L66.625 104.613L99.3305 94.6348L104.874 109.047L98.5315 130.547Z" fill="#CDE4A9"/>
<g filter="url(#filter0_d)">
<path d="M100.304 77.7273C104.135 101.112 91.658 113.788 76.6044 116.254C63.852 118.343 59.7613 103.038 56.9314 85.7645C56.9314 82.1626 56.6492 81.3309 57.4795 75.7875C52.1047 64.7169 55.6744 47.7927 61.912 47.7925C79.8926 47.7919 97.4737 60.4536 100.304 77.7273Z" fill="#CDE4A9"/>
</g>
<path fill-rule="evenodd" clip-rule="evenodd" d="M28.2695 172.885C28.2895 164.522 28.6192 148.616 32.9811 144.542L37.4157 148.006H48.2252L66.2409 124.863C75.7754 131.959 98.1149 127.82 108.093 124.863L132.206 118.627C148.614 122.175 154.102 139.322 154.795 147.452C155.859 153.457 155.03 160.457 153.942 165.664C137.818 186.383 114.251 199.446 87.9984 199.446C64.9436 199.446 43.9596 189.371 28.2695 172.885Z" fill="#568225"/>
<g filter="url(#filter1_d)">
<path d="M76.3612 60.6984C76.9155 57.5572 75.502 51.2748 65.4132 51.2748C61.422 49.7227 58.2993 53.4921 57.2368 55.5709C56.239 58.1208 55.9896 67.3504 55.9896 71.6464C54.9831 69.5616 54.8934 65.7712 55.0933 62.4822C54.1368 68.4158 52.0983 73.3511 51.0001 75.3882L48.7828 76.4968L48.0898 74.1409C51.1941 68.5976 51.693 64.8097 51.5544 63.6087C51.7761 58.5088 54.6036 53.2611 55.9896 51.2748C57.9847 47.7271 62.1791 42.4055 64.0269 40.1882C72.3418 31.3189 83.2898 29.1016 87.7245 29.1016H97.7029C102.738 29.1016 113.917 32.7879 121.123 39.7724C122.324 42.2207 128.136 50.9422 126.805 63.4701C126.436 67.5814 126.085 75.5822 129.3 81.9016L132.626 93.9583C134.15 98.0233 136.395 107.706 133.18 113.914C137.291 114.422 146.733 117.046 151.612 123.476C152.905 126.664 155.132 134.868 153.69 142.185C152.951 139.691 150.697 134.12 147.593 131.791C145.884 130.267 141.273 127.578 136.506 129.02C134.15 129.944 128.912 132.872 126.805 137.196C128.33 137.889 131.628 139.857 132.626 142.185C134.612 146.62 136.506 155.932 128.191 157.706C129.531 156.921 132.044 153.798 131.379 147.59C131.009 145.28 129.161 140.494 124.727 139.829V140.661C127.267 142.693 131.406 148.172 127.637 153.826C127.868 150.5 127.221 143.848 122.786 143.848C121.909 146.343 118.518 151.83 111.977 153.826C113.178 157.106 113.806 164.247 106.711 166.576C107.912 165.744 110.314 163.222 110.314 159.785C109.991 156.921 108.152 150.777 103.385 149.114C101.168 148.144 96.1508 144.818 93.8226 139.275C92.714 137.612 90.9678 132.567 92.8525 125.694C92.0672 124.724 90.4966 122.174 90.4966 119.735C90.1271 116.039 90.2749 106.542 93.8226 98.1157C95.809 94.0968 97.7029 85.2275 89.388 81.9016C85.831 79.9152 78.2459 72.8937 76.3612 60.6984Z" fill="#568225"/>
</g>
<path fill-rule="evenodd" clip-rule="evenodd" d="M47.6719 75.2433L55.9868 71.2324L56.5412 72.7179L53.6309 73.9064H56.5412C57.8346 74.0054 61.0035 74.8274 63.3317 77.3231L68.0435 77.4716L70.3994 75.689C72.9401 75.2433 79.0193 74.7383 83.0105 76.2832L84.812 76.8774L88.6923 79.997L86.0593 80.5912L85.6435 85.3449C85.6897 86.9295 84.7289 90.4551 80.516 91.8812H78.0215C77.3286 91.8812 75.1944 91.3167 72.201 89.0587C70.9076 88.0189 68.0158 84.7507 66.7963 79.997H65.2719C64.9947 79.7494 64.2741 79.9673 63.6089 82.8195C63.6089 84.3546 62.9714 87.8703 60.4215 89.653C59.5438 89.9501 57.2064 90.2472 54.8782 89.0587C53.3076 88.1179 50.0278 85.0478 48.5034 79.997C48.4734 79.8977 48.4311 79.7835 48.3814 79.649C48.1256 78.9575 47.6719 77.7308 47.6719 75.2433ZM56.2642 75.2422C57.6039 75.5889 60.8375 76.9952 63.0548 79.8474L62.6394 83.8584C62.6098 83.9587 62.5778 84.0738 62.5423 84.2011L62.5422 84.2012C62.2451 85.2675 61.7095 87.1895 60.422 88.4635C59.6367 88.7111 57.7058 89.0577 56.2642 88.4635C55.3867 87.9188 53.2988 86.2352 51.9682 83.8584C51.3215 82.9175 50.1389 80.1742 50.5823 76.7278C51.0905 76.084 52.9383 74.8857 56.2642 75.2422ZM83.1502 79.9953C80.9329 77.1431 76.5067 76.2811 74.7938 76.2812C71.2321 76.2816 69.62 77.7824 69.1119 78.4261C68.6684 81.8726 70.1699 84.5512 70.8166 85.4921C72.1473 87.8689 74.5123 89.5525 75.3898 90.0972C76.8314 90.6914 79.8707 90.7905 80.656 90.5429C83.0119 89.3544 84.259 87.6213 84.536 86.6805C84.536 86.6805 85.3675 82.8475 83.1502 79.9953Z" fill="#568225"/>
<path d="M42.2662 97.5622L27.9922 141.077C27.9922 141.447 28.1308 142.324 28.6851 142.879C32.5192 145.789 41.9336 151.249 48.9182 149.808L72.6158 109.758L73.7245 108.51C74.2326 107.078 74.7223 103.688 72.6158 101.581L73.0316 99.7796C72.9854 99.0405 72.3109 97.1465 69.9827 95.4836C67.0725 93.0353 58.5358 88.1387 47.6709 88.1387L46.2851 90.2173C45.6384 90.0326 43.9292 90.2451 42.2662 92.5732C41.7119 93.4971 40.9358 95.7884 42.2662 97.5622Z" fill="#568225"/>
<path d="M175 100C175 154.8 135.932 199 88 199C40.0675 199 1 154.8 1 100C1 45.1999 40.0675 1 88 1C135.932 1 175 45.1999 175 100Z" stroke="#5A8B23" stroke-width="2"/>
<g filter="url(#filter2_d)">
<path d="M64.3023 115.716L63.4708 116.824L60.1445 111.42C60.0059 110.865 59.3961 109.563 58.0657 108.787L55.1555 107.262L48.6421 103.798C48.2725 103.659 46.896 103.52 44.346 104.075H42.683C42.1749 104.075 40.9646 104.324 40.1886 105.322V106.569L41.8515 108.509C42.4521 108.694 44.1243 108.953 46.009 108.509C46.3324 109.156 47.5057 110.644 49.6122 111.42C50.0741 111.512 51.3583 112.085 52.7996 113.637C52.7534 114.33 53.2985 116.215 55.8484 118.21L57.2342 120.705L51.8295 116.824C50.6285 115.993 47.0347 114.136 42.2673 113.36C40.9277 113.129 37.7495 113 35.7539 114.33C35.1072 114.422 33.592 114.967 32.7051 116.409L33.8137 118.487C34.7838 118.949 37.1397 119.541 38.8027 118.21C39.4956 118.811 41.713 120.095 45.0389 120.428C45.9628 121.444 48.7252 123.837 52.3838 125.278L53.0767 127.357C48.5959 125.278 38.8582 121.231 35.7539 121.675L31.8738 123.199C31.689 123.938 31.4303 125.5 31.8738 125.832C32.5667 126.433 34.5623 127.495 37.0013 126.941C37.9252 127.726 40.355 129.297 42.6832 129.297C43.1914 130.082 45.0114 131.874 48.2265 132.761C48.3189 135.164 48.6423 140.882 49.1966 144.541C49.3352 146.804 50.3053 152.302 53.0769 156.182C54.5551 157.06 58.0105 159.702 60.0061 163.25C63.3782 170.179 71.3144 185.09 76.0816 189.303L83.9809 179.048C83.9347 177.108 84.5075 172.535 87.1683 169.763C84.4428 165.836 77.7723 156.819 72.8942 152.163C72.3861 150.269 70.9818 145.954 69.4297 143.848L69.7068 132.761L70.5383 128.327C70.9541 126.756 71.6747 122.811 71.2312 119.596V106.154C70.3997 105.322 68.6536 103.243 68.321 101.58C67.8591 100.01 66.2423 96.5359 63.4708 95.2055L60.699 92.8496C59.9599 92.942 58.4818 93.4871 58.4818 94.9283C58.4356 95.7137 59.0638 98.0326 61.9464 101.026C62.2697 102.273 63.3322 105.294 64.9952 107.401C64.7642 108.509 64.3023 111.725 64.3023 115.716Z" fill="#CDE4A9"/>
</g>
<defs>
<filter id="filter0_d" x="46.9961" y="41.4062" width="64.8347" height="86.1902" filterUnits="userSpaceOnUse" color-interpolation-filters="sRGB">
<feFlood flood-opacity="0" result="BackgroundImageFix"/>
<feColorMatrix in="SourceAlpha" type="matrix" values="0 0 0 0 0 0 0 0 0 0 0 0 0 0 0 0 0 0 127 0"/>
<feOffset dx="1" dy="4"/>
<feGaussianBlur stdDeviation="2.5"/>
<feColorMatrix type="matrix" values="0 0 0 0 0.2 0 0 0 0 0.2 0 0 0 0 0.2 0 0 0 0.25 0"/>
<feBlend mode="normal" in2="BackgroundImageFix" result="effect1_dropShadow"/>
<feBlend mode="normal" in="SourceGraphic" in2="effect1_dropShadow" result="shape"/>
</filter>
<filter id="filter1_d" x="43.0898" y="28.1016" width="116.069" height="147.474" filterUnits="userSpaceOnUse" color-interpolation-filters="sRGB">
<feFlood flood-opacity="0" result="BackgroundImageFix"/>
<feColorMatrix in="SourceAlpha" type="matrix" values="0 0 0 0 0 0 0 0 0 0 0 0 0 0 0 0 0 0 127 0"/>
<feOffset dy="4"/>
<feGaussianBlur stdDeviation="2.5"/>
<feColorMatrix type="matrix" values="0 0 0 0 0.2 0 0 0 0 0.2 0 0 0 0 0.2 0 0 0 0.3 0"/>
<feBlend mode="normal" in2="BackgroundImageFix" result="effect1_dropShadow"/>
<feBlend mode="normal" in="SourceGraphic" in2="effect1_dropShadow" result="shape"/>
</filter>
<filter id="filter2_d" x="23.6289" y="80.8496" width="75.5393" height="116.454" filterUnits="userSpaceOnUse" color-interpolation-filters="sRGB">
<feFlood flood-opacity="0" result="BackgroundImageFix"/>
<feColorMatrix in="SourceAlpha" type="matrix" values="0 0 0 0 0 0 0 0 0 0 0 0 0 0 0 0 0 0 127 0"/>
<feOffset dx="2" dy="-2"/>
<feGaussianBlur stdDeviation="5"/>
<feColorMatrix type="matrix" values="0 0 0 0 0.2 0 0 0 0 0.2 0 0 0 0 0.2 0 0 0 0.2 0"/>
<feBlend mode="normal" in2="BackgroundImageFix" result="effect1_dropShadow"/>
<feBlend mode="normal" in="SourceGraphic" in2="effect1_dropShadow" result="shape"/>
</filter>
</defs>
</svg>
