<svg width="32" height="32" viewBox="0 0 32 32" fill="none" xmlns="http://www.w3.org/2000/svg">
<path fill-rule="evenodd" clip-rule="evenodd" d="M16 32C24.8366 32 32 24.8366 32 16C32 7.16344 24.8366 0 16 0C7.16344 0 0 7.16344 0 16C0 24.8366 7.16344 32 16 32ZM15.9988 16.0002L25.6983 8.8002H6.29934L15.9988 16.0002ZM19.2169 16.188L15.9975 18.6664L12.7792 16.189L5.86523 23.4669H26.1319L19.2169 16.188ZM26.1321 20.8015L20.7988 14.9341L26.1321 10.1335V20.8015ZM11.1992 14.9341L5.86591 20.8015V10.1335L11.1992 14.9341Z" fill="#333333"/>
</svg>
