<svg width="32" height="32" viewBox="0 0 32 32" fill="none" xmlns="http://www.w3.org/2000/svg">
<path d="M6.66683 10.667L5.3335 12.0003L6.66683 13.3337" stroke="#5A8B23" stroke-linecap="round"/>
<path d="M14.6667 10.667L16 12.0003L14.6667 13.3337" stroke="#5A8B23" stroke-linecap="round"/>
<path d="M8.88628 14.4427C8.76279 14.6897 8.8629 14.9901 9.10989 15.1136C9.35688 15.237 9.65722 15.1369 9.78071 14.8899L8.88628 14.4427ZM12.4474 9.55661C12.5709 9.30963 12.4708 9.00929 12.2238 8.88579C11.9768 8.7623 11.6764 8.86241 11.5529 9.1094L12.4474 9.55661ZM9.78071 14.8899L12.4474 9.55661L11.5529 9.1094L8.88628 14.4427L9.78071 14.8899Z" fill="#5A8B23"/>
<path d="M24 27.4997C23.7239 27.4997 23.5 27.7235 23.5 27.9997C23.5 28.2758 23.7239 28.4997 24 28.4997V27.4997ZM27.5556 28.4997C27.8317 28.4997 28.0556 28.2758 28.0556 27.9997C28.0556 27.7235 27.8317 27.4997 27.5556 27.4997V28.4997ZM24 24.833C23.7239 24.833 23.5 25.0569 23.5 25.333C23.5 25.6092 23.7239 25.833 24 25.833V24.833ZM29.3333 25.833C29.6095 25.833 29.8333 25.6092 29.8333 25.333C29.8333 25.0569 29.6095 24.833 29.3333 24.833V25.833ZM24 28.4997H27.5556V27.4997H24V28.4997ZM24 25.833H29.3333V24.833H24V25.833Z" fill="#5A8B23"/>
<path d="M4 18.167C3.72386 18.167 3.5 18.3908 3.5 18.667C3.5 18.9431 3.72386 19.167 4 19.167V18.167ZM17.3333 19.167C17.6095 19.167 17.8333 18.9431 17.8333 18.667C17.8333 18.3908 17.6095 18.167 17.3333 18.167V19.167ZM4 19.167H10.6667V18.167H4V19.167ZM10.6667 19.167L17.3333 19.167V18.167L10.6667 18.167V19.167Z" fill="#5A8B23"/>
<path d="M6.6665 22.167C6.39036 22.167 6.1665 22.3908 6.1665 22.667C6.1665 22.9431 6.39036 23.167 6.6665 23.167V22.167ZM10.6665 23.167C10.9426 23.167 11.1665 22.9431 11.1665 22.667C11.1665 22.3908 10.9426 22.167 10.6665 22.167V23.167ZM6.6665 23.167H10.6665V22.167H6.6665V23.167Z" fill="#5A8B23"/>
<path d="M13.3335 22.167C13.0574 22.167 12.8335 22.3908 12.8335 22.667C12.8335 22.9431 13.0574 23.167 13.3335 23.167V22.167ZM17.3335 23.167C17.6096 23.167 17.8335 22.9431 17.8335 22.667C17.8335 22.3908 17.6096 22.167 17.3335 22.167V23.167ZM13.3335 23.167H17.3335V22.167H13.3335V23.167Z" fill="#5A8B23"/>
<path d="M4 26.167C3.72386 26.167 3.5 26.3908 3.5 26.667C3.5 26.9431 3.72386 27.167 4 27.167V26.167ZM17.3333 27.167C17.6095 27.167 17.8333 26.9431 17.8333 26.667C17.8333 26.3908 17.6095 26.167 17.3333 26.167V27.167ZM4 27.167H10.6667V26.167H4V27.167ZM10.6667 27.167L17.3333 27.167V26.167L10.6667 26.167V27.167Z" fill="#5A8B23"/>
<path d="M0 5.33301H30.6667" stroke="#5A8B23"/>
<path d="M21.3335 5.33301V30.6663" stroke="#5A8B23"/>
<rect x="0.5" y="0.5" width="31" height="31" rx="1.5" stroke="#5A8B23"/>
<path fill-rule="evenodd" clip-rule="evenodd" d="M28.3333 9H25V21.6667L28.3333 21.6667V9ZM25 8C24.4477 8 24 8.44772 24 9V21.6667C24 22.219 24.4477 22.6667 25 22.6667H28.3333C28.8856 22.6667 29.3333 22.219 29.3333 21.6667V9C29.3333 8.44772 28.8856 8 28.3333 8H25Z" fill="#5A8B23"/>
<path d="M25.3335 22.0003L28.0002 8.66699" stroke="#5A8B23"/>
<circle cx="3.33317" cy="3.33366" r="0.666667" fill="#5A8B23"/>
<circle cx="6.00016" cy="3.33366" r="0.666667" fill="#5A8B23"/>
<circle cx="8.66667" cy="3.33366" r="0.666667" fill="#5A8B23"/>
</svg>
