<svg width="32" height="32" viewBox="0 0 32 32" fill="none" xmlns="http://www.w3.org/2000/svg">
<path fill-rule="evenodd" clip-rule="evenodd" d="M20.8371 31.2558C27.3093 29.2056 32 23.1506 32 16C32 7.16344 24.8366 0 16 0C7.16344 0 0 7.16344 0 16C0 23.0542 4.56517 29.0422 10.9023 31.1708C11.3073 31.1899 12.0866 31.1247 12.0439 30.3306C11.8451 29.9296 11.7333 29.4778 11.7333 28.9999V27.7335C10.8438 27.9108 8.84511 27.6915 7.46788 26.6666C6.79211 26.1637 6.51832 25.5704 6.2315 24.9488C6.00692 24.4621 5.77434 23.9581 5.33455 23.4666C5.18467 23.2991 5.01644 23.1868 4.85708 23.0805C4.59878 22.9082 4.36376 22.7514 4.26788 22.4C3.9884 21.3754 6.06203 22.0615 6.93455 22.9333C7.22375 23.2223 7.45863 23.5682 7.69499 23.9163C8.17173 24.6184 8.6545 25.3294 9.60122 25.5999C10.1597 25.7595 10.7172 25.6966 11.1844 25.6438H11.1844C11.3867 25.621 11.5721 25.6 11.7333 25.5999V25.3999C11.7333 24.512 12.119 23.7143 12.732 23.165C8.34774 22.2933 5.86667 19.6018 5.86667 16C5.86667 13.9931 6.63698 12.1587 8.07762 10.7543C7.72429 8.1367 7.66009 5.64347 7.95043 5.90086C8.04897 5.98822 8.45202 6.14487 9.00053 6.35806L9.00054 6.35807L12.8887 8.3148C13.8402 8.10985 14.8792 8.00001 16 8.00001C17.3243 8.08829 18.4878 8.24549 19.5074 8.46641C21.908 6.88757 24.5502 5.56457 24.4277 5.96693C24.3893 6.0929 24.4148 6.52452 24.4496 7.11192V7.11197V7.112V7.11204C24.5113 8.15714 24.6022 9.69529 24.4144 10.8825C25.6816 12.2239 26.1333 13.9669 26.1333 16C26.1333 19.6018 23.6523 22.2933 19.268 23.165C19.881 23.7143 20.2667 24.512 20.2667 25.3999V28.9999C20.2667 29.6141 20.0821 30.1851 19.7654 30.6606C19.6348 31.3431 20.2422 31.3748 20.8371 31.2558ZM16.0569 31.9999H15.9431C15.962 32 15.981 32 16 32C16.019 32 16.038 32 16.0569 31.9999Z" fill="#333333"/>
</svg>
