<svg width="32" height="32" viewBox="0 0 32 32" fill="none" xmlns="http://www.w3.org/2000/svg">
<path fill-rule="evenodd" clip-rule="evenodd" d="M28.5456 24.2256C30.0973 21.8637 31 19.0372 31 16C31 13.4954 30.3862 11.1342 29.3007 9.05859C26.5123 10.5427 24.1468 9.84861 23.1971 9.18381L23.1268 9.13462L23.077 9.06481L21.9362 7.46774H18.8075L17.2878 9.2046L17.5101 12.3174L21.4511 14.172L23.5838 13.4611L23.7803 13.3956L23.9655 13.4883L25.5139 14.2625L25.7903 14.4007V14.7097V17.1518L28.0416 20.904L28.1129 21.0228V21.1613V23.7929L28.5456 24.2256ZM27.9601 25.0543C25.2211 28.6667 20.883 31 16 31C7.71573 31 1 24.2843 1 16C1 14.7108 1.16264 13.4596 1.46851 12.2658L1.6049 12.5841L1.67274 12.7423L1.82367 12.8253L4.7592 14.4385L4.77308 14.4461L3.74492 15.6799L3.62903 15.819V16C3.62903 17.9978 4.54625 19.6043 5.03524 20.1911L5.15407 20.3337L5.33715 20.3642L7.99205 20.8066L7.75883 25.0045L7.75806 25.0184V25.0323C7.75806 25.8643 8.05197 26.6971 8.3912 27.3778C8.73286 28.0635 9.14312 28.6396 9.42682 28.9706L9.50674 29.0638L9.62075 29.1094L10.9111 29.6255L11.5968 29.8998V29.1613V26.5799L13.1938 25.4391L13.4032 25.2896V25.0323V22.9324L15.8183 20.7587L15.9839 20.6098V20.3871V18.5806V18.1571L15.5661 18.0874L14.2313 17.865L12.8031 15.7226L12.6762 15.5322L12.4491 15.5039L8.5856 15.0209L7.41495 12.6796L7.10471 12.0591L6.61418 12.5497L5.64061 13.5232L5.90323 12.5129L5.97523 12.2359L5.77287 12.0335L5.14512 11.4058V10.2442L8.58217 9.78594L8.65345 9.77643L8.71916 9.74723L11.0417 8.71497L11.1945 8.64706L11.2757 8.50089L12.5661 6.1783L12.5981 6.12069L12.6141 6.05675C12.6836 5.77845 12.8644 5.3838 13.1537 5.11419C13.4171 4.86876 13.7767 4.71429 14.3142 4.86786L14.5971 4.94868L14.8051 4.74065C14.8843 4.66147 14.9383 4.56932 14.9737 4.50088C15.0123 4.42628 15.0462 4.34468 15.0761 4.26389C15.136 4.10219 15.1909 3.91259 15.2392 3.72398C15.3361 3.34523 15.4163 2.93065 15.4609 2.66284L15.5909 1.88257L14.8303 2.09988C14.2455 2.26698 13.4351 2.43707 12.6955 2.34273C12.1982 2.27929 11.7481 2.10134 11.4099 1.7153C12.8566 1.25082 14.399 1 16 1C17.8533 1 19.6281 1.33611 21.2668 1.95069L21.0445 2.24701C20.8734 2.39809 20.5217 2.49858 20.0179 2.50651C19.5239 2.51429 19.0131 2.43146 18.7019 2.35364L18.2888 2.25036L18.121 2.64175L17.3468 4.4482L17.2 4.79071L17.4863 5.02927L19.0347 6.31959L19.2125 6.46774H18.5806H18.3537L18.2043 6.63849L16.3979 8.70301L16.2606 8.85991L16.2754 9.06788L16.5335 12.6808L16.5544 12.9729L16.8193 13.0976L21.2064 15.1621L21.3875 15.2473L21.5774 15.184L23.7035 14.4753L24.7903 15.0187V17.2903V17.4288L24.8616 17.5476L27.1129 21.2998V24V24.2071L27.2593 24.3536L27.9601 25.0543ZM19.3594 6.46774H22.1935H22.4508L22.6004 6.67712L23.8376 8.40919C24.5438 8.85746 26.4475 9.43372 28.8077 8.18805C28.3235 7.39585 27.7678 6.65207 27.1497 5.96566L26.3768 6.58398L26.1898 6.7336L25.956 6.68164L21.4558 5.6816L19.5303 6.40365L19.3594 6.46774ZM0.853463 10.8307C0.300187 12.4523 0 14.1911 0 16C0 24.8366 7.16344 32 16 32C24.8366 32 32 24.8366 32 16C32 7.16344 24.8366 0 16 0C8.99979 0 3.04957 4.49549 0.878812 10.757L0.830711 10.7776L0.853463 10.8307ZM1.92696 10.7969L2.45621 12.0318L4.67772 13.2527L4.8634 12.5383L4.29157 11.9665L4.14512 11.82V11.6129V9.80645V9.36869L4.57904 9.31084L8.37873 8.80421L10.4828 7.86907L11.6617 5.74709C11.7745 5.34218 12.0293 4.79508 12.472 4.38258C12.8872 3.99565 13.4596 3.73916 14.1713 3.82187C14.204 3.72243 14.2374 3.60489 14.2704 3.47602C14.2894 3.40166 14.3079 3.32535 14.3254 3.2489C13.7966 3.35023 13.1778 3.41235 12.569 3.33469C11.7656 3.23222 10.9613 2.88004 10.425 2.07021C6.50164 3.64185 3.39673 6.82298 1.92696 10.7969ZM21.8193 2.88065L22.22 2.34638C23.7964 3.06566 25.2264 4.04992 26.4532 5.24221L25.9391 5.6535L21.5278 4.6732L21.3828 4.64098L21.2437 4.69313L19.4515 5.36522L18.4128 4.49961L18.8792 3.41122C19.2172 3.46938 19.6255 3.51282 20.0336 3.50639C20.6005 3.49746 21.3156 3.39143 21.7729 2.9342L21.798 2.90907L21.8193 2.88065ZM5.78894 14.7891L4.63188 16.1776C4.67941 17.6626 5.31085 18.877 5.69496 19.41L8.59832 19.8939L9.04021 19.9675L9.01536 20.4148L8.75809 25.0455C8.76127 25.6551 8.98248 26.3223 9.28622 26.9318C9.55826 27.4777 9.87886 27.9423 10.1098 28.228L10.5968 28.4228V26.3226V26.0653L10.8062 25.9157L12.4032 24.7749V22.7097V22.487L12.5687 22.338L14.9839 20.1644V19.0042L13.8533 18.8158L13.6396 18.7802L13.5195 18.5999L12.098 16.4678L8.19604 15.98L7.93052 15.9468L7.81085 15.7075L6.83076 13.7473L5.78894 14.7891Z" fill="#5A8B23"/>
</svg>
