<svg xmlns="http://www.w3.org/2000/svg" viewBox="0 0 503.26 112.34"><defs><style>.cls-1{fill:#f37d31;}.cls-2{fill:#f37e33;}.cls-3{fill:#f37e32;}.cls-4{fill:#f37d32;}.cls-5{fill:#f37a2a;}</style></defs><g id="Layer_2" data-name="Layer 2"><g id="Layer_1-2" data-name="Layer 1"><path class="cls-1" d="M.05,54.36C-1.27,25.84,24.57,0,56,0c30.51.05,56.27,26,56.26,56.74,0,29.82-25.87,55.25-55.88,55.6C30.12,112.64-1.46,86.09.05,54.36Z"/><path class="cls-2" d="M187.4,56.16c0-4.39,0-8.79,0-13.18,0-2.34.92-3.32,3.32-3.28,5.9.1,11.81,0,17.71,0,1.27,0,2.89-.17,3,1.57.08,2-1.65,1.85-3,1.86-4.74,0-9.49.07-14.23,0-2,0-2.83.48-2.88,2.69-.21,8.5-.29,8.5,8.15,8.5,2.2,0,4.4,0,6.6,0,1.32,0,3.19-.37,3.23,1.62s-1.72,1.83-3.13,1.83c-3.93,0-7.87.1-11.8,0-2.2-.08-3,.56-3,2.9-.13,8.44-.22,8.44,8.22,8.44h9.37c1.33,0,2.78.14,2.76,1.87s-1.63,1.65-2.86,1.65c-6,0-12,0-18,0-2.38,0-3.33-.94-3.28-3.31C187.47,65,187.4,60.56,187.4,56.16Z"/><path class="cls-2" d="M479.46,56.1c0-4.28.12-8.56,0-12.84-.11-2.78,1-3.63,3.68-3.57,5.67.14,11.34,0,17,.06,1.3,0,3.16-.39,3.05,1.75s-1.89,1.65-3.23,1.66c-4.74,0-9.49.08-14.24,0-2,0-2.54.66-2.6,2.6-.3,8.6-.36,8.6,8.08,8.6h7.29c1.2,0,2.55.06,2.61,1.61.07,1.8-1.4,1.84-2.71,1.85-4.17,0-8.34.06-12.5,0-1.85,0-2.65.51-2.77,2.53-.52,8.8-.58,8.8,8.19,8.8,3.12,0,6.25,0,9.37,0,1.35,0,2.68.16,2.6,2s-1.46,1.54-2.58,1.54c-6,0-12,0-18.06,0-2.44,0-3.24-1-3.18-3.37C479.53,64.9,479.46,60.5,479.46,56.1Z"/><path class="cls-2" d="M169.78,56.47V69.66c0,1.44,0,3.09-1.87,3.11s-1.94-1.69-2-3.09c0-3.12-.08-6.25,0-9.37,0-1.78-.63-2.47-2.43-2.44-4.63.07-9.27.09-13.9,0-1.95,0-2.69.68-2.63,2.63.1,3.24,0,6.48,0,9.72,0,1.26-.24,2.49-1.71,2.56-1.69.08-2-1.22-2-2.62q0-13.89,0-27.77c0-1.37.18-2.74,1.9-2.72s1.77,1.48,1.77,2.8c0,3.12.06,6.25,0,9.37,0,1.67.34,2.57,2.29,2.53,4.74-.11,9.49-.09,14.24,0,1.8,0,2.47-.63,2.42-2.42-.09-3.13-.05-6.25,0-9.37,0-1.44.18-3,2.13-2.9,1.67.13,1.7,1.6,1.7,2.92Z"/><path class="cls-3" d="M328.12,73.12a18.59,18.59,0,0,1-11-3.76c-1-.76-2.24-1.64-1.18-3.09s2.2-.7,3.28.15a14.36,14.36,0,0,0,11,3.17c2.95-.39,5.39-1.72,5.77-5s-1.89-4.76-4.59-5.61c-2.87-.9-5.84-1.49-8.66-2.49-4.52-1.6-6.36-4.29-6.21-8.5.14-3.84,2.65-6.94,6.85-8.18a16.09,16.09,0,0,1,13.31,2c1.07.64,2.49,1.33,1.67,2.91-.9,1.76-2.25,1.1-3.51.29a12.67,12.67,0,0,0-9.24-2.16c-2.68.46-4.92,1.74-5.25,4.73s1.6,4.67,4.26,5.51,5.13,1.38,7.66,2.19c5.76,1.84,8.19,5,7.57,9.63s-4.49,7.94-10.06,8.26C329.28,73.15,328.7,73.12,328.12,73.12Z"/><path class="cls-3" d="M438.84,55.89c0,5.5,2,9.84,7,12.37s9.63,1.85,14-1.42l.55-.41c1-.76,2.19-1.8,3.3-.38,1.23,1.59-.21,2.51-1.27,3.38a16.7,16.7,0,0,1-27.24-9.9c-1.24-7.19.93-13.33,7.08-17.63a17.22,17.22,0,0,1,19,0,13.87,13.87,0,0,1,2.15,1.74,1.59,1.59,0,0,1,.29,2.19,1.82,1.82,0,0,1-2.44.68,14.88,14.88,0,0,1-1.71-1.18c-4.34-3-9-3.74-13.75-1.28S438.92,50.69,438.84,55.89Z"/><path class="cls-4" d="M285.38,39.75c-3-.09-6,.11-9,0-2.69-.15-3.79.82-3.69,3.58.16,4.27,0,8.56,0,12.84s.07,8.8,0,13.2c-.05,2.34.82,3.42,3.24,3.34,3.35-.12,6.72.06,10.07-.14a16.11,16.11,0,0,0,15.59-16.68C301.47,46.86,294.63,40,285.38,39.75ZM286.6,69c-10,1.38-10.16,1.22-10.16-8.68V56.12c0-3.58,0-7.16,0-10.75,0-1.35.28-2.25,1.9-2.17,3.22.16,6.47-.32,9.66.51A12.88,12.88,0,0,1,286.6,69Z"/><path class="cls-4" d="M421.88,69.28q-6.35-13.89-12.7-27.8c-.57-1.25-1.36-2.21-2.83-2.16s-2,1-2.52,2.1q-2.32,5.05-4.64,10.11-4.05,8.84-8.1,17.68c-.76,1.64-1.16,3.12,1.06,3.64a2.37,2.37,0,0,0,2.21-2.18c1.37-6.18,5.38-7.64,11-6.66a4.63,4.63,0,0,0,1.39,0c5.76-.79,10.51,0,11.86,6.91.24,1.23,1.22,2.46,2.82,1.66S422.43,70.49,421.88,69.28ZM412,60.55H400.85c-1.29,0-1.67-.62-1.16-1.77,2.11-4.69,4.23-9.37,6.71-14.85,2.49,5.5,4.63,10.18,6.74,14.88C413.66,60,413.24,60.55,412,60.55Z"/><path class="cls-4" d="M256.55,69.17Q250.34,55.58,244.11,42c-.58-1.27-1.16-2.66-2.84-2.7-1.86,0-2.47,1.48-3.1,2.85q-5,10.91-9.95,21.82c-.91,2-1.86,4-2.69,6-.42,1-.45,2.14.76,2.68s2-.28,2.48-1.26a38,38,0,0,0,2.1-4.76c.7-2.11,2-2.77,4.17-2.69,4.16.16,8.34.13,12.51,0a3.26,3.26,0,0,1,3.67,2.39,42.44,42.44,0,0,0,2.47,5.35,1.74,1.74,0,0,0,2.3,1,1.89,1.89,0,0,0,1.18-2C257,70.24,256.79,69.7,256.55,69.17Zm-9.83-8.61c-3.7,0-7.4,0-11.1,0-1.53,0-1.8-.57-1.19-1.9,2.11-4.61,4.17-9.24,6.67-14.79,2.52,5.58,4.65,10.3,6.79,15C248.47,60.16,248,60.56,246.72,60.56Z"/><path class="cls-2" d="M380.59,49.24c-.44-5.59-4.85-9.32-11.32-9.49-3.24-.08-6.5.13-9.73-.06-3-.18-3.84,1.21-3.75,3.93.12,4.17,0,8.34,0,12.51q0,6.78,0,13.55a5.31,5.31,0,0,0,0,.69c.16,1.21.47,2.45,1.95,2.43s1.9-1.15,1.91-2.43c0-2.08.14-4.17,0-6.25s.54-3.14,2.89-3a34.66,34.66,0,0,0,8.32-.36C377.38,59.53,381.06,55.2,380.59,49.24ZM371.53,57c-3.26,1-6.65.59-10,.62-1.34,0-1.81-.76-1.8-2,0-1.73,0-3.46,0-5.2,0-7.36,0-7.35,7.56-7.27,2.71,0,5.37.31,7.46,2.23C378.56,48.91,376.74,55.42,371.53,57Z"/><path class="cls-5" d="M358.92,44V57h-.32V44Z"/></g></g></svg>