<svg width="176" height="200" viewBox="0 0 176 200" fill="none" xmlns="http://www.w3.org/2000/svg">
<path fill-rule="evenodd" clip-rule="evenodd" d="M122.335 122.633C113.867 121.896 111.585 118.729 109.787 116.233C108.261 114.115 107.083 112.481 102.774 113.219C92.2978 115.016 84.6826 114.964 79.0098 114.926C69.8671 114.864 65.7697 114.837 62.8709 122.633C61.846 125.39 63.9745 128.247 66.7882 130.435C64.6453 132.594 62.6512 135.851 60.8399 138.808C60.4659 139.419 60.0996 140.017 59.7414 140.591C58.4221 142.164 57.3561 143.705 56.5143 145.21C51.8132 149.318 44.6231 154.949 40.9633 155.486C36.7984 156.146 28.4881 159.289 23.2088 166.772C39.2887 186.591 62.3293 199.005 87.9215 199.005C123.342 199.005 153.875 175.225 167.83 140.948C165.713 138.864 163.098 137.207 159.891 136.165C154.748 135.75 144.413 134.196 136.228 130.981C134.645 129.62 132.51 128.506 129.768 127.711C128.188 127.091 126.452 126.613 124.596 126.251C124.145 125.094 123.388 123.881 122.335 122.633Z" fill="#5A8B23"/>
<path d="M104.73 109.196C104.73 130.093 91.4292 119.259 76.5633 123.687C62.871 128.92 65.2182 121.272 58.9589 100.34C58.9589 79.4424 73.3506 73.3701 88.6908 73.3701C104.031 73.3701 104.73 88.2982 104.73 109.196Z" fill="#CDE4A9"/>
<path d="M51.9171 83.0306C51.9171 91.4326 62.8005 102.352 57.3991 102.352C51.9976 102.352 44.4841 94.5699 44.4841 86.1679C44.4841 77.7658 48.8629 70.9546 54.2644 70.9546C59.6658 70.9546 51.9171 74.6285 51.9171 83.0306Z" fill="#CDE4A9"/>
<g filter="url(#filter0_d)">
<path d="M107.078 80.6155C107.078 101.513 103.544 120.869 88.2043 120.869C72.8641 120.869 51.5259 101.513 51.5259 80.6155C51.5259 59.718 63.9616 42.7773 79.3017 42.7773C94.6419 42.7773 107.078 59.718 107.078 80.6155Z" fill="#CDE4A9"/>
</g>
<path d="M50.044 89.6129C50.6442 92.1233 54.865 94.515 53.1573 94.9472C51.4496 95.3795 48.5183 93.6555 47.9181 91.1451C47.318 88.6347 48.2158 86.2492 49.9235 85.817C51.6312 85.3847 49.4438 87.1025 50.044 89.6129Z" fill="#5A8B23"/>
<path fill-rule="evenodd" clip-rule="evenodd" d="M92.4034 32.9843C110.219 37.0259 114.18 56.2965 107.078 72.6789C97.6885 49.2174 81.7652 48.8431 68.2972 53.0495C57.2261 57.6094 53.037 70.4149 50.3317 78.6845C47.3656 87.7514 46.1834 91.3652 39.6701 72.6789C38.9167 67.331 40.2117 60.3457 43.7109 53.8405C43.1973 52.8688 42.9193 51.3702 42.9193 49.2175C42.9193 42.3258 55.8292 25.8706 73.4336 25.8706C80.8595 25.8706 87.6513 29.0083 92.4034 32.9843Z" fill="#5A8B23"/>
<path d="M60.9149 85.848C58.698 82.7619 54.9685 73.5305 57.7852 61.2935L49.961 64.5137L47.6138 74.1745C48.657 74.1745 51.0564 74.4965 52.3083 75.7847C54.3455 77.3948 58.5278 82.3862 58.9588 89.4708L59.7413 96.3138C59.8717 102.083 64.201 114.267 82.0402 120.063C89.0819 122.479 95.1066 120.466 100.427 115.635C102.513 113.757 106.686 108.712 106.686 103.559V99.1316C106.686 97.7898 105.669 94.6232 101.601 92.691C101.601 92.691 98.0617 90.6207 95.7325 91.0809C94.5899 91.3067 94.0388 90.8458 92.994 91.0809C92.1903 91.2618 91.038 91.886 91.038 91.886C88.2995 93.0936 88.2995 93.4961 83.605 94.3012C81.649 94.7037 78.0498 95.1062 77.7369 98.3265C77.7369 100.742 78.1281 103.64 74.9984 105.572V98.3265C74.0856 98.5949 69.9909 96.4749 60.9149 85.848Z" fill="#5A8B23"/>
<path d="M84.8143 98.461C83.6288 99.5536 81.2578 102.613 81.2578 106.109C81.6135 107.566 83.1783 110.625 86.5925 111.208H91.2159L95.8392 108.659L101.174 111.208C102.359 110.237 104.73 107.056 104.73 102.103C104.612 100.646 102.668 97.3684 95.8392 95.9116C93.5868 95.9116 88.2284 96.4215 84.8143 98.461Z" fill="#CDE4A9"/>
<path d="M175 100C175 154.8 135.932 199 88 199C40.0675 199 1 154.8 1 100C1 45.1999 40.0675 1 88 1C135.932 1 175 45.1999 175 100Z" stroke="#5A8B23" stroke-width="2"/>
<defs>
<filter id="filter0_d" x="41.5259" y="37.7773" width="75.5517" height="98.0914" filterUnits="userSpaceOnUse" color-interpolation-filters="sRGB">
<feFlood flood-opacity="0" result="BackgroundImageFix"/>
<feColorMatrix in="SourceAlpha" type="matrix" values="0 0 0 0 0 0 0 0 0 0 0 0 0 0 0 0 0 0 127 0"/>
<feOffset dy="5"/>
<feGaussianBlur stdDeviation="5"/>
<feColorMatrix type="matrix" values="0 0 0 0 0.2 0 0 0 0 0.2 0 0 0 0 0.2 0 0 0 0.3 0"/>
<feBlend mode="normal" in2="BackgroundImageFix" result="effect1_dropShadow"/>
<feBlend mode="normal" in="SourceGraphic" in2="effect1_dropShadow" result="shape"/>
</filter>
</defs>
</svg>
