<svg width="176" height="210" viewBox="0 0 176 210" fill="none" xmlns="http://www.w3.org/2000/svg">
<path d="M111.385 90.3971C111.385 116.615 76.3583 165.134 59.8137 165.134C40.2023 160.276 89.2534 144.208 55.4556 92.6391C55.4556 73.2723 68.6914 50.0986 85.236 50.0986C112.654 50.0986 111.385 71.0302 111.385 90.3971Z" fill="#CDE4A9"/>
<path fill-rule="evenodd" clip-rule="evenodd" d="M30.6405 176.514C35.3413 163.369 42.7457 157.009 47.0841 155.245C56.6733 150.775 64.8822 134.011 67.788 126.188C70.9844 136.321 63.3082 151.769 59.0706 158.226C68.3692 148.987 78.927 147.422 83.0435 147.795L112.828 119.484C123.227 118.469 139.111 127.207 146.504 131.274C147.788 131.98 148.816 132.546 149.514 132.895C153.097 136.11 156.885 144.665 160.521 155.494C144.739 182.328 117.837 200 87.3031 200C65.7189 200 45.9497 191.17 30.6405 176.514Z" fill="#5A8B23"/>
<g filter="url(#filter0_dd)">
<path fill-rule="evenodd" clip-rule="evenodd" d="M27.0768 172.912C32.2998 155.386 36.1583 136.232 38.0232 124.65C42.0908 99.8371 45.0446 66.2302 46.0131 52.5283C50.3712 33.0966 72.2827 25.9965 82.6937 24.8755C97.2207 25.7723 106.663 36.2107 109.569 41.3177C118.575 59.2547 119.374 79.9321 118.648 88.0286C118.648 99.6877 128.817 114.062 133.901 119.792C143.78 133.843 147.218 155.541 147.702 164.634C147.702 165.966 148.021 168.563 148.525 171.833C145.563 175.094 142.399 178.121 139.057 180.886C131.905 163.382 122.43 137.886 121.553 127.266C120.631 123.064 120.57 122.391 120.361 122.341C120.11 122.281 119.643 123.128 117.195 119.792V127.266C117.195 137.131 120.101 147.569 121.553 151.555C127.334 163.734 126.182 181.792 124.707 190.544C113.355 196.61 100.678 200 87.3032 200C86.2013 200 85.1042 199.977 84.0122 199.931C87.5411 182.958 88.2529 150.131 88.1413 134.74C79.4251 144.007 70.2247 165.008 66.714 174.35C64.522 181.117 63.9131 189.794 63.9032 196.426C63.3714 196.26 62.8417 196.088 62.314 195.911C60.1298 181.863 64.0534 170.552 66.714 166.129C74.268 152.975 84.1464 118.048 88.1413 102.229C91.6278 90.8686 89.594 70.5899 88.1413 61.8705C87.2697 51.4073 76.6408 38.0791 71.4353 32.7229C53.4218 34.8156 50.129 50.5353 50.7343 58.1336C48.41 68.5969 49.7659 82.4233 50.7343 88.0286C51.9564 101.61 60.0192 106.124 63.557 108.105C64.2246 108.479 64.731 108.763 65 109C69.0676 120.659 68.8931 130.754 67.8035 134.74C63.0823 145.95 47.7079 158.282 42.7445 160.898C37.8725 164.765 36.3073 172.846 36.3714 181.559C33.1003 178.916 29.9951 176.026 27.0768 172.912Z" fill="#5A8B23"/>
</g>
<g filter="url(#filter1_d)">
<path d="M97.5839 69.7843C97.5839 96.0021 83.985 109.081 67.4404 109.081C50.8958 109.081 45.2867 89.1511 45.2867 69.7843C45.2867 50.4174 54.8907 29.4858 71.4353 29.4858C98.8532 29.4858 97.5839 50.4174 97.5839 69.7843Z" fill="#CDE4A9"/>
</g>
<path fill-rule="evenodd" clip-rule="evenodd" d="M131.144 115.808C125.865 108.972 118.5 97.0087 118.5 87.0335C119.218 78.9369 118.428 58.2596 109.516 40.3226C106.641 35.2155 97.2972 24.7772 82.9226 23.8804C72.6208 25.0014 50.9391 32.1015 46.6267 51.5332C45.7663 63.8357 43.3221 92.1849 39.9185 115.808H66.6353C66.0841 113.686 65.4086 111.438 64.595 109.081C64.3672 108.878 63.9823 108.621 63.4838 108.288C60.3127 106.172 52.5407 100.984 51.2985 87.0335C50.3402 81.4282 48.9985 67.6018 51.2985 57.1385L51.3276 57.0061C53.6219 46.5672 56.4232 33.8218 71.7823 31.7278C76.9332 37.084 87.4506 50.4122 88.3131 60.8754C89.7506 69.5948 91.763 89.8735 88.3131 101.234C87.3384 105.134 86.0098 110.196 84.4489 115.808H131.144Z" fill="#5A8B23"/>
<path d="M175 100C175 154.8 135.932 199 88 199C40.0675 199 1 154.8 1 100C1 45.1999 40.0675 1 88 1C135.932 1 175 45.1999 175 100Z" stroke="#5A8B23" stroke-width="2"/>
<defs>
<filter id="filter0_dd" x="14.0768" y="14.8755" width="147.448" height="195.125" filterUnits="userSpaceOnUse" color-interpolation-filters="sRGB">
<feFlood flood-opacity="0" result="BackgroundImageFix"/>
<feColorMatrix in="SourceAlpha" type="matrix" values="0 0 0 0 0 0 0 0 0 0 0 0 0 0 0 0 0 0 127 0"/>
<feOffset dx="3"/>
<feGaussianBlur stdDeviation="5"/>
<feColorMatrix type="matrix" values="0 0 0 0 0.2 0 0 0 0 0.2 0 0 0 0 0.2 0 0 0 0.15 0"/>
<feBlend mode="normal" in2="BackgroundImageFix" result="effect1_dropShadow"/>
<feColorMatrix in="SourceAlpha" type="matrix" values="0 0 0 0 0 0 0 0 0 0 0 0 0 0 0 0 0 0 127 0"/>
<feOffset dx="-3"/>
<feGaussianBlur stdDeviation="5"/>
<feColorMatrix type="matrix" values="0 0 0 0 0.2 0 0 0 0 0.2 0 0 0 0 0.2 0 0 0 0.15 0"/>
<feBlend mode="normal" in2="effect1_dropShadow" result="effect2_dropShadow"/>
<feBlend mode="normal" in="SourceGraphic" in2="effect2_dropShadow" result="shape"/>
</filter>
<filter id="filter1_d" x="34.2867" y="23.4858" width="72.3063" height="99.5954" filterUnits="userSpaceOnUse" color-interpolation-filters="sRGB">
<feFlood flood-opacity="0" result="BackgroundImageFix"/>
<feColorMatrix in="SourceAlpha" type="matrix" values="0 0 0 0 0 0 0 0 0 0 0 0 0 0 0 0 0 0 127 0"/>
<feOffset dx="-1" dy="4"/>
<feGaussianBlur stdDeviation="5"/>
<feColorMatrix type="matrix" values="0 0 0 0 0.2 0 0 0 0 0.2 0 0 0 0 0.2 0 0 0 0.25 0"/>
<feBlend mode="normal" in2="BackgroundImageFix" result="effect1_dropShadow"/>
<feBlend mode="normal" in="SourceGraphic" in2="effect1_dropShadow" result="shape"/>
</filter>
</defs>
</svg>
