<svg width="32" height="32" viewBox="0 0 32 32" fill="none" xmlns="http://www.w3.org/2000/svg">
<path fill-rule="evenodd" clip-rule="evenodd" d="M2 0C0.895431 0 0 0.895431 0 2V30C0 31.1046 0.895431 32 2 32H30C31.1046 32 32 31.1046 32 30V2C32 0.895431 31.1046 0 30 0H2ZM7.46758 10.1333C9.23489 10.1333 10.6676 8.70064 10.6676 6.93333C10.6676 5.16602 9.23489 3.73333 7.46758 3.73333C5.70027 3.73333 4.26758 5.16602 4.26758 6.93333C4.26758 8.70064 5.70027 10.1333 7.46758 10.1333ZM5.80078 11.7333C5.2485 11.7333 4.80078 12.181 4.80078 12.7333V27.8016C4.80078 28.3539 5.2485 28.8016 5.80078 28.8016H9.13409C9.68638 28.8016 10.1341 28.3539 10.1341 27.8016V12.7333C10.1341 12.181 9.68638 11.7333 9.13409 11.7333H5.80078ZM22.9333 11.2001C21.8856 11.0504 19.5775 11.304 17.6009 13.1705V12.7333C17.6009 12.181 17.1532 11.7333 16.6009 11.7333H13.2676C12.7153 11.7333 12.2676 12.181 12.2676 12.7333V27.8016C12.2676 28.3539 12.7153 28.8016 13.2676 28.8016H16.6009C17.1532 28.8016 17.6009 28.3539 17.6009 27.8016V17.5502C17.8865 17.168 18.2384 16.8188 18.6667 16.5333C19.7333 15.8222 22.9333 15.4666 22.9333 20.2666L22.9336 20.2665V27.8016C22.9336 28.3539 23.3813 28.8016 23.9336 28.8016H27.2669C27.8192 28.8016 28.2669 28.3539 28.2669 27.8016V17.4813C28.2669 17.446 28.265 17.4109 28.2614 17.3762C28.1615 15.2356 26.6417 12.024 22.9333 11.2001Z" fill="#333333"/>
</svg>
