<svg width="49" height="49" viewBox="0 0 49 49" fill="none" xmlns="http://www.w3.org/2000/svg">
<g clip-path="url(#clip0)">
<path d="M1.78003 15.8096L25.1 0.389648" stroke="#6DA72A" stroke-width="0.77" stroke-linecap="round" stroke-linejoin="round"/>
<path d="M0.390015 21.5793L30.95 1.48926" stroke="#6DA72A" stroke-width="0.77" stroke-linecap="round" stroke-linejoin="round"/>
<path d="M1.47998 30.7397L39.74 6.17969" stroke="#6DA72A" stroke-width="0.77" stroke-linecap="round" stroke-linejoin="round"/>
<path d="M0.530029 26.4597L35.62 3.46973" stroke="#6DA72A" stroke-width="0.77" stroke-linecap="round" stroke-linejoin="round"/>
<path d="M2.83997 34.9295L42.25 8.93945" stroke="#6DA72A" stroke-width="0.77" stroke-linecap="round" stroke-linejoin="round"/>
<path d="M6.57007 8.49008L16.7601 1.83008" stroke="#6DA72A" stroke-width="0.77" stroke-linecap="round" stroke-linejoin="round"/>
<path d="M7.82007 41.6393L46.7701 15.9893" stroke="#6DA72A" stroke-width="0.77" stroke-linecap="round" stroke-linejoin="round"/>
<path d="M5.02002 38.4899L44.76 12.3799" stroke="#6DA72A" stroke-width="0.77" stroke-linecap="round" stroke-linejoin="round"/>
<path d="M11.2001 44.5L47.9501 20.29" stroke="#6DA72A" stroke-width="0.77" stroke-linecap="round" stroke-linejoin="round"/>
<path d="M15.5 46.6393L48.39 25.0693" stroke="#6DA72A" stroke-width="0.77" stroke-linecap="round" stroke-linejoin="round"/>
<path d="M20.41 48.3892L47.95 30.1592" stroke="#6DA72A" stroke-width="0.77" stroke-linecap="round" stroke-linejoin="round"/>
<path d="M27.7001 48.5598L45.5801 36.7998" stroke="#6DA72A" stroke-width="0.77" stroke-linecap="round" stroke-linejoin="round"/>
<path d="M9.03003 21.6199L26.18 10.3799" stroke="#555555" stroke-width="0.77" stroke-linecap="round" stroke-linejoin="round"/>
<path d="M11.38 25.2092L28.89 13.9092" stroke="#555555" stroke-width="0.77" stroke-linecap="round" stroke-linejoin="round"/>
<path d="M18.2001 25.6899L23.6001 22.1299" stroke="#555555" stroke-width="0.77" stroke-linecap="round" stroke-linejoin="round"/>
<path d="M20.55 29.1694L25.9401 25.6094" stroke="#555555" stroke-width="0.77" stroke-linecap="round" stroke-linejoin="round"/>
<path d="M22.85 32.5993L28.25 29.0293" stroke="#555555" stroke-width="0.77" stroke-linecap="round" stroke-linejoin="round"/>
<path d="M25.1901 36.1794L30.5801 32.6094" stroke="#555555" stroke-width="0.77" stroke-linecap="round" stroke-linejoin="round"/>
<path d="M27.39 39.6393L32.79 36.0693" stroke="#555555" stroke-width="0.77" stroke-linecap="round" stroke-linejoin="round"/>
<path d="M32.34 41.28L39.96 36.25" stroke="#555555" stroke-width="0.77" stroke-linecap="round" stroke-linejoin="round"/>
<path d="M35.0601 34.57L40.4601 31" stroke="#555555" stroke-width="0.77" stroke-linecap="round" stroke-linejoin="round"/>
<path d="M33.72 30.4995L39.12 26.9395" stroke="#555555" stroke-width="0.77" stroke-linecap="round" stroke-linejoin="round"/>
<path d="M16.8 11.5293L11.4 15.0993" stroke="#555555" stroke-width="0.77" stroke-linecap="round" stroke-linejoin="round"/>
<path d="M9.20007 11.7399L14.6001 8.16992" stroke="#555555" stroke-width="0.77" stroke-linecap="round" stroke-linejoin="round"/>
</g>
<defs>
<clipPath id="clip0">
<rect width="48.77" height="48.94" fill="white"/>
</clipPath>
</defs>
</svg>
