<svg width="367" height="371" viewBox="0 0 367 371" fill="none" xmlns="http://www.w3.org/2000/svg">
<g filter="url(#filter0_f)">
<path d="M178.601 200.797C206.715 181.056 169.888 187.026 159.828 150.908C244.995 144.267 272.644 215.32 250.718 247.946C225.492 285.483 119.218 287.733 134.201 163.563C156.601 186.514 150.486 220.537 178.601 200.797Z" fill="#8AA45F" fill-opacity="0.8"/>
</g>
<g filter="url(#filter1_f)">
<path d="M176.163 184.145C185.055 177.531 177.516 172.655 206.052 183.15C227.223 205.495 225.554 223.884 220.102 230.358C214.651 236.833 195.053 238.309 169.94 214.687C166.789 191.242 167.271 190.759 176.163 184.145Z" fill="#CDE3A8" fill-opacity="0.8"/>
</g>
<circle cx="173.043" cy="157.165" r="66.146" transform="rotate(-109.95 173.043 157.165)" fill="#85B96D"/>
<g filter="url(#filter2_f)">
<path d="M183.843 205.546C232.602 194.365 246.395 149.931 223.521 116.588C262.508 162.414 223.165 208.809 193.472 216.579C159.507 225.466 107.249 202.174 112.645 163.343C121.273 181.021 146.213 214.175 183.843 205.546Z" fill="#719F5C" fill-opacity="0.5"/>
</g>
<g filter="url(#filter3_f)">
<path d="M145.321 201.581C187.723 233.412 225.32 177.346 220.316 195.559C197.628 218.558 175.706 222.791 148.887 212.963C123.391 203.62 105.362 176.507 116.351 150.612C120.775 175.432 119.999 182.571 145.321 201.581Z" fill="#719F5C" fill-opacity="0.3"/>
</g>
<g filter="url(#filter4_f)">
<path d="M159.853 107.225C126.155 120.5 124.636 146.707 117.76 179.182C101.331 147.931 118.729 112.215 146.891 99.1563C173.664 86.7422 207.117 93.7087 220.204 115.652C186.204 100.852 174.023 101.642 159.853 107.225Z" fill="#98B46B" fill-opacity="0.3"/>
</g>
<g filter="url(#filter5_f)">
<path d="M165.295 132.625C145.116 144.016 131.469 158.723 120.379 182.573C108.538 152.046 114.91 115.122 142.299 101.794C168.337 89.1247 213.959 94.6397 221.614 117.546C194.872 118.516 185.473 121.233 165.295 132.625Z" fill="#719F5C" fill-opacity="0.2"/>
</g>
<g filter="url(#filter6_f)">
<path d="M155.873 121.027C137.044 131.862 134.375 143.127 126.804 158.51C117.883 136.991 128.421 113.566 144.859 104.556C170.259 90.6341 203.351 99.9501 209.257 116.043C192.379 112.662 174.702 110.193 155.873 121.027Z" fill="#719F5C" fill-opacity="0.7"/>
</g>
<g filter="url(#filter7_f)">
<path d="M181.318 174.002C205.331 169.535 214.054 162.308 226.39 137.685C233.36 173.544 206.254 195.312 188.344 201.004C170.434 206.696 134.776 200.549 122.706 161.532C152.203 173.755 157.306 178.469 181.318 174.002Z" fill="#DCEEC0" fill-opacity="0.97"/>
</g>
<g filter="url(#filter8_f)">
<path d="M191.323 211.874C215.493 205.662 235.403 180.079 237.623 162.799C236.391 193.237 209.819 214.255 191.295 220.142C176.147 222.709 152.84 227.151 125.112 202.199C155.13 217.011 167.153 218.085 191.323 211.874Z" fill="#C5E1B3"/>
</g>
<g filter="url(#filter9_f)">
<path d="M222.111 141.203C220.347 131.899 217.78 128.982 215.249 123.394C217.47 124.903 222.753 133.55 224.097 141.686C225.575 150.628 225.503 158.766 218.553 170.31C223.336 162.365 223.875 150.508 222.111 141.203Z" fill="#F0F7E6" fill-opacity="0.97"/>
</g>
<g filter="url(#filter10_f)">
<path d="M211.488 179.527C213.512 177.542 215.091 175.652 216.066 173.664C215.588 176.41 213.776 179.469 211.927 181.101C209.895 182.893 209.597 182.687 204.721 185.073C208.522 182.257 209.464 181.511 211.488 179.527Z" fill="#F0F7E6"/>
</g>
<g filter="url(#filter11_f)">
<path d="M202.258 113.557C199.726 112.283 197.427 111.399 195.231 111.119C197.985 110.683 201.465 111.41 203.606 112.633C205.959 113.977 205.86 114.325 209.694 118.169C205.801 115.481 204.791 114.831 202.258 113.557Z" fill="#F0F7E6"/>
</g>
<g filter="url(#filter12_f)">
<path d="M191.297 190.95C193.202 190.507 195.26 190.201 196.537 189.283C195.294 190.944 193.141 192.217 191.465 192.497C189.622 192.805 189.515 192.53 185.759 191.96C189.094 191.189 189.392 191.393 191.297 190.95Z" fill="#F0F7E6"/>
</g>
<g filter="url(#filter13_f)">
<path d="M123.394 138.057C122.563 144.03 123.351 146.282 123.617 150.147C122.745 148.813 121.621 142.576 122.451 137.391C123.364 131.692 124.931 126.772 130.719 121.083C126.736 124.998 124.226 132.085 123.394 138.057Z" fill="#F0F7E6"/>
</g>
<g filter="url(#filter14_f)">
<path d="M149.445 113.395C139.329 119.735 141.8 121.45 132.045 118.348C132.488 116.818 136.488 111.901 140.962 109.152C145.88 106.131 151.192 102.246 159.279 102.931C158.819 112.756 159.56 107.055 149.445 113.395Z" fill="#F0F7E6"/>
</g>
<g filter="url(#filter15_f)">
<path d="M192.66 169.703C199.585 164.884 199.927 159.684 202.75 154.095C203.383 158.42 200.256 169.575 194.022 173.425C187.169 177.656 179.776 184.689 162.888 173.924C174.51 181.332 185.736 174.522 192.66 169.703Z" fill="#F0F7E6" fill-opacity="0.4"/>
</g>
<g filter="url(#filter16_f)">
<path d="M151.523 170.811C157.994 176.251 166.332 179.066 179.026 179.114C175.76 180.35 159.398 182.112 149.016 172.604C143.048 167.137 139.238 160.611 141.682 143.855C140 155.387 145.053 165.371 151.523 170.811Z" fill="#F0F7E6" fill-opacity="0.2"/>
</g>
<g filter="url(#filter17_f)">
<path d="M201.508 143.229C203.093 150.497 202.374 157.552 201.448 162.628C203.66 160.513 205.483 148.195 203.844 141.935C202.043 135.056 198.597 129.48 184.967 124.882C194.347 128.046 199.924 135.961 201.508 143.229Z" fill="#F0F7E6" fill-opacity="0.6"/>
</g>
<defs>
<filter id="filter0_f" x="112.76" y="130.473" width="165.147" height="160.043" filterUnits="userSpaceOnUse" color-interpolation-filters="sRGB">
<feFlood flood-opacity="0" result="BackgroundImageFix"/>
<feBlend mode="normal" in="SourceGraphic" in2="BackgroundImageFix" result="shape"/>
<feGaussianBlur stdDeviation="10" result="effect1_foregroundBlur"/>
</filter>
<filter id="filter1_f" x="148.171" y="157.051" width="95.4636" height="97.4231" filterUnits="userSpaceOnUse" color-interpolation-filters="sRGB">
<feFlood flood-opacity="0" result="BackgroundImageFix"/>
<feBlend mode="normal" in="SourceGraphic" in2="BackgroundImageFix" result="shape"/>
<feGaussianBlur stdDeviation="10" result="effect1_foregroundBlur"/>
</filter>
<filter id="filter2_f" x="101.319" y="109.946" width="160.356" height="133.067" filterUnits="userSpaceOnUse" color-interpolation-filters="sRGB">
<feFlood flood-opacity="0" result="BackgroundImageFix"/>
<feBlend mode="normal" in="SourceGraphic" in2="BackgroundImageFix" result="shape"/>
<feGaussianBlur stdDeviation="2.5" result="effect1_foregroundBlur"/>
</filter>
<filter id="filter3_f" x="97.2531" y="145.513" width="132.248" height="89.8023" filterUnits="userSpaceOnUse" color-interpolation-filters="sRGB">
<feFlood flood-opacity="0" result="BackgroundImageFix"/>
<feBlend mode="normal" in="SourceGraphic" in2="BackgroundImageFix" result="shape"/>
<feGaussianBlur stdDeviation="2.5" result="effect1_foregroundBlur"/>
</filter>
<filter id="filter4_f" x="85.0386" y="65.9648" width="141.237" height="118.217" filterUnits="userSpaceOnUse" color-interpolation-filters="sRGB">
<feFlood flood-opacity="0" result="BackgroundImageFix"/>
<feBlend mode="normal" in="SourceGraphic" in2="BackgroundImageFix" result="shape"/>
<feGaussianBlur stdDeviation="2.5" result="effect1_foregroundBlur"/>
</filter>
<filter id="filter5_f" x="75.5107" y="55.6426" width="163.574" height="141.931" filterUnits="userSpaceOnUse" color-interpolation-filters="sRGB">
<feFlood flood-opacity="0" result="BackgroundImageFix"/>
<feBlend mode="normal" in="SourceGraphic" in2="BackgroundImageFix" result="shape"/>
<feGaussianBlur stdDeviation="7.5" result="effect1_foregroundBlur"/>
</filter>
<filter id="filter6_f" x="87.7943" y="59.0742" width="141.708" height="124.382" filterUnits="userSpaceOnUse" color-interpolation-filters="sRGB">
<feFlood flood-opacity="0" result="BackgroundImageFix"/>
<feBlend mode="normal" in="SourceGraphic" in2="BackgroundImageFix" result="shape"/>
<feGaussianBlur stdDeviation="10" result="effect1_foregroundBlur"/>
</filter>
<filter id="filter7_f" x="92.7042" y="99.416" width="178.473" height="146.914" filterUnits="userSpaceOnUse" color-interpolation-filters="sRGB">
<feFlood flood-opacity="0" result="BackgroundImageFix"/>
<feBlend mode="normal" in="SourceGraphic" in2="BackgroundImageFix" result="shape"/>
<feGaussianBlur stdDeviation="15" result="effect1_foregroundBlur"/>
</filter>
<filter id="filter8_f" x="121.061" y="159.799" width="131.865" height="80.801" filterUnits="userSpaceOnUse" color-interpolation-filters="sRGB">
<feFlood flood-opacity="0" result="BackgroundImageFix"/>
<feBlend mode="normal" in="SourceGraphic" in2="BackgroundImageFix" result="shape"/>
<feGaussianBlur stdDeviation="1.5" result="effect1_foregroundBlur"/>
</filter>
<filter id="filter9_f" x="207.92" y="119.457" width="23.6338" height="53.8533" filterUnits="userSpaceOnUse" color-interpolation-filters="sRGB">
<feFlood flood-opacity="0" result="BackgroundImageFix"/>
<feBlend mode="normal" in="SourceGraphic" in2="BackgroundImageFix" result="shape"/>
<feGaussianBlur stdDeviation="1.5" result="effect1_foregroundBlur"/>
</filter>
<filter id="filter10_f" x="202.026" y="171.664" width="17.9177" height="16.75" filterUnits="userSpaceOnUse" color-interpolation-filters="sRGB">
<feFlood flood-opacity="0" result="BackgroundImageFix"/>
<feBlend mode="normal" in="SourceGraphic" in2="BackgroundImageFix" result="shape"/>
<feGaussianBlur stdDeviation="1" result="effect1_foregroundBlur"/>
</filter>
<filter id="filter11_f" x="193.231" y="106.654" width="19.3497" height="14.4268" filterUnits="userSpaceOnUse" color-interpolation-filters="sRGB">
<feFlood flood-opacity="0" result="BackgroundImageFix"/>
<feBlend mode="normal" in="SourceGraphic" in2="BackgroundImageFix" result="shape"/>
<feGaussianBlur stdDeviation="1" result="effect1_foregroundBlur"/>
</filter>
<filter id="filter12_f" x="183.617" y="187.283" width="15.3048" height="8.12731" filterUnits="userSpaceOnUse" color-interpolation-filters="sRGB">
<feFlood flood-opacity="0" result="BackgroundImageFix"/>
<feBlend mode="normal" in="SourceGraphic" in2="BackgroundImageFix" result="shape"/>
<feGaussianBlur stdDeviation="1" result="effect1_foregroundBlur"/>
</filter>
<filter id="filter13_f" x="117.489" y="117.2" width="16.2301" height="36.3287" filterUnits="userSpaceOnUse" color-interpolation-filters="sRGB">
<feFlood flood-opacity="0" result="BackgroundImageFix"/>
<feBlend mode="normal" in="SourceGraphic" in2="BackgroundImageFix" result="shape"/>
<feGaussianBlur stdDeviation="1.5" result="effect1_foregroundBlur"/>
</filter>
<filter id="filter14_f" x="128.378" y="97.2637" width="35.4657" height="28.2118" filterUnits="userSpaceOnUse" color-interpolation-filters="sRGB">
<feFlood flood-opacity="0" result="BackgroundImageFix"/>
<feBlend mode="normal" in="SourceGraphic" in2="BackgroundImageFix" result="shape"/>
<feGaussianBlur stdDeviation="1" result="effect1_foregroundBlur"/>
</filter>
<filter id="filter15_f" x="159.888" y="151.095" width="45.9423" height="31.5252" filterUnits="userSpaceOnUse" color-interpolation-filters="sRGB">
<feFlood flood-opacity="0" result="BackgroundImageFix"/>
<feBlend mode="normal" in="SourceGraphic" in2="BackgroundImageFix" result="shape"/>
<feGaussianBlur stdDeviation="1.5" result="effect1_foregroundBlur"/>
</filter>
<filter id="filter16_f" x="137.932" y="140.855" width="44.0942" height="42.2492" filterUnits="userSpaceOnUse" color-interpolation-filters="sRGB">
<feFlood flood-opacity="0" result="BackgroundImageFix"/>
<feBlend mode="normal" in="SourceGraphic" in2="BackgroundImageFix" result="shape"/>
<feGaussianBlur stdDeviation="1.5" result="effect1_foregroundBlur"/>
</filter>
<filter id="filter17_f" x="181.967" y="121.882" width="25.5082" height="43.7458" filterUnits="userSpaceOnUse" color-interpolation-filters="sRGB">
<feFlood flood-opacity="0" result="BackgroundImageFix"/>
<feBlend mode="normal" in="SourceGraphic" in2="BackgroundImageFix" result="shape"/>
<feGaussianBlur stdDeviation="1.5" result="effect1_foregroundBlur"/>
</filter>
</defs>
</svg>
