<svg width="218" height="253" viewBox="0 0 218 253" fill="none" xmlns="http://www.w3.org/2000/svg">
<g filter="url(#filter0_f)">
<path d="M116.461 125.679C111.328 124.733 87.8723 127.266 95.5178 116.529C42.915 148.512 45.725 198.931 79.2073 210.712C117.674 224.247 169.975 175.374 129.671 114.697C121.793 141.279 121.594 126.625 116.461 125.679Z" fill="#AFB7A8"/>
</g>
<g filter="url(#filter1_f)">
<path d="M106.216 145.807C99.3716 144.737 103.123 139.002 87.3667 155.665C78.5281 177.251 83.1705 188.314 87.8404 190.503C92.5102 192.692 105.031 186.749 116.08 162.971C113.457 147.013 113.061 146.876 106.216 145.807Z" fill="#DCEEC0" fill-opacity="0.75"/>
</g>
<ellipse rx="49.197" ry="49.197" transform="matrix(0.993328 -0.115331 -0.115332 -0.993326 110.636 107.41)" fill="#C4DE9B"/>
<ellipse rx="49.197" ry="49.197" transform="matrix(0.217953 -0.975958 -0.975961 -0.217953 110.81 107.052)" fill="#C4DE9B"/>
<g filter="url(#filter2_f)">
<path d="M107.453 143.768C70.4218 140.167 56.0132 108.705 69.7086 81.9303C45.3172 119.449 78.7591 149.922 101.402 152.824C127.303 156.143 163.631 133.982 155.95 105.854C151.271 119.715 136.033 146.548 107.453 143.768Z" fill="#98B46B" fill-opacity="0.5"/>
</g>
<g filter="url(#filter3_f)">
<path d="M135.487 137.174C107.244 164.694 74.1684 126.921 79.5948 139.879C97.3667 163.426 117.592 158.453 136.438 148.648C154.354 139.327 162.573 114.871 152 96.8176C151.101 115.547 152.354 120.739 135.487 137.174Z" fill="#98B46B" fill-opacity="0.3"/>
</g>
<g filter="url(#filter4_f)">
<path d="M115.779 68.957C141.901 75.5382 145.519 94.7251 153.685 118.024C162.826 93.4074 146.589 68.7194 124.572 61.7705C103.641 55.1645 79.6277 63.491 72.0657 80.9243C95.7349 66.7675 104.795 66.1896 115.779 68.957Z" fill="#98B46B" fill-opacity="0.3"/>
</g>
<g filter="url(#filter5_f)">
<path d="M114.186 88.2112C130.156 94.691 141.624 104.239 152.077 120.775C157.902 97.1287 149.684 70.4994 128.211 63.2786C107.797 56.4141 74.6703 64.8293 71.2061 82.4549C91.0248 80.6223 98.2166 81.7314 114.186 88.2112Z" fill="#98B46B" fill-opacity="0.2"/>
</g>
<g filter="url(#filter6_f)">
<path d="M120.031 78.7591C134.953 84.9568 137.995 93.0125 145.045 103.638C149.575 86.9147 139.57 70.6394 126.586 65.5598C106.524 57.7111 83.0015 67.7361 80.1783 80.1695C92.306 76.0676 105.11 72.5614 120.031 78.7591Z" fill="#98B46B" fill-opacity="0.7"/>
</g>
<g filter="url(#filter7_f)">
<path d="M106.31 120.261C88.1716 119.254 81.0485 114.754 69.6027 97.7668C67.878 124.882 89.9469 138.356 103.7 140.848C117.453 143.34 143.17 135.408 148.356 105.478C127.762 117.304 124.448 121.267 106.31 120.261Z" fill="#DCEEC0" fill-opacity="0.97"/>
</g>
<g filter="url(#filter8_f)">
<path d="M102.669 148.725C84.2483 146.447 67.1243 129.473 63.8398 116.938C67.649 139.273 89.2522 152.244 103.478 154.822C114.896 155.272 132.511 156.327 150.586 135.28C129.856 149.066 121.089 151.004 102.669 148.725Z" fill="#DCEEC0" fill-opacity="0.9"/>
</g>
<g filter="url(#filter9_f)">
<path d="M73.0935 99.9539C73.5081 92.9224 75.1237 90.5261 76.458 86.1633C74.9638 87.4881 71.8905 94.3699 71.6742 100.499C71.4365 107.236 72.2647 113.232 78.4916 121.085C74.2063 115.68 72.6788 106.985 73.0935 99.9539Z" fill="#F0F7E6" fill-opacity="0.97"/>
</g>
<g filter="url(#filter10_f)">
<path d="M84.5787 127.21C82.8967 125.939 81.5521 124.696 80.6432 123.322C81.2573 125.303 82.8859 127.386 84.4051 128.413C86.0749 129.542 86.2747 129.362 90.0991 130.657C87.0266 128.942 86.2608 128.482 84.5787 127.21Z" fill="#F0F7E6"/>
</g>
<g filter="url(#filter11_f)">
<path d="M85.1031 77.6691C86.8496 76.488 88.461 75.6173 90.0543 75.201C87.9818 75.1423 85.4836 76.0102 84.0208 77.1161C82.4131 78.3316 82.5193 78.579 80.0577 81.7796C82.6734 79.4261 83.3566 78.8502 85.1031 77.6691Z" fill="#F0F7E6"/>
</g>
<g filter="url(#filter12_f)">
<path d="M100.561 133.712C99.1133 133.567 97.5661 133.538 96.5365 132.982C97.6117 134.089 99.3207 134.822 100.584 134.869C101.973 134.921 102.026 134.708 104.742 133.93C102.209 133.679 102.008 133.857 100.561 133.712Z" fill="#F0F7E6"/>
</g>
<g filter="url(#filter13_f)">
<path d="M145.609 88.2282C146.791 92.5548 146.425 94.2911 146.597 97.1668C147.113 96.1002 147.348 91.3921 146.241 87.6465C145.025 83.5297 143.4 80.0501 138.588 76.4055C141.9 78.9137 144.427 83.9016 145.609 88.2282Z" fill="#F0F7E6"/>
</g>
<g filter="url(#filter14_f)">
<path d="M124.044 72.518C132.11 76.2307 130.45 77.7313 137.351 74.5132C136.878 73.4267 133.459 70.181 129.897 68.5798C125.982 66.8201 121.693 64.4605 115.793 65.7361C117.069 72.9399 115.978 68.8053 124.044 72.518Z" fill="#F0F7E6" fill-opacity="0.9"/>
</g>
<g filter="url(#filter15_f)">
<path d="M97.5333 118.17C91.9666 115.276 91.2185 111.472 88.6039 107.618C88.549 110.869 91.9182 118.799 96.8839 121.045C102.342 123.513 108.465 127.997 119.897 118.447C112.03 125.019 103.1 121.065 97.5333 118.17Z" fill="#F0F7E6" fill-opacity="0.4"/>
</g>
<g filter="url(#filter16_f)">
<path d="M127.981 115.068C123.726 119.697 117.844 122.568 108.485 123.813C111.012 124.413 123.249 124.154 130.001 116.151C133.883 111.55 136.071 106.373 132.672 94.2463C135.011 102.592 132.236 110.438 127.981 115.068Z" fill="#F0F7E6" fill-opacity="0.2"/>
</g>
<g filter="url(#filter17_f)">
<path d="M88.4848 99.4844C88.0084 104.997 89.2111 110.132 90.3777 113.788C88.5448 112.439 86.026 103.526 86.6384 98.753C87.3115 93.5069 89.3223 89.0655 98.938 84.375C92.3205 87.603 88.9612 93.9722 88.4848 99.4844Z" fill="#F0F7E6" fill-opacity="0.6"/>
</g>
<defs>
<filter id="filter0_f" x="24.8806" y="84.6973" width="149.323" height="158.286" filterUnits="userSpaceOnUse" color-interpolation-filters="sRGB">
<feFlood flood-opacity="0" result="BackgroundImageFix"/>
<feBlend mode="normal" in="SourceGraphic" in2="BackgroundImageFix" result="shape"/>
<feGaussianBlur stdDeviation="15" result="effect1_foregroundBlur"/>
</filter>
<filter id="filter1_f" x="62.3662" y="123.99" width="73.7141" height="86.9335" filterUnits="userSpaceOnUse" color-interpolation-filters="sRGB">
<feFlood flood-opacity="0" result="BackgroundImageFix"/>
<feBlend mode="normal" in="SourceGraphic" in2="BackgroundImageFix" result="shape"/>
<feGaussianBlur stdDeviation="10" result="effect1_foregroundBlur"/>
</filter>
<filter id="filter2_f" x="47.6133" y="76.1504" width="117.602" height="91.908" filterUnits="userSpaceOnUse" color-interpolation-filters="sRGB">
<feFlood flood-opacity="0" result="BackgroundImageFix"/>
<feBlend mode="normal" in="SourceGraphic" in2="BackgroundImageFix" result="shape"/>
<feGaussianBlur stdDeviation="2.5" result="effect1_foregroundBlur"/>
</filter>
<filter id="filter3_f" x="74.0051" y="91.8174" width="87.6831" height="69.9938" filterUnits="userSpaceOnUse" color-interpolation-filters="sRGB">
<feFlood flood-opacity="0" result="BackgroundImageFix"/>
<feBlend mode="normal" in="SourceGraphic" in2="BackgroundImageFix" result="shape"/>
<feGaussianBlur stdDeviation="2.5" result="effect1_foregroundBlur"/>
</filter>
<filter id="filter4_f" x="67.0657" y="54.5107" width="94.2174" height="68.5133" filterUnits="userSpaceOnUse" color-interpolation-filters="sRGB">
<feFlood flood-opacity="0" result="BackgroundImageFix"/>
<feBlend mode="normal" in="SourceGraphic" in2="BackgroundImageFix" result="shape"/>
<feGaussianBlur stdDeviation="2.5" result="effect1_foregroundBlur"/>
</filter>
<filter id="filter5_f" x="61.2061" y="50.8916" width="102.69" height="79.8833" filterUnits="userSpaceOnUse" color-interpolation-filters="sRGB">
<feFlood flood-opacity="0" result="BackgroundImageFix"/>
<feBlend mode="normal" in="SourceGraphic" in2="BackgroundImageFix" result="shape"/>
<feGaussianBlur stdDeviation="5" result="effect1_foregroundBlur"/>
</filter>
<filter id="filter6_f" x="70.1782" y="52.7822" width="85.9741" height="60.8559" filterUnits="userSpaceOnUse" color-interpolation-filters="sRGB">
<feFlood flood-opacity="0" result="BackgroundImageFix"/>
<feBlend mode="normal" in="SourceGraphic" in2="BackgroundImageFix" result="shape"/>
<feGaussianBlur stdDeviation="5" result="effect1_foregroundBlur"/>
</filter>
<filter id="filter7_f" x="33.1289" y="61.417" width="145.228" height="116.141" filterUnits="userSpaceOnUse" color-interpolation-filters="sRGB">
<feFlood flood-opacity="0" result="BackgroundImageFix"/>
<feBlend mode="normal" in="SourceGraphic" in2="BackgroundImageFix" result="shape"/>
<feGaussianBlur stdDeviation="15" result="effect1_foregroundBlur"/>
</filter>
<filter id="filter8_f" x="55.4539" y="113.938" width="98.5929" height="51.5269" filterUnits="userSpaceOnUse" color-interpolation-filters="sRGB">
<feFlood flood-opacity="0" result="BackgroundImageFix"/>
<feBlend mode="normal" in="SourceGraphic" in2="BackgroundImageFix" result="shape"/>
<feGaussianBlur stdDeviation="1.5" result="effect1_foregroundBlur"/>
</filter>
<filter id="filter9_f" x="69.9573" y="85.0127" width="10.7624" height="37.0726" filterUnits="userSpaceOnUse" color-interpolation-filters="sRGB">
<feFlood flood-opacity="0" result="BackgroundImageFix"/>
<feBlend mode="normal" in="SourceGraphic" in2="BackgroundImageFix" result="shape"/>
<feGaussianBlur stdDeviation="0.5" result="effect1_foregroundBlur"/>
</filter>
<filter id="filter10_f" x="78.6433" y="121.322" width="13.4558" height="11.3347" filterUnits="userSpaceOnUse" color-interpolation-filters="sRGB">
<feFlood flood-opacity="0" result="BackgroundImageFix"/>
<feBlend mode="normal" in="SourceGraphic" in2="BackgroundImageFix" result="shape"/>
<feGaussianBlur stdDeviation="1" result="effect1_foregroundBlur"/>
</filter>
<filter id="filter11_f" x="79.0576" y="74.1982" width="11.9966" height="8.58144" filterUnits="userSpaceOnUse" color-interpolation-filters="sRGB">
<feFlood flood-opacity="0" result="BackgroundImageFix"/>
<feBlend mode="normal" in="SourceGraphic" in2="BackgroundImageFix" result="shape"/>
<feGaussianBlur stdDeviation="0.5" result="effect1_foregroundBlur"/>
</filter>
<filter id="filter12_f" x="94.4719" y="130.981" width="12.2934" height="6.04057" filterUnits="userSpaceOnUse" color-interpolation-filters="sRGB">
<feFlood flood-opacity="0" result="BackgroundImageFix"/>
<feBlend mode="normal" in="SourceGraphic" in2="BackgroundImageFix" result="shape"/>
<feGaussianBlur stdDeviation="1" result="effect1_foregroundBlur"/>
</filter>
<filter id="filter13_f" x="136.588" y="74.4053" width="12.4398" height="24.7613" filterUnits="userSpaceOnUse" color-interpolation-filters="sRGB">
<feFlood flood-opacity="0" result="BackgroundImageFix"/>
<feBlend mode="normal" in="SourceGraphic" in2="BackgroundImageFix" result="shape"/>
<feGaussianBlur stdDeviation="1" result="effect1_foregroundBlur"/>
</filter>
<filter id="filter14_f" x="114.793" y="64.373" width="23.5581" height="12.9022" filterUnits="userSpaceOnUse" color-interpolation-filters="sRGB">
<feFlood flood-opacity="0" result="BackgroundImageFix"/>
<feBlend mode="normal" in="SourceGraphic" in2="BackgroundImageFix" result="shape"/>
<feGaussianBlur stdDeviation="0.5" result="effect1_foregroundBlur"/>
</filter>
<filter id="filter15_f" x="87.6033" y="106.618" width="33.2937" height="18.6613" filterUnits="userSpaceOnUse" color-interpolation-filters="sRGB">
<feFlood flood-opacity="0" result="BackgroundImageFix"/>
<feBlend mode="normal" in="SourceGraphic" in2="BackgroundImageFix" result="shape"/>
<feGaussianBlur stdDeviation="0.5" result="effect1_foregroundBlur"/>
</filter>
<filter id="filter16_f" x="107.485" y="93.2461" width="27.8694" height="31.7687" filterUnits="userSpaceOnUse" color-interpolation-filters="sRGB">
<feFlood flood-opacity="0" result="BackgroundImageFix"/>
<feBlend mode="normal" in="SourceGraphic" in2="BackgroundImageFix" result="shape"/>
<feGaussianBlur stdDeviation="0.5" result="effect1_foregroundBlur"/>
</filter>
<filter id="filter17_f" x="84.5447" y="82.375" width="16.3934" height="33.413" filterUnits="userSpaceOnUse" color-interpolation-filters="sRGB">
<feFlood flood-opacity="0" result="BackgroundImageFix"/>
<feBlend mode="normal" in="SourceGraphic" in2="BackgroundImageFix" result="shape"/>
<feGaussianBlur stdDeviation="1" result="effect1_foregroundBlur"/>
</filter>
</defs>
</svg>
