<svg width="136" height="152" viewBox="0 0 136 152" fill="none" xmlns="http://www.w3.org/2000/svg">
<g filter="url(#filter0_f)">
<path d="M66.3267 88.7287C46.9645 92.6613 61.816 74.5901 54.8657 54.7523C5.11232 89.6013 30.6713 128.466 52.3244 128.927C76.1864 129.434 105.124 99.6026 87.7322 62.7413C71.4933 77.0035 85.6888 84.7961 66.3267 88.7287Z" fill="#AFB7A8" fill-opacity="0.8"/>
</g>
<g filter="url(#filter1_f)">
<path d="M69.0097 59.9045C75.194 64.1917 76.5864 57.0668 76.3556 81.3842C66.9689 104.271 54.9543 109.174 49.6313 107.351C44.3084 105.529 38.9707 91.7183 48.2796 65.5293C62.4114 55.4258 62.8253 55.6173 69.0097 59.9045Z" fill="#AAD5D9"/>
</g>
<ellipse rx="32.4909" ry="32.562" transform="matrix(0.323971 -0.941636 0.952138 0.318999 75.4642 59.4538)" fill="#55A9C0"/>
<g filter="url(#filter2_f)">
<path d="M64.6628 81.1946C86.9587 91.8244 106.039 79.0994 107.523 59.4026C108.4 88.7792 78.8426 94.4484 64.9677 88.3411C49.0965 81.3551 36.1188 56.5153 50.2217 43.3614C48.083 52.7351 47.4559 72.9909 64.6628 81.1946Z" fill="#4B98A3"/>
</g>
<g filter="url(#filter3_f)">
<path d="M51.0099 67.9184C57.5371 93.0029 89.4134 83.1136 81.8433 88.5283C65.9608 90.3659 56.1824 85.2838 48.8643 73.3462C41.9074 61.9977 43.3343 46.1559 55.5939 39.6412C49.6212 50.4538 47.112 52.938 51.0099 67.9184Z" fill="#4B98A3" fill-opacity="0.3"/>
</g>
<g filter="url(#filter4_f)">
<path d="M85.8263 36.3885C68.7004 31.1568 60.0022 40.6832 47.2949 50.9624C50.6205 34.0317 68.3961 25.7306 83.3165 29.3541C97.5006 32.7988 108.267 45.672 106.531 58.0337C97.9776 42.0076 93.0279 38.5885 85.8263 36.3885Z" fill="#4B98A3" fill-opacity="0.3"/>
</g>
<g filter="url(#filter5_f)">
<path d="M80.0671 47.7314C68.7468 45.9108 58.9227 47.3488 47.2572 53.0534C52.1316 37.7999 66.0211 25.6706 80.7264 28.9556C94.7059 32.0786 110.622 48.1148 106.49 59.1846C95.8593 51.3866 91.3874 49.552 80.0671 47.7314Z" fill="#4B98A3" fill-opacity="0.2"/>
</g>
<g filter="url(#filter6_f)">
<path d="M80.0166 40.4338C69.3898 38.8131 64.8718 42.2922 57.1863 45.844C60.4005 34.9162 71.7214 29.2049 80.86 30.7911C94.9806 33.2419 104.88 46.9002 102.181 54.8387C96.7076 48.395 90.6433 42.0545 80.0166 40.4338Z" fill="#4B98A3" fill-opacity="0.7"/>
</g>
<g filter="url(#filter7_f)">
<path d="M73.45 68.401C84.1083 74.0323 89.7148 73.9416 102.101 68.323C93.695 84.1215 76.4868 84.1402 67.8068 80.8399C59.1268 77.5395 47.2549 64.3055 54.6682 45.7461C62.2797 59.4143 62.7918 62.7696 73.45 68.401Z" fill="#DCEEC0" fill-opacity="0.97"/>
</g>
<g filter="url(#filter8_f)">
<path d="M65.3807 85.7949C76.6227 90.8531 92.4567 86.6061 98.8565 80.2012C88.6089 92.3265 71.6923 92.5988 62.7142 89.1851C56.0945 85.4699 45.7512 79.9559 43.1572 60.9659C49.8839 76.5086 54.1387 80.7366 65.3807 85.7949Z" fill="#B8DEE2"/>
</g>
<g filter="url(#filter9_f)">
<path d="M99.3593 68.3557C101.558 64.27 101.469 62.374 102.221 59.4711C102.611 60.7245 101.976 65.6345 99.9773 69.1463C97.7804 73.0061 95.2341 76.0864 88.976 78.3644C93.2828 76.7967 97.1609 72.4413 99.3593 68.3557Z" fill="#F0F7E6" fill-opacity="0.97"/>
</g>
<g filter="url(#filter10_f)">
<path d="M83.3959 79.7197C84.792 79.5813 85.9868 79.343 86.9788 78.8832C85.9442 79.7842 84.2972 80.3967 83.0782 80.4537C81.7383 80.5165 81.6872 80.347 79.065 79.7672C81.4051 79.8548 81.9997 79.8581 83.3959 79.7197Z" fill="#F0F7E6"/>
</g>
<g filter="url(#filter11_f)">
<path d="M100.247 51.7538C99.6632 50.4947 99.0487 49.4559 98.2872 48.6781C99.4855 49.3531 100.605 50.6934 101.054 51.8134C101.547 53.0443 101.401 53.1468 101.692 55.783C101.02 53.5693 100.831 53.0129 100.247 51.7538Z" fill="#F0F7E6"/>
</g>
<g filter="url(#filter12_f)">
<path d="M72.0598 77.9078C72.9329 78.3208 73.8224 78.8328 74.6 78.8729C73.6057 79.1265 72.3804 78.9541 71.6458 78.5488C70.8385 78.1034 70.8824 77.9659 69.6081 76.6017C71.1348 77.3261 71.1868 77.4949 72.0598 77.9078Z" fill="#F0F7E6"/>
</g>
<g filter="url(#filter13_f)">
<path d="M62.2 37.0075C60.0302 39.0305 59.6374 40.1295 58.5444 41.6839C58.6202 40.9093 60.1166 38.1883 62.0421 36.4653C64.1584 34.5715 66.2865 33.1749 70.2832 32.7742C67.5327 33.0499 64.3698 34.9846 62.2 37.0075Z" fill="#F0F7E6"/>
</g>
<g filter="url(#filter14_f)">
<path d="M79.8963 35.5625C74.0265 34.8898 74.4503 36.2983 71.6421 32.1361C72.2869 31.6882 75.3537 31.0354 77.9328 31.3543C80.7675 31.7047 84.0222 31.8463 86.9342 34.5772C83.7152 38.182 85.7662 36.2353 79.8963 35.5625Z" fill="#F0F7E6" fill-opacity="0.9"/>
</g>
<g filter="url(#filter15_f)">
<path d="M79.1624 70.2251C83.3286 70.5031 85.0704 68.6252 87.8907 67.3567C86.7964 69.199 82.1362 72.4962 78.5363 72.0595C74.5798 71.5796 69.547 72.0027 66.355 62.7408C68.5517 69.1148 74.9962 69.9471 79.1624 70.2251Z" fill="#F0F7E6" fill-opacity="0.4"/>
</g>
<g filter="url(#filter16_f)">
<path d="M62.9285 58.0821C63.7443 62.1323 66.0938 65.7518 70.9826 69.6472C69.3386 69.1207 62.4726 64.7953 61.4053 57.9997C60.7917 54.0928 61.3399 50.4418 67.4698 44.8008C63.2512 48.6829 62.1127 54.032 62.9285 58.0821Z" fill="#F0F7E6" fill-opacity="0.2"/>
</g>
<g filter="url(#filter17_f)">
<path d="M90.7736 62.8345C89.1363 66.0891 86.6751 68.5586 84.7463 70.2109C86.255 70.0804 90.7722 65.9414 92.0764 63.0549C93.5098 59.8824 93.9043 56.7043 90.0623 50.7886C92.7064 54.8598 92.411 59.5798 90.7736 62.8345Z" fill="#F0F7E6" fill-opacity="0.6"/>
</g>
<defs>
<filter id="filter0_f" x="14.1587" y="42.752" width="90.878" height="98.181" filterUnits="userSpaceOnUse" color-interpolation-filters="sRGB">
<feFlood flood-opacity="0" result="BackgroundImageFix"/>
<feBlend mode="normal" in="SourceGraphic" in2="BackgroundImageFix" result="shape"/>
<feGaussianBlur stdDeviation="6" result="effect1_foregroundBlur"/>
</filter>
<filter id="filter1_f" x="23.2007" y="37.1221" width="73.1786" height="90.5752" filterUnits="userSpaceOnUse" color-interpolation-filters="sRGB">
<feFlood flood-opacity="0" result="BackgroundImageFix"/>
<feBlend mode="normal" in="SourceGraphic" in2="BackgroundImageFix" result="shape"/>
<feGaussianBlur stdDeviation="10" result="effect1_foregroundBlur"/>
</filter>
<filter id="filter2_f" x="39.1877" y="38.3613" width="73.3548" height="57.1798" filterUnits="userSpaceOnUse" color-interpolation-filters="sRGB">
<feFlood flood-opacity="0" result="BackgroundImageFix"/>
<feBlend mode="normal" in="SourceGraphic" in2="BackgroundImageFix" result="shape"/>
<feGaussianBlur stdDeviation="2.5" result="effect1_foregroundBlur"/>
</filter>
<filter id="filter3_f" x="39.6953" y="34.6416" width="48.3028" height="59.2532" filterUnits="userSpaceOnUse" color-interpolation-filters="sRGB">
<feFlood flood-opacity="0" result="BackgroundImageFix"/>
<feBlend mode="normal" in="SourceGraphic" in2="BackgroundImageFix" result="shape"/>
<feGaussianBlur stdDeviation="2.5" result="effect1_foregroundBlur"/>
</filter>
<filter id="filter4_f" x="42.2949" y="23.5166" width="69.42" height="39.5174" filterUnits="userSpaceOnUse" color-interpolation-filters="sRGB">
<feFlood flood-opacity="0" result="BackgroundImageFix"/>
<feBlend mode="normal" in="SourceGraphic" in2="BackgroundImageFix" result="shape"/>
<feGaussianBlur stdDeviation="2.5" result="effect1_foregroundBlur"/>
</filter>
<filter id="filter5_f" x="37.2571" y="18.415" width="79.8979" height="50.7699" filterUnits="userSpaceOnUse" color-interpolation-filters="sRGB">
<feFlood flood-opacity="0" result="BackgroundImageFix"/>
<feBlend mode="normal" in="SourceGraphic" in2="BackgroundImageFix" result="shape"/>
<feGaussianBlur stdDeviation="5" result="effect1_foregroundBlur"/>
</filter>
<filter id="filter6_f" x="52.1863" y="25.5293" width="55.4394" height="34.3089" filterUnits="userSpaceOnUse" color-interpolation-filters="sRGB">
<feFlood flood-opacity="0" result="BackgroundImageFix"/>
<feBlend mode="normal" in="SourceGraphic" in2="BackgroundImageFix" result="shape"/>
<feGaussianBlur stdDeviation="2.5" result="effect1_foregroundBlur"/>
</filter>
<filter id="filter7_f" x="22.3362" y="15.7461" width="109.765" height="96.8352" filterUnits="userSpaceOnUse" color-interpolation-filters="sRGB">
<feFlood flood-opacity="0" result="BackgroundImageFix"/>
<feBlend mode="normal" in="SourceGraphic" in2="BackgroundImageFix" result="shape"/>
<feGaussianBlur stdDeviation="15" result="effect1_foregroundBlur"/>
</filter>
<filter id="filter8_f" x="40.1572" y="57.9658" width="61.6993" height="36.102" filterUnits="userSpaceOnUse" color-interpolation-filters="sRGB">
<feFlood flood-opacity="0" result="BackgroundImageFix"/>
<feBlend mode="normal" in="SourceGraphic" in2="BackgroundImageFix" result="shape"/>
<feGaussianBlur stdDeviation="1.5" result="effect1_foregroundBlur"/>
</filter>
<filter id="filter9_f" x="87.9761" y="58.4707" width="15.3541" height="20.8934" filterUnits="userSpaceOnUse" color-interpolation-filters="sRGB">
<feFlood flood-opacity="0" result="BackgroundImageFix"/>
<feBlend mode="normal" in="SourceGraphic" in2="BackgroundImageFix" result="shape"/>
<feGaussianBlur stdDeviation="0.5" result="effect1_foregroundBlur"/>
</filter>
<filter id="filter10_f" x="78.0649" y="77.8828" width="9.91378" height="3.58286" filterUnits="userSpaceOnUse" color-interpolation-filters="sRGB">
<feFlood flood-opacity="0" result="BackgroundImageFix"/>
<feBlend mode="normal" in="SourceGraphic" in2="BackgroundImageFix" result="shape"/>
<feGaussianBlur stdDeviation="0.5" result="effect1_foregroundBlur"/>
</filter>
<filter id="filter11_f" x="97.2871" y="47.6777" width="5.40483" height="9.10486" filterUnits="userSpaceOnUse" color-interpolation-filters="sRGB">
<feFlood flood-opacity="0" result="BackgroundImageFix"/>
<feBlend mode="normal" in="SourceGraphic" in2="BackgroundImageFix" result="shape"/>
<feGaussianBlur stdDeviation="0.5" result="effect1_foregroundBlur"/>
</filter>
<filter id="filter12_f" x="68.6082" y="75.6016" width="6.99192" height="4.39012" filterUnits="userSpaceOnUse" color-interpolation-filters="sRGB">
<feFlood flood-opacity="0" result="BackgroundImageFix"/>
<feBlend mode="normal" in="SourceGraphic" in2="BackgroundImageFix" result="shape"/>
<feGaussianBlur stdDeviation="0.5" result="effect1_foregroundBlur"/>
</filter>
<filter id="filter13_f" x="56.5444" y="30.7744" width="15.7388" height="12.9097" filterUnits="userSpaceOnUse" color-interpolation-filters="sRGB">
<feFlood flood-opacity="0" result="BackgroundImageFix"/>
<feBlend mode="normal" in="SourceGraphic" in2="BackgroundImageFix" result="shape"/>
<feGaussianBlur stdDeviation="1" result="effect1_foregroundBlur"/>
</filter>
<filter id="filter14_f" x="70.6421" y="30.2695" width="17.2921" height="7.42352" filterUnits="userSpaceOnUse" color-interpolation-filters="sRGB">
<feFlood flood-opacity="0" result="BackgroundImageFix"/>
<feBlend mode="normal" in="SourceGraphic" in2="BackgroundImageFix" result="shape"/>
<feGaussianBlur stdDeviation="0.5" result="effect1_foregroundBlur"/>
</filter>
<filter id="filter15_f" x="64.355" y="60.7412" width="25.5356" height="13.3582" filterUnits="userSpaceOnUse" color-interpolation-filters="sRGB">
<feFlood flood-opacity="0" result="BackgroundImageFix"/>
<feBlend mode="normal" in="SourceGraphic" in2="BackgroundImageFix" result="shape"/>
<feGaussianBlur stdDeviation="1" result="effect1_foregroundBlur"/>
</filter>
<filter id="filter16_f" x="60.2117" y="43.8008" width="11.771" height="26.8464" filterUnits="userSpaceOnUse" color-interpolation-filters="sRGB">
<feFlood flood-opacity="0" result="BackgroundImageFix"/>
<feBlend mode="normal" in="SourceGraphic" in2="BackgroundImageFix" result="shape"/>
<feGaussianBlur stdDeviation="0.5" result="effect1_foregroundBlur"/>
</filter>
<filter id="filter17_f" x="83.7463" y="49.7881" width="10.3495" height="21.4223" filterUnits="userSpaceOnUse" color-interpolation-filters="sRGB">
<feFlood flood-opacity="0" result="BackgroundImageFix"/>
<feBlend mode="normal" in="SourceGraphic" in2="BackgroundImageFix" result="shape"/>
<feGaussianBlur stdDeviation="0.5" result="effect1_foregroundBlur"/>
</filter>
</defs>
</svg>
