<svg width="191" height="194" viewBox="0 0 191 194" fill="none" xmlns="http://www.w3.org/2000/svg">
<g filter="url(#filter0_f)">
<path d="M98.2573 104.927C83.2501 95.0104 102.614 97.5906 107.345 78.5378C62.6697 76.3207 49.2495 113.919 61.2079 130.671C74.9667 149.945 130.625 149.552 120.946 84.7825C109.561 97.1262 113.265 114.844 98.2573 104.927Z" fill="#8AA45F" fill-opacity="0.8"/>
</g>
<g filter="url(#filter1_f)">
<path d="M99.2854 96.1755C94.5335 92.8452 98.4075 90.1816 83.6266 96.0962C72.8762 108.105 74.0221 117.705 76.971 121.013C79.9199 124.321 90.1996 124.804 102.995 112.069C104.297 99.7514 104.037 99.5059 99.2854 96.1755Z" fill="#CDE3A8" fill-opacity="0.8"/>
</g>
<ellipse rx="34.6348" ry="34.635" transform="matrix(0.314504 -0.949251 -0.949256 -0.31452 100.338 82.0683)" fill="#85B96D"/>
<g filter="url(#filter2_f)">
<path d="M95.4003 107.551C69.7143 102.42 61.8374 79.3669 73.3166 61.5767C53.5884 86.1388 74.8672 109.84 90.5237 113.468C108.433 117.618 135.44 104.654 132.041 84.4098C127.787 93.7899 115.224 111.512 95.4003 107.551Z" fill="#719F5C" fill-opacity="0.5"/>
</g>
<g filter="url(#filter3_f)">
<path d="M115.507 104.908C93.785 122.195 73.2773 93.4056 76.1656 102.865C88.3808 114.567 99.9176 116.458 113.809 110.918C127.016 105.651 136.051 91.1935 129.917 77.8025C127.968 90.8586 128.48 94.5836 115.507 104.908Z" fill="#719F5C" fill-opacity="0.3"/>
</g>
<g filter="url(#filter4_f)">
<path d="M106.504 55.7352C124.338 62.1853 125.521 75.8801 129.6 92.7759C137.737 76.1763 128.102 57.7392 113.169 51.3206C98.9729 45.2188 81.5661 49.3596 75.0412 61.0384C92.618 52.7894 99.0049 53.0229 106.504 55.7352Z" fill="#98B46B" fill-opacity="0.3"/>
</g>
<g filter="url(#filter5_f)">
<path d="M104.03 69.1098C114.76 74.7738 122.121 82.2699 128.278 94.5892C134.024 78.436 130.143 59.204 115.61 52.6333C101.795 46.3868 77.9976 49.9477 74.3296 62.0498C88.3411 62.1623 93.3006 63.4459 104.03 69.1098Z" fill="#719F5C" fill-opacity="0.2"/>
</g>
<g filter="url(#filter6_f)">
<path d="M108.792 62.9003C118.807 68.2928 120.371 74.1499 124.561 82.0894C128.912 70.6943 123.05 58.5891 114.313 54.1163C100.812 47.2052 83.6296 52.5703 80.7763 61.0807C89.5604 59.0618 98.7762 57.5078 108.792 62.9003Z" fill="#719F5C" fill-opacity="0.7"/>
</g>
<g filter="url(#filter7_f)">
<path d="M96.258 91.0051C83.6237 89.0222 78.9511 85.3684 72.1301 72.6628C69.0121 91.5348 83.5218 102.527 92.98 105.242C102.438 107.956 121.011 104.212 126.751 83.6121C111.493 90.4453 108.892 92.988 96.258 91.0051Z" fill="#DCEEC0" fill-opacity="0.97"/>
</g>
<g filter="url(#filter8_f)">
<path d="M91.6354 110.783C78.8831 107.923 68.2109 94.3841 66.9026 84.9907C67.7992 101.595 81.935 112.493 91.718 115.301C99.6992 116.368 111.983 118.28 126.35 104.034C110.697 112.791 104.388 113.643 91.6354 110.783Z" fill="#C5E1B3"/>
</g>
<g filter="url(#filter9_f)">
<path d="M74.4206 74.4401C75.2063 69.544 76.5068 67.9793 77.7487 65.0173C76.6087 65.84 73.9712 70.444 73.388 74.7221C72.7471 79.4241 72.9049 83.6824 76.7134 89.6223C74.0924 85.5344 73.6349 79.3363 74.4206 74.4401Z" fill="#F0F7E6" fill-opacity="0.97"/>
</g>
<g filter="url(#filter10_f)">
<path d="M80.5479 94.3409C79.4592 93.3319 78.6049 92.3661 78.065 91.3401C78.3557 92.7705 79.3497 94.3448 80.3415 95.1712C81.4317 96.0795 81.5843 95.9672 84.172 97.1439C82.1406 95.7262 81.6366 95.3498 80.5479 94.3409Z" fill="#F0F7E6"/>
</g>
<g filter="url(#filter11_f)">
<path d="M84.4027 59.6761C85.7093 58.9718 86.8993 58.4755 88.0447 58.2961C86.5971 58.109 84.7861 58.5409 83.6836 59.2125C82.4718 59.9507 82.5287 60.1315 80.579 62.2C82.5771 60.7357 83.0961 60.3804 84.4027 59.6761Z" fill="#F0F7E6"/>
</g>
<g filter="url(#filter12_f)">
<path d="M91.2851 100.022C90.2814 99.8182 89.1998 99.6887 88.5177 99.2269C89.1928 100.078 90.3383 100.712 91.2201 100.834C92.1894 100.968 92.2411 100.823 94.1983 100.469C92.4417 100.114 92.2888 100.226 91.2851 100.022Z" fill="#F0F7E6"/>
</g>
<g filter="url(#filter13_f)">
<path d="M126.042 71.3344C126.566 74.4484 126.187 75.6388 126.104 77.6652C126.541 76.9545 127.037 73.6731 126.526 70.9715C125.964 68.0021 125.071 65.4503 121.957 62.5584C124.1 64.5486 125.519 68.2205 126.042 71.3344Z" fill="#F0F7E6"/>
</g>
<g filter="url(#filter14_f)">
<path d="M112.042 58.8109C117.431 61.9798 116.163 62.914 121.223 61.1459C120.968 60.3515 118.802 57.8372 116.419 56.4646C113.801 54.9561 110.963 53.0012 106.74 53.4791C107.126 58.615 106.654 55.642 112.042 58.8109Z" fill="#F0F7E6"/>
</g>
<g filter="url(#filter15_f)">
<path d="M90.256 88.9221C86.5605 86.5024 86.3044 83.7855 84.7444 80.9018C84.477 83.1752 86.2785 88.9673 89.5986 90.8902C93.2477 93.0035 97.2213 96.5755 105.902 90.6913C99.9279 94.7408 93.9515 91.3418 90.256 88.9221Z" fill="#F0F7E6" fill-opacity="0.4"/>
</g>
<g filter="url(#filter16_f)">
<path d="M111.803 88.8945C108.497 91.8376 104.174 93.4343 97.5309 93.647C99.2587 94.2453 107.849 94.9261 113.142 89.7956C116.185 86.846 118.082 83.3742 116.555 74.6403C117.606 80.651 115.109 85.9514 111.803 88.8945Z" fill="#F0F7E6" fill-opacity="0.2"/>
</g>
<g filter="url(#filter17_f)">
<path d="M85.2333 75.1961C84.5114 79.0237 84.9921 82.7055 85.5517 85.3487C84.3629 84.2748 83.2263 77.854 83.9914 74.5537C84.8324 70.9264 86.5538 67.957 93.6197 65.3488C88.757 67.1438 85.9552 71.3685 85.2333 75.1961Z" fill="#F0F7E6" fill-opacity="0.6"/>
</g>
<defs>
<filter id="filter0_f" x="37.0557" y="58.4434" width="105.013" height="103.321" filterUnits="userSpaceOnUse" color-interpolation-filters="sRGB">
<feFlood flood-opacity="0" result="BackgroundImageFix"/>
<feBlend mode="normal" in="SourceGraphic" in2="BackgroundImageFix" result="shape"/>
<feGaussianBlur stdDeviation="10" result="effect1_foregroundBlur"/>
</filter>
<filter id="filter1_f" x="54.9423" y="72.5957" width="68.7268" height="70.4074" filterUnits="userSpaceOnUse" color-interpolation-filters="sRGB">
<feFlood flood-opacity="0" result="BackgroundImageFix"/>
<feBlend mode="normal" in="SourceGraphic" in2="BackgroundImageFix" result="shape"/>
<feGaussianBlur stdDeviation="10" result="effect1_foregroundBlur"/>
</filter>
<filter id="filter2_f" x="60.3615" y="56.5771" width="76.9723" height="62.6646" filterUnits="userSpaceOnUse" color-interpolation-filters="sRGB">
<feFlood flood-opacity="0" result="BackgroundImageFix"/>
<feBlend mode="normal" in="SourceGraphic" in2="BackgroundImageFix" result="shape"/>
<feGaussianBlur stdDeviation="2.5" result="effect1_foregroundBlur"/>
</filter>
<filter id="filter3_f" x="70.8927" y="72.8027" width="65.9871" height="46.0998" filterUnits="userSpaceOnUse" color-interpolation-filters="sRGB">
<feFlood flood-opacity="0" result="BackgroundImageFix"/>
<feBlend mode="normal" in="SourceGraphic" in2="BackgroundImageFix" result="shape"/>
<feGaussianBlur stdDeviation="2.5" result="effect1_foregroundBlur"/>
</filter>
<filter id="filter4_f" x="72.0411" y="45.5186" width="63.5246" height="50.2576" filterUnits="userSpaceOnUse" color-interpolation-filters="sRGB">
<feFlood flood-opacity="0" result="BackgroundImageFix"/>
<feBlend mode="normal" in="SourceGraphic" in2="BackgroundImageFix" result="shape"/>
<feGaussianBlur stdDeviation="1.5" result="effect1_foregroundBlur"/>
</filter>
<filter id="filter5_f" x="69.3296" y="44.6074" width="66.4943" height="54.982" filterUnits="userSpaceOnUse" color-interpolation-filters="sRGB">
<feFlood flood-opacity="0" result="BackgroundImageFix"/>
<feBlend mode="normal" in="SourceGraphic" in2="BackgroundImageFix" result="shape"/>
<feGaussianBlur stdDeviation="2.5" result="effect1_foregroundBlur"/>
</filter>
<filter id="filter6_f" x="60.7762" y="30.9541" width="85.2553" height="71.1358" filterUnits="userSpaceOnUse" color-interpolation-filters="sRGB">
<feFlood flood-opacity="0" result="BackgroundImageFix"/>
<feBlend mode="normal" in="SourceGraphic" in2="BackgroundImageFix" result="shape"/>
<feGaussianBlur stdDeviation="10" result="effect1_foregroundBlur"/>
</filter>
<filter id="filter7_f" x="41.6992" y="42.6631" width="115.052" height="93.3566" filterUnits="userSpaceOnUse" color-interpolation-filters="sRGB">
<feFlood flood-opacity="0" result="BackgroundImageFix"/>
<feBlend mode="normal" in="SourceGraphic" in2="BackgroundImageFix" result="shape"/>
<feGaussianBlur stdDeviation="15" result="effect1_foregroundBlur"/>
</filter>
<filter id="filter8_f" x="63.9026" y="81.9902" width="65.4475" height="37.0401" filterUnits="userSpaceOnUse" color-interpolation-filters="sRGB">
<feFlood flood-opacity="0" result="BackgroundImageFix"/>
<feBlend mode="normal" in="SourceGraphic" in2="BackgroundImageFix" result="shape"/>
<feGaussianBlur stdDeviation="1.5" result="effect1_foregroundBlur"/>
</filter>
<filter id="filter9_f" x="72.0997" y="64.0176" width="6.64899" height="26.605" filterUnits="userSpaceOnUse" color-interpolation-filters="sRGB">
<feFlood flood-opacity="0" result="BackgroundImageFix"/>
<feBlend mode="normal" in="SourceGraphic" in2="BackgroundImageFix" result="shape"/>
<feGaussianBlur stdDeviation="0.5" result="effect1_foregroundBlur"/>
</filter>
<filter id="filter10_f" x="76.1138" y="90.3398" width="9.41021" height="8.5232" filterUnits="userSpaceOnUse" color-interpolation-filters="sRGB">
<feFlood flood-opacity="0" result="BackgroundImageFix"/>
<feBlend mode="normal" in="SourceGraphic" in2="BackgroundImageFix" result="shape"/>
<feGaussianBlur stdDeviation="0.5" result="effect1_foregroundBlur"/>
</filter>
<filter id="filter11_f" x="79.579" y="57.252" width="9.4657" height="5.94774" filterUnits="userSpaceOnUse" color-interpolation-filters="sRGB">
<feFlood flood-opacity="0" result="BackgroundImageFix"/>
<feBlend mode="normal" in="SourceGraphic" in2="BackgroundImageFix" result="shape"/>
<feGaussianBlur stdDeviation="0.5" result="effect1_foregroundBlur"/>
</filter>
<filter id="filter12_f" x="87.5177" y="98.2266" width="7.68065" height="3.65647" filterUnits="userSpaceOnUse" color-interpolation-filters="sRGB">
<feFlood flood-opacity="0" result="BackgroundImageFix"/>
<feBlend mode="normal" in="SourceGraphic" in2="BackgroundImageFix" result="shape"/>
<feGaussianBlur stdDeviation="0.5" result="effect1_foregroundBlur"/>
</filter>
<filter id="filter13_f" x="120.957" y="61.5586" width="6.78568" height="17.1069" filterUnits="userSpaceOnUse" color-interpolation-filters="sRGB">
<feFlood flood-opacity="0" result="BackgroundImageFix"/>
<feBlend mode="normal" in="SourceGraphic" in2="BackgroundImageFix" result="shape"/>
<feGaussianBlur stdDeviation="0.5" result="effect1_foregroundBlur"/>
</filter>
<filter id="filter14_f" x="105.74" y="52.4053" width="16.4826" height="10.625" filterUnits="userSpaceOnUse" color-interpolation-filters="sRGB">
<feFlood flood-opacity="0" result="BackgroundImageFix"/>
<feBlend mode="normal" in="SourceGraphic" in2="BackgroundImageFix" result="shape"/>
<feGaussianBlur stdDeviation="0.5" result="effect1_foregroundBlur"/>
</filter>
<filter id="filter15_f" x="83.7183" y="79.9014" width="23.1833" height="15.0108" filterUnits="userSpaceOnUse" color-interpolation-filters="sRGB">
<feFlood flood-opacity="0" result="BackgroundImageFix"/>
<feBlend mode="normal" in="SourceGraphic" in2="BackgroundImageFix" result="shape"/>
<feGaussianBlur stdDeviation="0.5" result="effect1_foregroundBlur"/>
</filter>
<filter id="filter16_f" x="96.5309" y="73.6406" width="21.5637" height="21.4142" filterUnits="userSpaceOnUse" color-interpolation-filters="sRGB">
<feFlood flood-opacity="0" result="BackgroundImageFix"/>
<feBlend mode="normal" in="SourceGraphic" in2="BackgroundImageFix" result="shape"/>
<feGaussianBlur stdDeviation="0.5" result="effect1_foregroundBlur"/>
</filter>
<filter id="filter17_f" x="82.7427" y="64.3486" width="11.877" height="21.9999" filterUnits="userSpaceOnUse" color-interpolation-filters="sRGB">
<feFlood flood-opacity="0" result="BackgroundImageFix"/>
<feBlend mode="normal" in="SourceGraphic" in2="BackgroundImageFix" result="shape"/>
<feGaussianBlur stdDeviation="0.5" result="effect1_foregroundBlur"/>
</filter>
</defs>
</svg>
