<svg width="221" height="227" viewBox="0 0 221 227" fill="none" xmlns="http://www.w3.org/2000/svg">
<g filter="url(#filter0_f)">
<path d="M77.6431 98.8818C81.6363 94.5264 104.558 80.8205 90.3268 76.3317C159.669 69.3603 191.512 116.835 169.291 150.312C143.763 188.774 63.1765 180.278 58.2176 97.9662C83.4626 116.614 73.6499 103.237 77.6431 98.8818Z" fill="#AFB7A8" fill-opacity="0.8"/>
</g>
<g filter="url(#filter1_f)">
<path d="M100.625 110.083C106.081 104.449 98.7807 101.825 124.38 106.136C147.087 119.614 150.436 132.776 147.709 137.939C144.982 143.101 129.616 146.269 103.417 132.319C94.9055 116.11 95.17 115.717 100.625 110.083Z" fill="#DCEEC0" fill-opacity="0.75"/>
</g>
<circle cx="81.9051" cy="82.7078" r="55.6927" transform="rotate(149.581 81.9051 82.7078)" fill="#C4DE9B"/>
<circle cx="81.5043" cy="82.5045" r="55.6927" transform="rotate(-139.63 81.5043 82.5045)" fill="#C4DE9B"/>
<g filter="url(#filter2_f)">
<path d="M109.576 113.392C140.581 84.8848 132.146 46.6312 101.512 31.7769C149.137 49.0447 139.7 99.3853 121.219 117.448C100.078 138.11 52.1411 142.859 39.8994 112.204C53.5804 121.539 85.647 135.393 109.576 113.392Z" fill="#98B46B" fill-opacity="0.5"/>
</g>
<g filter="url(#filter3_f)">
<path d="M79.7467 126.551C124.034 132.158 128.161 75.4707 132.095 90.88C132.094 124.276 110.427 133.574 86.712 137.566C64.1668 141.361 40.063 124.869 37.3055 101.346C50.8897 117.657 53.2983 123.202 79.7467 126.551Z" fill="#98B46B" fill-opacity="0.3"/>
</g>
<g filter="url(#filter4_f)">
<path d="M51.0352 51.4715C31.92 75.2312 41.7352 95.0354 50.2447 121.657C25.1976 105.647 23.0339 72.2669 38.1899 50.9735C52.5981 30.7309 79.9738 21.8797 98.6951 32.4755C67.654 35.8243 59.0734 41.4803 51.0352 51.4715Z" fill="#98B46B" fill-opacity="0.3"/>
</g>
<g filter="url(#filter5_f)">
<path d="M65.6057 67.7825C55.5946 84.5277 51.7429 100.976 53.5744 123.046C32.1855 105.652 21.4521 75.9854 35.931 54.8174C49.6955 34.6939 85.3668 19.7079 100.516 33.2718C81.3588 45.1308 75.6168 51.0373 65.6057 67.7825Z" fill="#98B46B" fill-opacity="0.4"/>
</g>
<g filter="url(#filter6_f)">
<path d="M53.878 63.228C44.6219 79.0034 47.366 88.3572 48.2418 102.766C32.7442 90.7441 30.6861 69.2151 38.9543 55.7711C51.7301 34.9979 79.8207 28.016 90.8505 37.3255C77.0948 41.8893 63.1342 47.4526 53.878 63.228Z" fill="#98B46B" fill-opacity="0.7"/>
</g>
<g filter="url(#filter7_f)">
<path d="M94.5785 91.3714C110.281 78.093 113.649 69.1696 112.407 46.0145C132.456 69.3396 121.703 96.5636 110.975 108.194C100.248 119.824 71.601 130.194 46.5053 106.686C73.178 103.329 78.8756 104.65 94.5785 91.3714Z" fill="#DCEEC0" fill-opacity="0.97"/>
</g>
<g filter="url(#filter8_f)">
<path d="M117.278 114.609C132.369 99.9882 136.267 72.9737 130.687 59.4072C142.476 82.1863 131.801 108.639 120.705 120.669C110.694 128.862 95.4972 141.828 64.8119 135.136C92.9448 133.456 102.187 129.229 117.278 114.609Z" fill="#DCEEC0" fill-opacity="0.9"/>
</g>
<g filter="url(#filter9_f)">
<path d="M110.745 50.3705C105.575 44.2997 102.481 43.2362 98.3004 40.2039C100.554 40.382 108.024 44.5045 112.399 49.8954C117.208 55.8204 120.548 61.8029 120.277 73.1456C120.464 65.3396 115.914 56.4413 110.745 50.3705Z" fill="#F0F7E6"/>
</g>
<g filter="url(#filter10_f)">
<path d="M118.953 82.8309C119.606 80.5352 119.973 78.4945 119.858 76.6338C120.653 78.842 120.603 81.8354 119.93 83.7994C119.191 85.9579 118.888 85.9312 116.315 89.7096C117.922 86.0647 118.3 85.1265 118.953 82.8309Z" fill="#F0F7E6"/>
</g>
<g filter="url(#filter11_f)">
<path d="M84.6955 38.4243C82.312 38.548 80.2622 38.8602 78.5386 39.5705C80.3712 38.1041 83.2204 37.1848 85.2963 37.1866C87.5779 37.1885 87.6507 37.4845 92.0575 38.698C88.089 38.3551 87.079 38.3005 84.6955 38.4243Z" fill="#F0F7E6"/>
</g>
<g filter="url(#filter12_f)">
<path d="M108.944 99.606C110.153 98.4877 111.531 97.4061 112.083 96.2019C111.866 97.9353 110.822 99.7635 109.712 100.668C108.493 101.662 108.3 101.505 105.315 102.654C107.433 100.699 107.736 100.724 108.944 99.606Z" fill="#F0F7E6"/>
</g>
<g filter="url(#filter13_f)">
<path d="M37.2233 89.2259C39.1054 93.9417 40.6204 95.2607 42.4264 97.9763C41.2327 97.3645 37.8099 93.2704 36.2554 89.1313C34.5468 84.5822 33.6423 80.33 35.5047 73.7555C34.223 78.2801 35.3412 84.5102 37.2233 89.2259Z" fill="#F0F7E6"/>
</g>
<g filter="url(#filter14_f)">
<path d="M45.9962 60.3244C41.2399 69.1794 43.7626 69.4038 35.333 71.2014C35.0193 69.8973 35.895 64.6332 38.0221 60.7571C40.3599 56.497 42.6263 51.4402 48.8272 48.5695C52.5869 55.9489 50.7524 51.4694 45.9962 60.3244Z" fill="#F0F7E6" fill-opacity="0.9"/>
</g>
<g filter="url(#filter15_f)">
<path d="M101.082 83.4965C104.138 77.0849 102.22 73.1379 101.955 67.8727C104.222 70.7729 106.585 80.2359 103.629 85.6513C100.381 91.6033 97.9054 99.8305 81.0632 98.9967C92.6539 99.5705 98.026 89.9081 101.082 83.4965Z" fill="#F0F7E6" fill-opacity="0.7"/>
</g>
<g filter="url(#filter16_f)">
<path d="M71.454 101.457C78.4555 102.739 85.7281 101.322 95.0339 96.0646C93.1598 98.33 81.9261 106.441 70.3675 103.813C63.7223 102.303 58.2151 99.1176 53.0168 85.842C56.5942 94.9782 64.4526 100.175 71.454 101.457Z" fill="#F0F7E6" fill-opacity="0.2"/>
</g>
<g filter="url(#filter17_f)">
<path d="M96.5156 60.4416C100.705 65.0975 103.12 70.5577 104.559 74.657C105.296 72.1882 101.494 62.4168 97.6852 58.5215C93.4996 54.2402 88.6539 51.5983 76.7666 53.9172C84.9474 52.3213 92.3262 55.7856 96.5156 60.4416Z" fill="#F0F7E6" fill-opacity="0.8"/>
</g>
<defs>
<filter id="filter0_f" x="9.69363" y="24.9766" width="210.406" height="194.857" filterUnits="userSpaceOnUse" color-interpolation-filters="sRGB">
<feFlood flood-opacity="0" result="BackgroundImageFix"/>
<feBlend mode="normal" in="SourceGraphic" in2="BackgroundImageFix" result="shape"/>
<feGaussianBlur stdDeviation="15" result="effect1_foregroundBlur"/>
</filter>
<filter id="filter1_f" x="71.1201" y="76.6953" width="104.634" height="95.1439" filterUnits="userSpaceOnUse" color-interpolation-filters="sRGB">
<feFlood flood-opacity="0" result="BackgroundImageFix"/>
<feBlend mode="normal" in="SourceGraphic" in2="BackgroundImageFix" result="shape"/>
<feGaussianBlur stdDeviation="10" result="effect1_foregroundBlur"/>
</filter>
<filter id="filter2_f" x="28.5151" y="23.6914" width="134.453" height="138.834" filterUnits="userSpaceOnUse" color-interpolation-filters="sRGB">
<feFlood flood-opacity="0" result="BackgroundImageFix"/>
<feBlend mode="normal" in="SourceGraphic" in2="BackgroundImageFix" result="shape"/>
<feGaussianBlur stdDeviation="2.5" result="effect1_foregroundBlur"/>
</filter>
<filter id="filter3_f" x="29.9781" y="70.9902" width="117.638" height="83.7139" filterUnits="userSpaceOnUse" color-interpolation-filters="sRGB">
<feFlood flood-opacity="0" result="BackgroundImageFix"/>
<feBlend mode="normal" in="SourceGraphic" in2="BackgroundImageFix" result="shape"/>
<feGaussianBlur stdDeviation="3.5" result="effect1_foregroundBlur"/>
</filter>
<filter id="filter4_f" x="5.58618" y="5.89746" width="99.6421" height="120.76" filterUnits="userSpaceOnUse" color-interpolation-filters="sRGB">
<feFlood flood-opacity="0" result="BackgroundImageFix"/>
<feBlend mode="normal" in="SourceGraphic" in2="BackgroundImageFix" result="shape"/>
<feGaussianBlur stdDeviation="2.5" result="effect1_foregroundBlur"/>
</filter>
<filter id="filter5_f" x="0.845001" y="0.384766" width="112.805" height="132.661" filterUnits="userSpaceOnUse" color-interpolation-filters="sRGB">
<feFlood flood-opacity="0" result="BackgroundImageFix"/>
<feBlend mode="normal" in="SourceGraphic" in2="BackgroundImageFix" result="shape"/>
<feGaussianBlur stdDeviation="5" result="effect1_foregroundBlur"/>
</filter>
<filter id="filter6_f" x="11.046" y="9.33594" width="89.923" height="105.818" filterUnits="userSpaceOnUse" color-interpolation-filters="sRGB">
<feFlood flood-opacity="0" result="BackgroundImageFix"/>
<feBlend mode="normal" in="SourceGraphic" in2="BackgroundImageFix" result="shape"/>
<feGaussianBlur stdDeviation="5" result="effect1_foregroundBlur"/>
</filter>
<filter id="filter7_f" x="16.504" y="11.0615" width="156.118" height="158.449" filterUnits="userSpaceOnUse" color-interpolation-filters="sRGB">
<feFlood flood-opacity="0" result="BackgroundImageFix"/>
<feBlend mode="normal" in="SourceGraphic" in2="BackgroundImageFix" result="shape"/>
<feGaussianBlur stdDeviation="15" result="effect1_foregroundBlur"/>
</filter>
<filter id="filter8_f" x="59.6628" y="56.4072" width="99.1617" height="102.934" filterUnits="userSpaceOnUse" color-interpolation-filters="sRGB">
<feFlood flood-opacity="0" result="BackgroundImageFix"/>
<feBlend mode="normal" in="SourceGraphic" in2="BackgroundImageFix" result="shape"/>
<feGaussianBlur stdDeviation="1.5" result="effect1_foregroundBlur"/>
</filter>
<filter id="filter9_f" x="94.4317" y="36.1543" width="33.4721" height="37.9916" filterUnits="userSpaceOnUse" color-interpolation-filters="sRGB">
<feFlood flood-opacity="0" result="BackgroundImageFix"/>
<feBlend mode="normal" in="SourceGraphic" in2="BackgroundImageFix" result="shape"/>
<feGaussianBlur stdDeviation="0.5" result="effect1_foregroundBlur"/>
</filter>
<filter id="filter10_f" x="114.479" y="75.6338" width="8.6398" height="15.5634" filterUnits="userSpaceOnUse" color-interpolation-filters="sRGB">
<feFlood flood-opacity="0" result="BackgroundImageFix"/>
<feBlend mode="normal" in="SourceGraphic" in2="BackgroundImageFix" result="shape"/>
<feGaussianBlur stdDeviation="0.5" result="effect1_foregroundBlur"/>
</filter>
<filter id="filter11_f" x="77.5386" y="36.1807" width="15.5202" height="4.40132" filterUnits="userSpaceOnUse" color-interpolation-filters="sRGB">
<feFlood flood-opacity="0" result="BackgroundImageFix"/>
<feBlend mode="normal" in="SourceGraphic" in2="BackgroundImageFix" result="shape"/>
<feGaussianBlur stdDeviation="0.5" result="effect1_foregroundBlur"/>
</filter>
<filter id="filter12_f" x="103.856" y="95.2021" width="10.4679" height="9.41138" filterUnits="userSpaceOnUse" color-interpolation-filters="sRGB">
<feFlood flood-opacity="0" result="BackgroundImageFix"/>
<feBlend mode="normal" in="SourceGraphic" in2="BackgroundImageFix" result="shape"/>
<feGaussianBlur stdDeviation="0.5" result="effect1_foregroundBlur"/>
</filter>
<filter id="filter13_f" x="30.1017" y="72.7559" width="15.2308" height="27.1585" filterUnits="userSpaceOnUse" color-interpolation-filters="sRGB">
<feFlood flood-opacity="0" result="BackgroundImageFix"/>
<feBlend mode="normal" in="SourceGraphic" in2="BackgroundImageFix" result="shape"/>
<feGaussianBlur stdDeviation="0.5" result="effect1_foregroundBlur"/>
</filter>
<filter id="filter14_f" x="31.4821" y="45.3262" width="22.4612" height="29.8128" filterUnits="userSpaceOnUse" color-interpolation-filters="sRGB">
<feFlood flood-opacity="0" result="BackgroundImageFix"/>
<feBlend mode="normal" in="SourceGraphic" in2="BackgroundImageFix" result="shape"/>
<feGaussianBlur stdDeviation="0.75" result="effect1_foregroundBlur"/>
</filter>
<filter id="filter15_f" x="79.5632" y="66.373" width="26.9494" height="34.1827" filterUnits="userSpaceOnUse" color-interpolation-filters="sRGB">
<feFlood flood-opacity="0" result="BackgroundImageFix"/>
<feBlend mode="normal" in="SourceGraphic" in2="BackgroundImageFix" result="shape"/>
<feGaussianBlur stdDeviation="0.75" result="effect1_foregroundBlur"/>
</filter>
<filter id="filter16_f" x="50.0168" y="82.8418" width="48.0171" height="24.4893" filterUnits="userSpaceOnUse" color-interpolation-filters="sRGB">
<feFlood flood-opacity="0" result="BackgroundImageFix"/>
<feBlend mode="normal" in="SourceGraphic" in2="BackgroundImageFix" result="shape"/>
<feGaussianBlur stdDeviation="1.5" result="effect1_foregroundBlur"/>
</filter>
<filter id="filter17_f" x="74.7666" y="51.0557" width="31.8848" height="25.6011" filterUnits="userSpaceOnUse" color-interpolation-filters="sRGB">
<feFlood flood-opacity="0" result="BackgroundImageFix"/>
<feBlend mode="normal" in="SourceGraphic" in2="BackgroundImageFix" result="shape"/>
<feGaussianBlur stdDeviation="1" result="effect1_foregroundBlur"/>
</filter>
</defs>
</svg>
