<svg width="220" height="227" viewBox="0 0 220 227" fill="none" xmlns="http://www.w3.org/2000/svg">
<g filter="url(#filter0_f)">
<path d="M77.2711 98.8818C81.2643 94.5264 104.186 80.8205 89.9548 76.3317C159.297 69.3603 191.14 116.834 168.919 150.312C143.391 188.774 62.8045 180.278 57.8456 97.9662C83.0906 116.614 73.2779 103.237 77.2711 98.8818Z" fill="#AFB7A8" fill-opacity="0.8"/>
</g>
<g filter="url(#filter1_f)">
<path d="M100.253 110.083C105.709 104.449 98.4086 101.825 124.008 106.136C146.715 119.614 150.064 132.776 147.337 137.939C144.61 143.101 129.244 146.269 103.045 132.319C94.5334 116.11 94.7979 115.717 100.253 110.083Z" fill="#DCEEC0" fill-opacity="0.75"/>
</g>
<circle cx="81.533" cy="82.7078" r="55.6927" transform="rotate(149.581 81.533 82.7078)" fill="#C4DE9B"/>
<circle cx="81.1323" cy="82.5045" r="55.6927" transform="rotate(-139.63 81.1323 82.5045)" fill="#C4DE9B"/>
<g filter="url(#filter2_f)">
<path d="M109.203 113.392C140.209 84.8848 131.774 46.6312 101.14 31.7769C148.765 49.0447 139.328 99.3853 120.847 117.448C99.7064 138.11 51.7691 142.859 39.5274 112.204C53.2083 121.539 85.2749 135.393 109.203 113.392Z" fill="#98B46B" fill-opacity="0.5"/>
</g>
<g filter="url(#filter3_f)">
<path d="M79.3745 126.551C123.662 132.158 127.789 75.4707 131.722 90.88C131.722 124.276 110.055 133.574 86.3399 137.566C63.7947 141.361 39.6909 124.869 36.9334 101.346C50.5176 117.657 52.9262 123.202 79.3745 126.551Z" fill="#98B46B" fill-opacity="0.3"/>
</g>
<g filter="url(#filter4_f)">
<path d="M50.6631 51.4715C31.5478 75.2312 41.3631 95.0354 49.8726 121.657C24.8254 105.647 22.6617 72.2669 37.8178 50.9735C52.226 30.7309 79.6017 21.8797 98.323 32.4755C67.2818 35.8243 58.7012 41.4803 50.6631 51.4715Z" fill="#98B46B" fill-opacity="0.3"/>
</g>
<g filter="url(#filter5_f)">
<path d="M65.2335 67.7825C55.2224 84.5277 51.3708 100.976 53.2023 123.046C31.8134 105.652 21.0799 75.9854 35.5589 54.8174C49.3234 34.6939 84.9947 19.7079 100.144 33.2718C80.9867 45.1308 75.2446 51.0373 65.2335 67.7825Z" fill="#98B46B" fill-opacity="0.4"/>
</g>
<g filter="url(#filter6_f)">
<path d="M53.5059 63.228C44.2498 79.0034 46.9939 88.3572 47.8697 102.766C32.3721 90.7441 30.314 69.2151 38.5822 55.7711C51.358 34.9979 79.4486 28.016 90.4785 37.3255C76.7227 41.8893 62.7621 47.4526 53.5059 63.228Z" fill="#98B46B" fill-opacity="0.7"/>
</g>
<g filter="url(#filter7_f)">
<path d="M94.2065 91.3714C109.909 78.093 113.277 69.1696 112.035 46.0145C132.084 69.3396 121.331 96.5636 110.603 108.194C99.8755 119.824 71.229 130.194 46.1333 106.686C72.806 103.329 78.5036 104.65 94.2065 91.3714Z" fill="#DCEEC0" fill-opacity="0.97"/>
</g>
<g filter="url(#filter8_f)">
<path d="M116.906 114.609C131.997 99.9882 135.895 72.9737 130.315 59.4072C142.103 82.1863 131.429 108.639 120.332 120.669C110.322 128.862 95.1251 141.828 64.4399 135.136C92.5728 133.456 101.815 129.229 116.906 114.609Z" fill="#DCEEC0" fill-opacity="0.9"/>
</g>
<g filter="url(#filter9_f)">
<path d="M110.373 50.3705C105.203 44.2997 102.109 43.2362 97.9284 40.2039C100.182 40.382 107.652 44.5045 112.027 49.8954C116.836 55.8204 120.176 61.8029 119.905 73.1456C120.092 65.3396 115.542 56.4413 110.373 50.3705Z" fill="#F0F7E6"/>
</g>
<g filter="url(#filter10_f)">
<path d="M118.581 82.8309C119.234 80.5352 119.601 78.4945 119.486 76.6338C120.281 78.842 120.231 81.8354 119.558 83.7994C118.819 85.9579 118.515 85.9312 115.943 89.7096C117.55 86.0647 117.928 85.1265 118.581 82.8309Z" fill="#F0F7E6"/>
</g>
<g filter="url(#filter11_f)">
<path d="M84.3234 38.4243C81.9399 38.548 79.8901 38.8602 78.1665 39.5705C79.9992 38.1041 82.8484 37.1848 84.9242 37.1866C87.2058 37.1885 87.2786 37.4845 91.6855 38.698C87.717 38.3551 86.707 38.3005 84.3234 38.4243Z" fill="#F0F7E6"/>
</g>
<g filter="url(#filter12_f)">
<path d="M108.572 99.606C109.781 98.4877 111.159 97.4061 111.711 96.2019C111.494 97.9353 110.45 99.7635 109.34 100.668C108.12 101.662 107.928 101.505 104.943 102.654C107.061 100.699 107.364 100.724 108.572 99.606Z" fill="#F0F7E6"/>
</g>
<g filter="url(#filter13_f)">
<path d="M36.8512 89.2259C38.7333 93.9417 40.2484 95.2607 42.0543 97.9763C40.8606 97.3645 37.4378 93.2704 35.8833 89.1313C34.1747 84.5822 33.2702 80.33 35.1326 73.7555C33.8509 78.2801 34.9692 84.5102 36.8512 89.2259Z" fill="#F0F7E6"/>
</g>
<g filter="url(#filter14_f)">
<path d="M45.6242 60.3244C40.8679 69.1794 43.3906 69.4038 34.961 71.2014C34.6473 69.8973 35.523 64.6332 37.6501 60.7571C39.9879 56.497 42.2543 51.4402 48.4552 48.5695C52.2148 55.9489 50.3804 51.4694 45.6242 60.3244Z" fill="#F0F7E6" fill-opacity="0.9"/>
</g>
<g filter="url(#filter15_f)">
<path d="M100.71 83.4965C103.766 77.0848 101.848 73.1379 101.583 67.8727C103.849 70.7729 106.213 80.2359 103.257 85.6513C100.009 91.6033 97.5333 99.8305 80.6911 98.9967C92.2819 99.5705 97.6539 89.9081 100.71 83.4965Z" fill="#F0F7E6" fill-opacity="0.7"/>
</g>
<g filter="url(#filter16_f)">
<path d="M71.082 101.457C78.0835 102.739 85.3561 101.322 94.6618 96.0646C92.7878 98.33 81.554 106.441 69.9955 103.813C63.3503 102.303 57.8431 99.1176 52.6447 85.842C56.2222 94.9782 64.0805 100.175 71.082 101.457Z" fill="#F0F7E6" fill-opacity="0.2"/>
</g>
<g filter="url(#filter17_f)">
<path d="M96.1435 60.4416C100.333 65.0975 102.748 70.5577 104.187 74.657C104.924 72.1882 101.121 62.4168 97.3132 58.5215C93.1275 54.2402 88.2818 51.5983 76.3945 53.9172C84.5753 52.3213 91.9541 55.7856 96.1435 60.4416Z" fill="#F0F7E6" fill-opacity="0.8"/>
</g>
<defs>
<filter id="filter0_f" x="9.32166" y="24.9766" width="210.406" height="194.857" filterUnits="userSpaceOnUse" color-interpolation-filters="sRGB">
<feFlood flood-opacity="0" result="BackgroundImageFix"/>
<feBlend mode="normal" in="SourceGraphic" in2="BackgroundImageFix" result="shape"/>
<feGaussianBlur stdDeviation="15" result="effect1_foregroundBlur"/>
</filter>
<filter id="filter1_f" x="70.7479" y="76.6953" width="104.634" height="95.1439" filterUnits="userSpaceOnUse" color-interpolation-filters="sRGB">
<feFlood flood-opacity="0" result="BackgroundImageFix"/>
<feBlend mode="normal" in="SourceGraphic" in2="BackgroundImageFix" result="shape"/>
<feGaussianBlur stdDeviation="10" result="effect1_foregroundBlur"/>
</filter>
<filter id="filter2_f" x="28.1431" y="23.6914" width="134.453" height="138.834" filterUnits="userSpaceOnUse" color-interpolation-filters="sRGB">
<feFlood flood-opacity="0" result="BackgroundImageFix"/>
<feBlend mode="normal" in="SourceGraphic" in2="BackgroundImageFix" result="shape"/>
<feGaussianBlur stdDeviation="2.5" result="effect1_foregroundBlur"/>
</filter>
<filter id="filter3_f" x="29.606" y="70.9902" width="117.638" height="83.7139" filterUnits="userSpaceOnUse" color-interpolation-filters="sRGB">
<feFlood flood-opacity="0" result="BackgroundImageFix"/>
<feBlend mode="normal" in="SourceGraphic" in2="BackgroundImageFix" result="shape"/>
<feGaussianBlur stdDeviation="3.5" result="effect1_foregroundBlur"/>
</filter>
<filter id="filter4_f" x="5.21399" y="5.89746" width="99.6421" height="120.76" filterUnits="userSpaceOnUse" color-interpolation-filters="sRGB">
<feFlood flood-opacity="0" result="BackgroundImageFix"/>
<feBlend mode="normal" in="SourceGraphic" in2="BackgroundImageFix" result="shape"/>
<feGaussianBlur stdDeviation="2.5" result="effect1_foregroundBlur"/>
</filter>
<filter id="filter5_f" x="0.4729" y="0.384766" width="112.805" height="132.661" filterUnits="userSpaceOnUse" color-interpolation-filters="sRGB">
<feFlood flood-opacity="0" result="BackgroundImageFix"/>
<feBlend mode="normal" in="SourceGraphic" in2="BackgroundImageFix" result="shape"/>
<feGaussianBlur stdDeviation="5" result="effect1_foregroundBlur"/>
</filter>
<filter id="filter6_f" x="10.674" y="9.33594" width="89.923" height="105.818" filterUnits="userSpaceOnUse" color-interpolation-filters="sRGB">
<feFlood flood-opacity="0" result="BackgroundImageFix"/>
<feBlend mode="normal" in="SourceGraphic" in2="BackgroundImageFix" result="shape"/>
<feGaussianBlur stdDeviation="5" result="effect1_foregroundBlur"/>
</filter>
<filter id="filter7_f" x="16.1321" y="11.0615" width="156.118" height="158.449" filterUnits="userSpaceOnUse" color-interpolation-filters="sRGB">
<feFlood flood-opacity="0" result="BackgroundImageFix"/>
<feBlend mode="normal" in="SourceGraphic" in2="BackgroundImageFix" result="shape"/>
<feGaussianBlur stdDeviation="15" result="effect1_foregroundBlur"/>
</filter>
<filter id="filter8_f" x="59.2908" y="56.4072" width="99.1617" height="102.934" filterUnits="userSpaceOnUse" color-interpolation-filters="sRGB">
<feFlood flood-opacity="0" result="BackgroundImageFix"/>
<feBlend mode="normal" in="SourceGraphic" in2="BackgroundImageFix" result="shape"/>
<feGaussianBlur stdDeviation="1.5" result="effect1_foregroundBlur"/>
</filter>
<filter id="filter9_f" x="94.0597" y="36.1543" width="33.4721" height="37.9916" filterUnits="userSpaceOnUse" color-interpolation-filters="sRGB">
<feFlood flood-opacity="0" result="BackgroundImageFix"/>
<feBlend mode="normal" in="SourceGraphic" in2="BackgroundImageFix" result="shape"/>
<feGaussianBlur stdDeviation="0.5" result="effect1_foregroundBlur"/>
</filter>
<filter id="filter10_f" x="114.107" y="75.6338" width="8.6398" height="15.5634" filterUnits="userSpaceOnUse" color-interpolation-filters="sRGB">
<feFlood flood-opacity="0" result="BackgroundImageFix"/>
<feBlend mode="normal" in="SourceGraphic" in2="BackgroundImageFix" result="shape"/>
<feGaussianBlur stdDeviation="0.5" result="effect1_foregroundBlur"/>
</filter>
<filter id="filter11_f" x="77.1665" y="36.1807" width="15.5202" height="4.40132" filterUnits="userSpaceOnUse" color-interpolation-filters="sRGB">
<feFlood flood-opacity="0" result="BackgroundImageFix"/>
<feBlend mode="normal" in="SourceGraphic" in2="BackgroundImageFix" result="shape"/>
<feGaussianBlur stdDeviation="0.5" result="effect1_foregroundBlur"/>
</filter>
<filter id="filter12_f" x="103.484" y="95.2021" width="10.4679" height="9.41138" filterUnits="userSpaceOnUse" color-interpolation-filters="sRGB">
<feFlood flood-opacity="0" result="BackgroundImageFix"/>
<feBlend mode="normal" in="SourceGraphic" in2="BackgroundImageFix" result="shape"/>
<feGaussianBlur stdDeviation="0.5" result="effect1_foregroundBlur"/>
</filter>
<filter id="filter13_f" x="29.7296" y="72.7559" width="15.2308" height="27.1585" filterUnits="userSpaceOnUse" color-interpolation-filters="sRGB">
<feFlood flood-opacity="0" result="BackgroundImageFix"/>
<feBlend mode="normal" in="SourceGraphic" in2="BackgroundImageFix" result="shape"/>
<feGaussianBlur stdDeviation="0.5" result="effect1_foregroundBlur"/>
</filter>
<filter id="filter14_f" x="31.11" y="45.3262" width="22.4612" height="29.8128" filterUnits="userSpaceOnUse" color-interpolation-filters="sRGB">
<feFlood flood-opacity="0" result="BackgroundImageFix"/>
<feBlend mode="normal" in="SourceGraphic" in2="BackgroundImageFix" result="shape"/>
<feGaussianBlur stdDeviation="0.75" result="effect1_foregroundBlur"/>
</filter>
<filter id="filter15_f" x="79.191" y="66.373" width="26.9494" height="34.1827" filterUnits="userSpaceOnUse" color-interpolation-filters="sRGB">
<feFlood flood-opacity="0" result="BackgroundImageFix"/>
<feBlend mode="normal" in="SourceGraphic" in2="BackgroundImageFix" result="shape"/>
<feGaussianBlur stdDeviation="0.75" result="effect1_foregroundBlur"/>
</filter>
<filter id="filter16_f" x="49.6448" y="82.8418" width="48.0171" height="24.4893" filterUnits="userSpaceOnUse" color-interpolation-filters="sRGB">
<feFlood flood-opacity="0" result="BackgroundImageFix"/>
<feBlend mode="normal" in="SourceGraphic" in2="BackgroundImageFix" result="shape"/>
<feGaussianBlur stdDeviation="1.5" result="effect1_foregroundBlur"/>
</filter>
<filter id="filter17_f" x="74.3945" y="51.0557" width="31.8848" height="25.6011" filterUnits="userSpaceOnUse" color-interpolation-filters="sRGB">
<feFlood flood-opacity="0" result="BackgroundImageFix"/>
<feBlend mode="normal" in="SourceGraphic" in2="BackgroundImageFix" result="shape"/>
<feGaussianBlur stdDeviation="1" result="effect1_foregroundBlur"/>
</filter>
</defs>
</svg>
