<svg width="209" height="220" viewBox="0 0 209 220" fill="none" xmlns="http://www.w3.org/2000/svg">
<g filter="url(#filter0_f)">
<path d="M116.043 132.142C136.911 120.669 108.985 115.481 99.6522 91.6175C172.864 85.1268 180.198 141.208 160.709 158.554C139.23 177.668 89.0776 172.558 75.841 124.719C102.023 125.284 95.176 143.615 116.043 132.142Z" fill="#96B06C"/>
</g>
<g filter="url(#filter1_f)">
<path d="M90.7613 107.456C88.4849 116.272 81.5673 110.739 101.032 133.154C127.759 147.087 142.657 142.256 146.095 136.403C149.533 130.551 143.493 113.548 114.223 96.4867C93.2656 98.1398 93.0376 98.6411 90.7613 107.456Z" fill="#AAD5D9"/>
</g>
<ellipse rx="43.8004" ry="43.8005" transform="matrix(-0.663838 -0.747875 -0.747879 0.663837 97.7756 99.6824)" fill="#55A9C0"/>
<g filter="url(#filter2_f)">
<path d="M122.532 121.237C100.638 146.095 70.4177 140.105 58.2235 116.267C72.6008 153.424 112.025 145.158 125.917 130.324C141.808 113.354 144.737 75.582 120.428 66.4714C127.997 77.0718 139.429 102.053 122.532 121.237Z" fill="#4B98A3"/>
</g>
<g filter="url(#filter3_f)">
<path d="M132.379 97.5605C137.532 132.289 93.0289 136.486 105.211 139.32C125.759 133.369 135.14 121.942 137.881 103.228C140.486 85.4368 130.391 66.386 111.848 64.613C124.902 75.0201 129.302 76.8208 132.379 97.5605Z" fill="#4B98A3" fill-opacity="0.3"/>
</g>
<g filter="url(#filter4_f)">
<path d="M72.862 76.2484C91.223 60.8193 106.96 68.2043 128.035 74.448C115.026 55.0227 88.7429 53.882 72.2547 66.1567C56.5802 77.8256 50.0802 99.4995 58.726 114.042C60.8378 89.5783 65.141 82.7365 72.862 76.2484Z" fill="#4B98A3" fill-opacity="0.3"/>
</g>
<g filter="url(#filter5_f)">
<path d="M85.9345 87.4286C98.933 79.2757 111.801 75.9709 129.185 77.0404C115.149 60.5147 91.6429 52.5734 75.2418 64.3135C59.6502 75.4743 48.4658 103.774 59.3854 115.458C68.3883 100.196 72.9361 95.5814 85.9345 87.4286Z" fill="#4B98A3" fill-opacity="0.2"/>
</g>
<g filter="url(#filter6_f)">
<path d="M82.1541 78.2835C94.4027 70.7405 101.804 72.741 113.148 73.1877C103.435 61.204 86.4723 59.9474 76.0402 66.6744C59.921 77.0687 54.903 99.2732 62.4081 107.789C65.7656 96.8969 69.9056 85.8264 82.1541 78.2835Z" fill="#4B98A3" fill-opacity="0.7"/>
</g>
<g filter="url(#filter7_f)">
<path d="M104.964 109.816C94.7872 122.386 87.8274 125.184 69.6 124.596C88.2769 139.968 109.502 131.056 118.467 122.426C127.432 113.795 135.104 91.0967 116.199 71.7592C114.007 92.7879 115.141 97.2456 104.964 109.816Z" fill="#DCEEC0" fill-opacity="0.97"/>
</g>
<g filter="url(#filter8_f)">
<path d="M124.315 127.616C113.073 139.727 91.8972 143.246 81.1363 139.086C99.2452 147.973 119.865 139.135 129.138 130.208C135.412 122.2 145.352 110.033 139.575 86.0177C138.726 108.166 135.558 115.505 124.315 127.616Z" fill="#B8DEE2"/>
</g>
<g filter="url(#filter9_f)">
<path d="M72.9983 123.214C68.138 119.252 67.2499 116.837 64.7953 113.6C64.9733 115.369 68.3402 121.174 72.6524 124.523C77.3919 128.205 82.1521 130.731 91.0662 130.327C84.9315 130.605 77.8585 127.177 72.9983 123.214Z" fill="#F0F7E6" fill-opacity="0.97"/>
</g>
<g filter="url(#filter10_f)">
<path d="M98.6602 129.121C96.8661 129.673 95.2677 129.996 93.8027 129.936C95.5523 130.525 97.9052 130.435 99.4381 129.873C101.123 129.255 101.097 129.017 104.025 126.931C101.186 128.256 100.454 128.569 98.6602 129.121Z" fill="#F0F7E6"/>
</g>
<g filter="url(#filter11_f)">
<path d="M63.1697 102.933C63.227 101.057 63.4381 99.4396 63.9676 98.0724C62.8454 99.538 62.1704 101.794 62.2066 103.426C62.2465 105.22 62.4804 105.272 63.5086 108.717C63.1723 105.602 63.1125 104.809 63.1697 102.933Z" fill="#F0F7E6"/>
</g>
<g filter="url(#filter12_f)">
<path d="M111.681 120.971C110.822 121.941 109.995 123.042 109.057 123.496C110.416 123.297 111.836 122.445 112.529 121.557C113.29 120.581 113.163 120.432 114.016 118.066C112.515 119.764 112.54 120.002 111.681 120.971Z" fill="#F0F7E6"/>
</g>
<g filter="url(#filter13_f)">
<path d="M102.317 64.7522C106.056 66.1528 107.119 67.3219 109.284 68.6963C108.783 67.768 105.507 65.1455 102.226 63.9927C98.6204 62.7257 95.2618 62.0859 90.1237 63.6607C93.6597 62.5769 98.5772 63.3515 102.317 64.7522Z" fill="#F0F7E6"/>
</g>
<g filter="url(#filter14_f)">
<path d="M79.7385 72.1359C86.6212 68.2474 86.8399 70.2272 88.1118 63.5689C87.0811 63.3442 82.9568 64.1212 79.9448 65.8588C76.6344 67.7685 72.6963 69.6355 70.5432 74.5594C76.4087 77.3916 72.8557 76.0244 79.7385 72.1359Z" fill="#F0F7E6" fill-opacity="0.9"/>
</g>
<g filter="url(#filter15_f)">
<path d="M98.8824 115.059C93.8923 117.57 90.7567 116.128 86.6122 116.008C88.9307 117.741 96.4111 119.441 100.619 117.026C105.245 114.372 111.672 112.287 110.734 99.058C111.38 108.162 103.872 112.548 98.8824 115.059Z" fill="#F0F7E6" fill-opacity="0.4"/>
</g>
<g filter="url(#filter16_f)">
<path d="M112.51 91.4592C113.636 96.9428 112.644 102.685 108.666 110.09C110.416 108.579 116.605 99.6095 114.345 90.5653C113.046 85.3656 110.449 81.0889 99.9229 77.2245C107.167 79.8839 111.385 85.9756 112.51 91.4592Z" fill="#F0F7E6" fill-opacity="0.2"/>
</g>
<g filter="url(#filter17_f)">
<path d="M80.6816 111.854C84.4128 115.07 88.7467 116.877 91.994 117.94C90.0653 118.561 82.3183 115.735 79.1915 112.806C75.7549 109.587 73.5962 105.821 75.2199 96.4355C74.1024 102.895 76.9503 108.638 80.6816 111.854Z" fill="#F0F7E6" fill-opacity="0.6"/>
</g>
<defs>
<filter id="filter0_f" x="55.841" y="71.0977" width="134.112" height="117.831" filterUnits="userSpaceOnUse" color-interpolation-filters="sRGB">
<feFlood flood-opacity="0" result="BackgroundImageFix"/>
<feBlend mode="normal" in="SourceGraphic" in2="BackgroundImageFix" result="shape"/>
<feGaussianBlur stdDeviation="10" result="effect1_foregroundBlur"/>
</filter>
<filter id="filter1_f" x="67.6933" y="76.4863" width="99.2677" height="85.7232" filterUnits="userSpaceOnUse" color-interpolation-filters="sRGB">
<feFlood flood-opacity="0" result="BackgroundImageFix"/>
<feBlend mode="normal" in="SourceGraphic" in2="BackgroundImageFix" result="shape"/>
<feGaussianBlur stdDeviation="10" result="effect1_foregroundBlur"/>
</filter>
<filter id="filter2_f" x="53.2235" y="61.4717" width="90.0392" height="86.3822" filterUnits="userSpaceOnUse" color-interpolation-filters="sRGB">
<feFlood flood-opacity="0" result="BackgroundImageFix"/>
<feBlend mode="normal" in="SourceGraphic" in2="BackgroundImageFix" result="shape"/>
<feGaussianBlur stdDeviation="2.5" result="effect1_foregroundBlur"/>
</filter>
<filter id="filter3_f" x="98.0904" y="59.6133" width="45.1961" height="84.7071" filterUnits="userSpaceOnUse" color-interpolation-filters="sRGB">
<feFlood flood-opacity="0" result="BackgroundImageFix"/>
<feBlend mode="normal" in="SourceGraphic" in2="BackgroundImageFix" result="shape"/>
<feGaussianBlur stdDeviation="2.5" result="effect1_foregroundBlur"/>
</filter>
<filter id="filter4_f" x="49.8724" y="53.1494" width="83.1627" height="65.8921" filterUnits="userSpaceOnUse" color-interpolation-filters="sRGB">
<feFlood flood-opacity="0" result="BackgroundImageFix"/>
<feBlend mode="normal" in="SourceGraphic" in2="BackgroundImageFix" result="shape"/>
<feGaussianBlur stdDeviation="2.5" result="effect1_foregroundBlur"/>
</filter>
<filter id="filter5_f" x="50.0231" y="53.7217" width="84.1623" height="66.7362" filterUnits="userSpaceOnUse" color-interpolation-filters="sRGB">
<feFlood flood-opacity="0" result="BackgroundImageFix"/>
<feBlend mode="normal" in="SourceGraphic" in2="BackgroundImageFix" result="shape"/>
<feGaussianBlur stdDeviation="2.5" result="effect1_foregroundBlur"/>
</filter>
<filter id="filter6_f" x="53.9955" y="57.6094" width="64.1522" height="55.1806" filterUnits="userSpaceOnUse" color-interpolation-filters="sRGB">
<feFlood flood-opacity="0" result="BackgroundImageFix"/>
<feBlend mode="normal" in="SourceGraphic" in2="BackgroundImageFix" result="shape"/>
<feGaussianBlur stdDeviation="2.5" result="effect1_foregroundBlur"/>
</filter>
<filter id="filter7_f" x="39.5999" y="41.7588" width="118.28" height="121.2" filterUnits="userSpaceOnUse" color-interpolation-filters="sRGB">
<feFlood flood-opacity="0" result="BackgroundImageFix"/>
<feBlend mode="normal" in="SourceGraphic" in2="BackgroundImageFix" result="shape"/>
<feGaussianBlur stdDeviation="15" result="effect1_foregroundBlur"/>
</filter>
<filter id="filter8_f" x="78.1363" y="83.0176" width="66.1782" height="62.7586" filterUnits="userSpaceOnUse" color-interpolation-filters="sRGB">
<feFlood flood-opacity="0" result="BackgroundImageFix"/>
<feBlend mode="normal" in="SourceGraphic" in2="BackgroundImageFix" result="shape"/>
<feGaussianBlur stdDeviation="1.5" result="effect1_foregroundBlur"/>
</filter>
<filter id="filter9_f" x="63.2953" y="112.101" width="29.2708" height="19.769" filterUnits="userSpaceOnUse" color-interpolation-filters="sRGB">
<feFlood flood-opacity="0" result="BackgroundImageFix"/>
<feBlend mode="normal" in="SourceGraphic" in2="BackgroundImageFix" result="shape"/>
<feGaussianBlur stdDeviation="0.75" result="effect1_foregroundBlur"/>
</filter>
<filter id="filter10_f" x="92.8027" y="125.278" width="12.6292" height="7.42259" filterUnits="userSpaceOnUse" color-interpolation-filters="sRGB">
<feFlood flood-opacity="0" result="BackgroundImageFix"/>
<feBlend mode="normal" in="SourceGraphic" in2="BackgroundImageFix" result="shape"/>
<feGaussianBlur stdDeviation="0.5" result="effect1_foregroundBlur"/>
</filter>
<filter id="filter11_f" x="60.2053" y="96.0723" width="5.76238" height="14.6444" filterUnits="userSpaceOnUse" color-interpolation-filters="sRGB">
<feFlood flood-opacity="0" result="BackgroundImageFix"/>
<feBlend mode="normal" in="SourceGraphic" in2="BackgroundImageFix" result="shape"/>
<feGaussianBlur stdDeviation="1" result="effect1_foregroundBlur"/>
</filter>
<filter id="filter12_f" x="108.057" y="117.066" width="6.95926" height="7.42964" filterUnits="userSpaceOnUse" color-interpolation-filters="sRGB">
<feFlood flood-opacity="0" result="BackgroundImageFix"/>
<feBlend mode="normal" in="SourceGraphic" in2="BackgroundImageFix" result="shape"/>
<feGaussianBlur stdDeviation="0.5" result="effect1_foregroundBlur"/>
</filter>
<filter id="filter13_f" x="88.1237" y="60.7305" width="23.1607" height="9.96555" filterUnits="userSpaceOnUse" color-interpolation-filters="sRGB">
<feFlood flood-opacity="0" result="BackgroundImageFix"/>
<feBlend mode="normal" in="SourceGraphic" in2="BackgroundImageFix" result="shape"/>
<feGaussianBlur stdDeviation="1" result="effect1_foregroundBlur"/>
</filter>
<filter id="filter14_f" x="69.0432" y="62.0312" width="20.5686" height="15.5328" filterUnits="userSpaceOnUse" color-interpolation-filters="sRGB">
<feFlood flood-opacity="0" result="BackgroundImageFix"/>
<feBlend mode="normal" in="SourceGraphic" in2="BackgroundImageFix" result="shape"/>
<feGaussianBlur stdDeviation="0.75" result="effect1_foregroundBlur"/>
</filter>
<filter id="filter15_f" x="84.6122" y="97.0576" width="28.2138" height="23.1666" filterUnits="userSpaceOnUse" color-interpolation-filters="sRGB">
<feFlood flood-opacity="0" result="BackgroundImageFix"/>
<feBlend mode="normal" in="SourceGraphic" in2="BackgroundImageFix" result="shape"/>
<feGaussianBlur stdDeviation="1" result="effect1_foregroundBlur"/>
</filter>
<filter id="filter16_f" x="97.9229" y="75.2246" width="18.9123" height="36.8658" filterUnits="userSpaceOnUse" color-interpolation-filters="sRGB">
<feFlood flood-opacity="0" result="BackgroundImageFix"/>
<feBlend mode="normal" in="SourceGraphic" in2="BackgroundImageFix" result="shape"/>
<feGaussianBlur stdDeviation="1" result="effect1_foregroundBlur"/>
</filter>
<filter id="filter17_f" x="73.1693" y="94.9355" width="20.3248" height="24.591" filterUnits="userSpaceOnUse" color-interpolation-filters="sRGB">
<feFlood flood-opacity="0" result="BackgroundImageFix"/>
<feBlend mode="normal" in="SourceGraphic" in2="BackgroundImageFix" result="shape"/>
<feGaussianBlur stdDeviation="0.75" result="effect1_foregroundBlur"/>
</filter>
</defs>
</svg>
