<svg width="150" height="156" viewBox="0 0 150 156" fill="none" xmlns="http://www.w3.org/2000/svg">
<g filter="url(#filter0_f)">
<path d="M75.0617 84.7174C88.3875 71.1937 69.1464 78.619 60.5008 61.1182C105.642 47.6527 126.87 81.1562 118.024 100.617C107.848 123.008 50.9771 136.687 47.8746 70.683C61.9651 79.9188 61.7359 98.2411 75.0617 84.7174Z" fill="#AFB7A8" fill-opacity="0.8"/>
</g>
<g filter="url(#filter1_f)">
<path d="M72.2578 76.3891C76.4391 71.9202 71.9525 70.2854 88.2196 72.3542C101.595 81.4214 102.35 91.1316 100.004 95.1231C97.6576 99.1147 87.2652 102.186 71.6578 92.9229C67.8606 81.1646 68.0764 80.8581 72.2578 76.3891Z" fill="#DCEEC0" fill-opacity="0.8"/>
</g>
<circle cx="59.3515" cy="60.351" r="34.4096" transform="rotate(-135.715 59.3515 60.351)" fill="#85B96D"/>
<g filter="url(#filter2_f)">
<path d="M75.3516 80.5757C95.6663 64.3118 92.0809 40.3761 73.8249 29.9273C102.452 42.5807 94.5115 73.2128 82.3574 83.5671C68.4546 95.411 38.7054 96.3156 32.453 76.9037C40.4921 83.2346 59.6736 93.1274 75.3516 80.5757Z" fill="#719F5C" fill-opacity="0.5"/>
</g>
<g filter="url(#filter3_f)">
<path d="M56.4087 87.4282C83.4712 92.7531 88.407 57.985 90.1813 67.6493C84.7528 83.5543 75.4396 90.4944 60.6528 91.9545C46.5957 93.3425 32.0184 84.7173 31.3112 70.101C38.9964 80.7283 40.247 84.2482 56.4087 87.4282Z" fill="#719F5C" fill-opacity="0.3"/>
</g>
<g filter="url(#filter4_f)">
<path d="M41.8793 39.9369C29.094 53.776 34.3086 66.3975 38.4306 83.1665C23.6669 72.241 23.7416 51.5738 33.9824 39.0879C43.7178 27.2182 60.9658 22.9173 72.0586 30.2386C52.7834 30.993 47.2556 34.1174 41.8793 39.9369Z" fill="#98B46B" fill-opacity="0.3"/>
</g>
<g filter="url(#filter5_f)">
<path d="M50.1722 50.6063C43.2948 60.5057 40.2266 70.4821 40.4244 84.1633C27.974 72.5389 22.6096 53.7996 32.4277 41.3624C41.7612 29.539 64.3816 21.8066 73.1476 30.8067C60.8384 37.3083 57.0497 40.7069 50.1722 50.6063Z" fill="#719F5C" fill-opacity="0.2"/>
</g>
<g filter="url(#filter6_f)">
<path d="M43.1352 47.3041C36.764 56.6376 38.0608 62.5192 37.9927 71.4377C28.9472 63.3735 28.5869 50.0161 34.2508 42.078C43.0023 29.8123 60.6121 26.6939 67.0182 32.8976C58.3465 35.1304 49.5064 37.9706 43.1352 47.3041Z" fill="#719F5C" fill-opacity="0.7"/>
</g>
<g filter="url(#filter7_f)">
<path d="M67.0357 66.3683C77.2753 58.8459 79.7278 53.4876 79.9392 39.1622C91.3135 54.3859 83.5365 70.7133 76.4331 77.4296C69.3296 84.146 51.2342 89.3294 36.757 73.7799C53.3398 72.8359 56.7961 73.8906 67.0357 66.3683Z" fill="#DCEEC0" fill-opacity="0.97"/>
</g>
<g filter="url(#filter8_f)">
<path d="M80.286 81.848C90.2049 73.4725 93.7476 56.9851 90.8803 48.3872C97.1859 62.9258 89.4898 78.781 82.1424 85.7281C75.6262 90.3559 65.7117 97.707 47.0794 92.2874C64.4916 92.4389 70.3672 90.2234 80.286 81.848Z" fill="#C5E1B3"/>
</g>
<g filter="url(#filter9_f)">
<path d="M78.7309 41.7781C75.8004 37.8179 73.9382 37.0318 71.4891 34.9863C72.8707 35.1912 77.3013 38.0475 79.7706 41.555C82.4847 45.4101 84.2914 49.2388 83.6458 56.2191C84.0901 51.4153 81.6614 45.7383 78.7309 41.7781Z" fill="#F0F7E6" fill-opacity="0.97"/>
</g>
<g filter="url(#filter10_f)">
<path d="M82.4202 62.1335C82.9196 60.746 83.2319 59.5036 83.2393 58.3518C83.6365 59.7465 83.479 61.5895 82.9817 62.7718C82.435 64.0711 82.249 64.0418 80.504 66.2623C81.6482 64.0834 81.9208 63.5211 82.4202 62.1335Z" fill="#F0F7E6"/>
</g>
<g filter="url(#filter11_f)">
<path d="M63.178 33.3149C61.7036 33.2906 60.4269 33.3965 59.3345 33.7617C60.526 32.9351 62.3211 32.4886 63.6006 32.5773C65.0069 32.6748 65.0393 32.8603 67.7045 33.7942C65.2727 33.4154 64.6525 33.3392 63.178 33.3149Z" fill="#F0F7E6"/>
</g>
<g filter="url(#filter12_f)">
<path d="M75.5437 72.0514C76.336 71.4131 77.231 70.8045 77.6217 70.0855C77.415 71.1448 76.6943 72.2277 75.9721 72.7382C75.1783 73.2994 75.0662 73.1946 73.1779 73.7768C74.5656 72.6615 74.7513 72.6898 75.5437 72.0514Z" fill="#F0F7E6"/>
</g>
<g filter="url(#filter13_f)">
<path d="M31.771 62.6266C32.7321 65.6128 33.6104 66.4898 34.609 68.2399C33.899 67.8124 31.9619 65.1443 31.1783 62.5274C30.3171 59.6512 29.939 56.992 31.3644 53.018C30.3834 55.7529 30.8099 59.6403 31.771 62.6266Z" fill="#F0F7E6"/>
</g>
<g filter="url(#filter14_f)">
<path d="M38.3994 45.1817C35.094 50.4393 36.6395 50.684 31.3676 51.4364C31.2293 50.6193 31.9912 47.4114 33.4659 45.1119C35.0867 42.5846 36.6971 39.5632 40.6405 38.0553C42.6466 42.7627 41.7048 39.9241 38.3994 45.1817Z" fill="#F0F7E6"/>
</g>
<g filter="url(#filter15_f)">
<path d="M71.3774 61.7896C73.5318 57.9664 72.5162 55.4525 72.5747 52.1958C73.8494 54.0791 74.9069 60.0119 72.8567 63.2253C70.6033 66.7571 68.7301 71.7239 58.3836 70.4993C65.504 71.3421 69.223 65.6128 71.3774 61.7896Z" fill="#F0F7E6" fill-opacity="0.4"/>
</g>
<g filter="url(#filter16_f)">
<path d="M52.3561 71.6111C56.6178 72.6967 61.1604 72.1301 67.1184 69.2821C65.8676 70.5994 58.6008 75.125 51.587 73.0177C47.5545 71.8062 44.2943 69.6104 41.6501 61.208C43.4698 66.9905 48.0944 70.5256 52.3561 71.6111Z" fill="#F0F7E6" fill-opacity="0.2"/>
</g>
<g filter="url(#filter17_f)">
<path d="M69.535 47.387C71.9209 50.4337 73.1793 53.9013 73.8934 56.4888C74.4514 54.9982 72.5201 48.8146 70.337 46.2528C67.9376 43.4372 65.0621 41.6042 57.6369 42.532C62.7469 41.8935 67.1491 44.3403 69.535 47.387Z" fill="#F0F7E6" fill-opacity="0.6"/>
</g>
<defs>
<filter id="filter0_f" x="22.8187" y="33.915" width="119.146" height="108.589" filterUnits="userSpaceOnUse" color-interpolation-filters="sRGB">
<feFlood flood-opacity="0" result="BackgroundImageFix"/>
<feBlend mode="normal" in="SourceGraphic" in2="BackgroundImageFix" result="shape"/>
<feGaussianBlur stdDeviation="7.5" result="effect1_foregroundBlur"/>
</filter>
<filter id="filter1_f" x="44.326" y="46.0918" width="82.5984" height="79.7797" filterUnits="userSpaceOnUse" color-interpolation-filters="sRGB">
<feFlood flood-opacity="0" result="BackgroundImageFix"/>
<feBlend mode="normal" in="SourceGraphic" in2="BackgroundImageFix" result="shape"/>
<feGaussianBlur stdDeviation="10" result="effect1_foregroundBlur"/>
</filter>
<filter id="filter2_f" x="23.5364" y="23.1357" width="88.2876" height="88.7057" filterUnits="userSpaceOnUse" color-interpolation-filters="sRGB">
<feFlood flood-opacity="0" result="BackgroundImageFix"/>
<feBlend mode="normal" in="SourceGraphic" in2="BackgroundImageFix" result="shape"/>
<feGaussianBlur stdDeviation="2.5" result="effect1_foregroundBlur"/>
</filter>
<filter id="filter3_f" x="26.1179" y="54.5654" width="72.4492" height="47.097" filterUnits="userSpaceOnUse" color-interpolation-filters="sRGB">
<feFlood flood-opacity="0" result="BackgroundImageFix"/>
<feBlend mode="normal" in="SourceGraphic" in2="BackgroundImageFix" result="shape"/>
<feGaussianBlur stdDeviation="2.5" result="effect1_foregroundBlur"/>
</filter>
<filter id="filter4_f" x="9.93188" y="10.3291" width="68.0352" height="77.8374" filterUnits="userSpaceOnUse" color-interpolation-filters="sRGB">
<feFlood flood-opacity="0" result="BackgroundImageFix"/>
<feBlend mode="normal" in="SourceGraphic" in2="BackgroundImageFix" result="shape"/>
<feGaussianBlur stdDeviation="2.5" result="effect1_foregroundBlur"/>
</filter>
<filter id="filter5_f" x="0.106079" y="0.0283203" width="89.9185" height="99.1349" filterUnits="userSpaceOnUse" color-interpolation-filters="sRGB">
<feFlood flood-opacity="0" result="BackgroundImageFix"/>
<feBlend mode="normal" in="SourceGraphic" in2="BackgroundImageFix" result="shape"/>
<feGaussianBlur stdDeviation="7.5" result="effect1_foregroundBlur"/>
</filter>
<filter id="filter6_f" x="16.8785" y="15.4883" width="55.2215" height="62.5996" filterUnits="userSpaceOnUse" color-interpolation-filters="sRGB">
<feFlood flood-opacity="0" result="BackgroundImageFix"/>
<feBlend mode="normal" in="SourceGraphic" in2="BackgroundImageFix" result="shape"/>
<feGaussianBlur stdDeviation="2.5" result="effect1_foregroundBlur"/>
</filter>
<filter id="filter7_f" x="6.7561" y="5.88281" width="120.632" height="119.632" filterUnits="userSpaceOnUse" color-interpolation-filters="sRGB">
<feFlood flood-opacity="0" result="BackgroundImageFix"/>
<feBlend mode="normal" in="SourceGraphic" in2="BackgroundImageFix" result="shape"/>
<feGaussianBlur stdDeviation="15" result="effect1_foregroundBlur"/>
</filter>
<filter id="filter8_f" x="42.8384" y="45.3867" width="65.5587" height="63.9409" filterUnits="userSpaceOnUse" color-interpolation-filters="sRGB">
<feFlood flood-opacity="0" result="BackgroundImageFix"/>
<feBlend mode="normal" in="SourceGraphic" in2="BackgroundImageFix" result="shape"/>
<feGaussianBlur stdDeviation="1.5" result="effect1_foregroundBlur"/>
</filter>
<filter id="filter9_f" x="68.6226" y="32.2646" width="20.3348" height="24.9542" filterUnits="userSpaceOnUse" color-interpolation-filters="sRGB">
<feFlood flood-opacity="0" result="BackgroundImageFix"/>
<feBlend mode="normal" in="SourceGraphic" in2="BackgroundImageFix" result="shape"/>
<feGaussianBlur stdDeviation="0.5" result="effect1_foregroundBlur"/>
</filter>
<filter id="filter10_f" x="79.0005" y="57.3516" width="6.59978" height="10.2712" filterUnits="userSpaceOnUse" color-interpolation-filters="sRGB">
<feFlood flood-opacity="0" result="BackgroundImageFix"/>
<feBlend mode="normal" in="SourceGraphic" in2="BackgroundImageFix" result="shape"/>
<feGaussianBlur stdDeviation="0.5" result="effect1_foregroundBlur"/>
</filter>
<filter id="filter11_f" x="58.3345" y="31.2891" width="10.4343" height="4.05049" filterUnits="userSpaceOnUse" color-interpolation-filters="sRGB">
<feFlood flood-opacity="0" result="BackgroundImageFix"/>
<feBlend mode="normal" in="SourceGraphic" in2="BackgroundImageFix" result="shape"/>
<feGaussianBlur stdDeviation="0.5" result="effect1_foregroundBlur"/>
</filter>
<filter id="filter12_f" x="71.9187" y="69.0859" width="7.40382" height="6.31586" filterUnits="userSpaceOnUse" color-interpolation-filters="sRGB">
<feFlood flood-opacity="0" result="BackgroundImageFix"/>
<feBlend mode="normal" in="SourceGraphic" in2="BackgroundImageFix" result="shape"/>
<feGaussianBlur stdDeviation="0.5" result="effect1_foregroundBlur"/>
</filter>
<filter id="filter13_f" x="26.5806" y="51.0176" width="11.2336" height="19.6945" filterUnits="userSpaceOnUse" color-interpolation-filters="sRGB">
<feFlood flood-opacity="0" result="BackgroundImageFix"/>
<feBlend mode="normal" in="SourceGraphic" in2="BackgroundImageFix" result="shape"/>
<feGaussianBlur stdDeviation="1" result="effect1_foregroundBlur"/>
</filter>
<filter id="filter14_f" x="28.4729" y="35.3467" width="15.8128" height="19.2797" filterUnits="userSpaceOnUse" color-interpolation-filters="sRGB">
<feFlood flood-opacity="0" result="BackgroundImageFix"/>
<feBlend mode="normal" in="SourceGraphic" in2="BackgroundImageFix" result="shape"/>
<feGaussianBlur stdDeviation="0.75" result="effect1_foregroundBlur"/>
</filter>
<filter id="filter15_f" x="55.3835" y="49.1953" width="21.6269" height="24.4933" filterUnits="userSpaceOnUse" color-interpolation-filters="sRGB">
<feFlood flood-opacity="0" result="BackgroundImageFix"/>
<feBlend mode="normal" in="SourceGraphic" in2="BackgroundImageFix" result="shape"/>
<feGaussianBlur stdDeviation="1.5" result="effect1_foregroundBlur"/>
</filter>
<filter id="filter16_f" x="40.6501" y="60.208" width="27.4683" height="14.3606" filterUnits="userSpaceOnUse" color-interpolation-filters="sRGB">
<feFlood flood-opacity="0" result="BackgroundImageFix"/>
<feBlend mode="normal" in="SourceGraphic" in2="BackgroundImageFix" result="shape"/>
<feGaussianBlur stdDeviation="0.5" result="effect1_foregroundBlur"/>
</filter>
<filter id="filter17_f" x="55.637" y="40.2891" width="20.3537" height="18.1999" filterUnits="userSpaceOnUse" color-interpolation-filters="sRGB">
<feFlood flood-opacity="0" result="BackgroundImageFix"/>
<feBlend mode="normal" in="SourceGraphic" in2="BackgroundImageFix" result="shape"/>
<feGaussianBlur stdDeviation="1" result="effect1_foregroundBlur"/>
</filter>
</defs>
</svg>
