<svg width="32" height="32" viewBox="0 0 32 32" fill="none" xmlns="http://www.w3.org/2000/svg">
<path fill-rule="evenodd" clip-rule="evenodd" d="M2.50942 0.965644L2.95889 1.32299L1.48272 2.93903L1.03325 2.58168L2.50942 0.965644ZM1.72666 0.34332C2.09914 -0.0644517 2.75154 -0.116392 3.18385 0.227308L3.63332 0.584657C4.02359 0.894933 4.10107 1.42157 3.83841 1.82107C3.97093 1.85772 4.09739 1.92011 4.20914 2.00893L7.75866 4.83011C7.85828 4.9093 7.93753 5.00258 7.99594 5.10424L8.7319 4.29879C9.10444 3.89107 9.75693 3.83912 10.1893 4.18276L19.3029 11.4263C19.4343 11.5308 19.5303 11.6598 19.5897 11.8002C19.8833 11.855 20.1527 12.033 20.302 12.3231L21.2073 14.0819C21.2414 14.1482 21.2672 14.2171 21.2847 14.2873C21.4892 14.3011 21.6908 14.3742 21.8597 14.509L22.6837 15.1664C23.1236 15.5175 23.174 16.1503 22.7952 16.5666L21.0756 18.4562C20.7123 18.8554 20.0873 18.9072 19.6631 18.5734L18.8237 17.9128C18.6755 17.7963 18.5709 17.6479 18.5113 17.4864C18.4297 17.4858 18.3475 17.4758 18.2664 17.4558L16.2527 16.9593C15.9264 16.8788 15.6907 16.6632 15.5741 16.3999C15.357 16.3895 15.1424 16.3151 14.9648 16.174L11.3564 13.306C10.9178 13.815 10.2448 14.1407 9.49016 14.1407C9.4805 14.1407 9.47086 14.1407 9.46123 14.1406C8.71155 15.1649 8.30533 16.4513 8.40054 17.8189C8.60444 20.7477 11.0331 22.9753 13.9047 22.9673C14.7073 21.9384 17.6622 21.727 19.3491 22.3331C19.42 22.1926 19.5286 22.0671 19.6726 21.9707L28.6275 15.9804C29.0865 15.6733 29.7316 15.7793 30.0682 16.2171L30.6779 17.0098C31.0145 17.4476 30.9153 18.0514 30.4563 18.3585L21.5014 24.3488C21.2166 24.5393 20.8602 24.5709 20.5503 24.4628V28.9961H25.4233C25.9756 28.9961 26.4233 29.4438 26.4233 29.9961V30.9961C26.4233 31.5484 25.9756 31.9961 25.4233 31.9961H9.80456C9.25228 31.9961 8.80456 31.5484 8.80456 30.9961V29.9961C8.80456 29.4438 9.25228 28.9961 9.80456 28.9961H13.6986V26.0369C9.25953 25.9709 5.55873 22.6915 5.25952 18.3934C5.10771 16.2128 5.85896 14.1651 7.20867 12.5845C7.13616 12.3713 7.09704 12.1443 7.09704 11.9087C7.09704 11.3327 7.33097 10.8077 7.71506 10.4118L5.85127 8.93043C5.41891 8.58679 5.37042 7.97769 5.74296 7.56997L6.28722 6.97432C6.17034 6.93665 6.05902 6.87847 5.95939 6.79929L2.40988 3.97811C2.29844 3.88953 2.2125 3.78332 2.1527 3.66748C1.77156 3.97541 1.19971 3.98855 0.808291 3.67736L0.358818 3.32001C-0.073488 2.97631 -0.121987 2.36713 0.250492 1.95935L1.72666 0.34332ZM7.7768 13.467C6.71002 14.8261 6.13226 16.5306 6.25689 18.3209C6.51651 22.0503 9.74203 24.9708 13.6986 25.0367V23.9649C10.3938 23.8706 7.63868 21.2744 7.40317 17.8914C7.30156 16.4317 7.68458 15.0492 8.41469 13.9032C8.17652 13.7912 7.96115 13.6433 7.7768 13.467ZM14.6986 23.9172L14.6986 26.8775L14.6986 28.9961H19.5503L19.5503 26.8776L19.5503 23.5777C19.5222 23.538 19.4215 23.4368 19.1073 23.3108C18.62 23.1152 17.8999 22.9961 17.1246 22.9961C16.44 22.9961 15.7984 23.089 15.3221 23.2453C15.0825 23.4452 14.8759 23.6764 14.7108 23.9156C14.7067 23.9162 14.7026 23.9167 14.6986 23.9172ZM19.4045 12.794L17.946 14.3903L16.5112 16.0091L18.525 16.5057L20.2937 14.5215L19.4045 12.794ZM9.51474 4.921L18.602 12.1436L17.1325 13.8016L15.6394 15.4357L11.8243 12.4035C11.8629 12.2443 11.8833 12.0788 11.8833 11.9087C11.8833 10.676 10.8118 9.67676 9.49016 9.67676C9.1741 9.67676 8.87236 9.7339 8.59615 9.83771L6.52581 8.19219L9.51474 4.921ZM7.08412 5.56835L3.5346 2.74717L3.08441 3.23987L6.63393 6.06105L7.08412 5.56835ZM10.8833 11.9087C10.8833 12.5246 10.3264 13.1407 9.49016 13.1407C8.65396 13.1407 8.09704 12.5246 8.09704 11.9087C8.09704 11.2928 8.65396 10.6768 9.49016 10.6768C10.3264 10.6768 10.8833 11.2928 10.8833 11.9087ZM20.2822 22.7634L29.2371 16.7731L29.8467 17.5658L20.8918 23.5561L20.5301 23.0858C20.5355 23.0798 20.5408 23.0739 20.5461 23.0679L20.5152 23.0664L20.2822 22.7634ZM19.5598 23.5959C19.5593 23.596 19.5572 23.5926 19.5551 23.585C19.5593 23.592 19.5604 23.5958 19.5598 23.5959ZM20.5504 26.9126C22.7376 26.9126 23.8974 26.8341 24.6905 26.6621C25.3195 26.5257 25.7265 26.3243 26.1756 26.1021L26.1757 26.1021C26.2657 26.0575 26.3575 26.0121 26.4531 25.9663L26.5413 26.081C26.8779 26.5188 27.523 26.6247 27.982 26.3176L31.5789 23.9116C32.0379 23.6045 32.1371 23.0007 31.8004 22.5629L31.2055 21.7892C30.8688 21.3515 30.2238 21.2455 29.7647 21.5526L26.1679 23.9586C25.7623 24.23 25.6376 24.7331 25.8464 25.1485L25.7433 25.1991L25.6791 25.2308L25.679 25.2308C25.2578 25.4385 24.9779 25.5765 24.4785 25.6848C23.8016 25.8317 22.7392 25.9126 20.5504 25.9126V26.9126ZM25.4233 29.9961H20.5503H13.6986H9.80456V30.9961H25.4233V29.9961ZM30.3743 22.3453L26.7775 24.7513L27.3724 25.5249L30.9692 23.1189L30.3743 22.3453ZM21.2066 15.2656L22.0305 15.923L20.3109 17.8126L19.4716 17.1521L21.2066 15.2656Z" fill="#5A8B23"/>
</svg>
