<svg width="32" height="32" viewBox="0 0 32 32" fill="none" xmlns="http://www.w3.org/2000/svg">
<rect x="0.5" y="0.5" width="12.3334" height="31" rx="1.5" stroke="#5A8B23"/>
<rect x="3.1665" y="15.167" width="7.00004" height="12.3333" rx="1.5" stroke="#5A8B23"/>
<path d="M19.5001 31L31.5002 22M0.5 9L12.5001 1" stroke="#5A8B23"/>
<path d="M22.6665 4.83301C22.3904 4.83301 22.1665 5.05687 22.1665 5.33301C22.1665 5.60915 22.3904 5.83301 22.6665 5.83301V4.83301ZM27.9999 5.83301C28.276 5.83301 28.4999 5.60915 28.4999 5.33301C28.4999 5.05687 28.276 4.83301 27.9999 4.83301V5.83301ZM22.6665 5.83301L27.9999 5.83301V4.83301L22.6665 4.83301V5.83301Z" fill="#5A8B23"/>
<path d="M22.6665 7.5C22.3904 7.5 22.1665 7.72386 22.1665 8C22.1665 8.27614 22.3904 8.5 22.6665 8.5V7.5ZM27.9999 8.5C28.276 8.5 28.4999 8.27614 28.4999 8C28.4999 7.72386 28.276 7.5 27.9999 7.5V8.5ZM22.6665 8.5H27.9999V7.5H22.6665V8.5Z" fill="#5A8B23"/>
<rect x="19.1665" y="0.5" width="12.3334" height="31" rx="1.5" stroke="#5A8B23"/>
<path d="M19 22H31.0001" stroke="#5A8B23"/>
<path d="M0.709961 9.33301H12.7648" stroke="#5A8B23"/>
<path d="M7.50018 22.6663C7.50018 23.1266 7.12708 23.4997 6.66684 23.4997C6.20659 23.4997 5.8335 23.1266 5.8335 22.6663C5.8335 22.2061 6.20659 21.833 6.66684 21.833C7.12708 21.833 7.50018 22.2061 7.50018 22.6663Z" stroke="#5A8B23"/>
<path d="M8 22.667H14C16.9282 22.6668 16.6667 19.6807 16.6667 17.9741C16.6667 14.1335 24.1047 14.9877 26.6668 14.9876M26.6668 14.9876L24.1047 12.667M26.6668 14.9876L24.1047 17.3337" stroke="#5A8B23" stroke-linecap="round"/>
</svg>
