<svg width="33" height="33" viewBox="0 0 33 33" fill="none" xmlns="http://www.w3.org/2000/svg">
<path d="M5.30859 7.54102C5.03245 7.54102 4.80859 7.76487 4.80859 8.04102C4.80859 8.31716 5.03245 8.54102 5.30859 8.54102V7.54102ZM10.7879 8.54102C11.0641 8.54102 11.2879 8.31716 11.2879 8.04102C11.2879 7.76487 11.0641 7.54102 10.7879 7.54102V8.54102ZM5.30859 8.54102H10.7879V7.54102H5.30859V8.54102Z" fill="#5A8B23"/>
<path d="M6.67773 10.2207C6.40159 10.2207 6.17773 10.4446 6.17773 10.7207C6.17773 10.9968 6.40159 11.2207 6.67773 11.2207V10.2207ZM10.7872 11.2207C11.0634 11.2207 11.2872 10.9968 11.2872 10.7207C11.2872 10.4446 11.0634 10.2207 10.7872 10.2207V11.2207ZM6.67773 11.2207H10.7872V10.2207H6.67773V11.2207Z" fill="#5A8B23"/>
<path d="M5.30859 12.9023C5.03245 12.9023 4.80859 13.1262 4.80859 13.4023C4.80859 13.6785 5.03245 13.9023 5.30859 13.9023V12.9023ZM12.1578 13.9023C12.4339 13.9023 12.6578 13.6785 12.6578 13.4023C12.6578 13.1262 12.4339 12.9023 12.1578 12.9023V13.9023ZM5.30859 13.9023H12.1578V12.9023H5.30859V13.9023Z" fill="#5A8B23"/>
<path fill-rule="evenodd" clip-rule="evenodd" d="M20.6409 16.8824C15.9426 16.8824 12.2236 13.2788 12.2236 8.94122C12.2236 4.60365 15.9426 1 20.6409 1C25.3391 1 29.0581 4.60365 29.0581 8.94122C29.0581 13.2788 25.3391 16.8824 20.6409 16.8824ZM20.6409 17.8824C15.4399 17.8824 11.2236 13.8793 11.2236 8.94122C11.2236 4.00312 15.4399 0 20.6409 0C25.8418 0 30.0581 4.00312 30.0581 8.94122C30.0581 12.0392 28.3986 14.7692 25.8776 16.3736C26.5222 16.4078 27.141 16.756 27.4804 17.3439L32.0086 25.1868C32.5243 26.0801 32.1998 27.1885 31.2837 27.6626C30.3676 28.1366 29.2069 27.7968 28.6911 26.9035L24.163 19.0606C23.8167 18.4609 23.8493 17.7641 24.1853 17.2275C23.0912 17.6498 21.8946 17.8824 20.6409 17.8824ZM20.6406 14.3977C17.3871 14.3977 14.8393 11.906 14.8393 8.9401C14.8393 5.97422 17.3871 3.48256 20.6406 3.48256C23.8941 3.48256 26.4419 5.97422 26.4419 8.9401C26.4419 11.906 23.8941 14.3977 20.6406 14.3977ZM20.6406 15.3977C16.8843 15.3977 13.8393 12.5065 13.8393 8.9401C13.8393 5.3737 16.8843 2.48256 20.6406 2.48256C24.3968 2.48256 27.4419 5.3737 27.4419 8.9401C27.4419 12.5065 24.3968 15.3977 20.6406 15.3977ZM31.1204 25.6464L26.5923 17.8035C26.3527 17.3885 25.8135 17.2306 25.3879 17.4509C24.9623 17.6711 24.8115 18.186 25.0511 18.601L29.5793 26.4439C29.8189 26.8589 30.3581 27.0168 30.7837 26.7966C31.2092 26.5763 31.36 26.0614 31.1204 25.6464Z" fill="#5A8B23"/>
<path fill-rule="evenodd" clip-rule="evenodd" d="M21.9343 17.337V29.5042C21.9343 30.8849 20.815 32.0042 19.4343 32.0042H2.75C1.36929 32.0042 0.25 30.8849 0.25 29.5042V5.97949C0.25 4.59878 1.36929 3.47949 2.75 3.47949H13.6429C13.3959 3.787 13.1904 4.12234 13.0204 4.47949H2.75C1.92157 4.47949 1.25 5.15106 1.25 5.97949V29.5042C1.25 30.3326 1.92157 31.0042 2.75 31.0042H19.4343C20.2627 31.0042 20.9343 30.3326 20.9343 29.5042V17.4165C21.2825 17.4213 21.6157 17.3937 21.9343 17.337Z" fill="#5A8B23"/>
<rect x="4.43799" y="20.6025" width="3.10953" height="7.04102" rx="0.5" stroke="#5A8B23"/>
<rect x="9.91699" y="16.582" width="3.10953" height="11.0615" rx="0.5" stroke="#5A8B23"/>
<rect x="15.3965" y="17.9219" width="3.10953" height="9.72136" rx="0.5" stroke="#5A8B23"/>
</svg>
