<svg width="176" height="200" viewBox="0 0 176 200" fill="none" xmlns="http://www.w3.org/2000/svg">
<path fill-rule="evenodd" clip-rule="evenodd" d="M13.5386 153.439C15.5899 144.456 19.6755 138.678 30.7288 138.043C38.9941 137.567 43.9 151.399 42.1786 163.636C41.4489 168.823 37.9725 174.173 33.585 178.522C25.7191 171.525 18.9276 163.04 13.5386 153.439ZM148.472 172.15C139.908 181.42 129.702 188.749 118.401 193.515C114.623 185.088 112.753 171.748 113.894 163.636C114.001 162.871 114.105 162.107 114.208 161.35C115.751 149.996 117.113 139.97 128.883 144.511C141.835 149.509 147.862 161.272 148.472 172.15Z" fill="#CDE4A9"/>
<path fill-rule="evenodd" clip-rule="evenodd" d="M26.6863 171.704L27.8277 166.419L30.2453 137.563C32.824 136.071 39.3354 133.683 44.7508 136.071L122.113 139.056L135.168 147.513C133.892 147.326 132.767 146.827 131.674 146.342C129.868 145.542 128.15 144.78 125.982 145.523C123.114 146.671 122.136 149.439 120.246 154.787L120.179 154.976C120.06 155.541 119.754 156.374 119.358 157.452C117.212 163.287 112.431 176.291 120.433 192.626C110.338 197.212 99.3199 199.734 87.7837 199.734C64.0519 199.734 42.5141 189.059 26.6863 171.704Z" fill="#568225"/>
<path d="M53.9375 65.4071C48.9089 64.6111 42.9777 62.9195 45.2341 55.9542C46.7814 51.1781 48.4576 50.979 49.1023 51.4766C49.1023 45.9046 52.3257 40.1998 53.9374 38.0439C53.9374 34.4618 62.3184 30.9129 66.5089 29.5862C81.0144 24.1125 93.1023 28.392 96.9704 29.5862C104.707 31.9742 105.351 34.2296 104.707 35.0588C112.443 35.0588 112.443 42.3557 111.476 46.0041C127.335 52.3723 124.853 64.9096 121.63 70.3822C123.564 75.9543 117.923 80.0008 114.861 81.3275C116.408 85.3076 114.216 87.2976 112.926 87.7951C116.021 90.5812 114.861 96.5845 113.893 99.2379C113.12 102.024 110.025 101.062 108.575 100.233C106.641 101.029 107.124 103.218 107.608 104.213C108.768 105.407 110.67 104.711 111.476 104.213C109.155 109.387 102.128 106.037 98.9045 103.716L97.5085 93.6603C97.1252 93.361 94.8871 89.081 96.487 87.2976C97.6474 84.5116 97.454 82.9859 96.0034 81.3275L53.9375 65.4071Z" fill="#5A8B23"/>
<path d="M53.9375 65.4071C48.9089 64.6111 42.9777 62.9195 45.2341 55.9542C46.7814 51.1781 48.4576 50.979 49.1023 51.4766C49.1023 45.9046 52.3257 40.1998 53.9374 38.0439C53.9374 34.4618 62.3184 30.9129 66.5089 29.5862C81.0144 24.1125 93.1023 28.392 96.9704 29.5862C104.707 31.9742 105.351 34.2296 104.707 35.0588C112.443 35.0588 112.443 42.3557 111.476 46.0041C127.335 52.3723 124.853 64.9096 121.63 70.3822C123.564 75.9543 117.923 80.0008 114.861 81.3275C116.408 85.3076 114.216 87.2976 112.926 87.7951C116.021 90.5812 114.861 96.5845 113.893 99.2379C113.12 102.024 110.025 101.062 108.575 100.233C106.641 101.029 107.124 103.218 107.608 104.213C108.768 105.407 110.67 104.711 111.476 104.213C109.155 109.387 102.128 106.037 98.9045 103.716L97.454 93.2678C98.2276 95.2578 94.5529 89.4535 96.487 87.2976C97.6474 84.5116 97.454 82.9859 96.0034 81.3275L53.9375 65.4071Z" stroke="#5A8B23"/>
<path d="M58.7727 126.6C61.3514 124.278 65.832 117.844 63.1243 110.68L97.9375 100.232C96.6482 105.373 95.4232 117.545 100.839 125.108C102.45 128.756 104.622 136.612 117 139C107.854 145.462 106 157.612 93.9999 163C85.1355 166.98 67.0032 167.078 63.4999 166C56.9999 164 42.8167 161.716 42.8167 145V136.053L58.7727 126.6Z" fill="#CDE4A9"/>
<path d="M45.7178 84.3116C46.0401 86.3016 45.2343 94.2618 55.3881 93.7643L53.9376 79.834C53.6152 80.9948 47.265 87.4957 45.7178 84.3116Z" fill="#5A8B23"/>
<g filter="url(#filter0_d)">
<path d="M102.289 77.3858C102.289 96.092 92.2362 117.147 76.9398 117.147C61.6434 117.147 53.9375 96.092 53.9375 77.3858C53.9375 58.6795 61.6434 43.5151 76.9398 43.5151C102.289 43.5151 102.289 58.6795 102.289 77.3858Z" fill="#CDE4A9"/>
</g>
<path d="M102.773 69.8833C101.483 70.2149 97.8408 70.9778 95.5199 69.3857L96.9704 73.3658C98.2598 72.5367 101.225 71.0773 102.773 71.8733V69.8833Z" fill="#5A8B23"/>
<path d="M45.2343 72.3711C45.5566 74.3611 49.5859 80.8288 54.9046 80.3313L52.9705 74.3611C52.6482 75.522 46.7815 75.5552 45.2343 72.3711Z" fill="#5A8B23"/>
<path d="M71.4145 69.05C72.7948 68.391 77.1465 67.8937 79.1508 69.05C81.155 70.2062 79.5603 71.693 79.1508 71.04C78.1134 69.386 73.2782 69.386 71.4145 71.04C69.5507 72.6941 70.0342 69.709 71.4145 69.05Z" fill="#5A8B23"/>
<path d="M71.9257 75.4147C70.0764 81.8237 68.3925 84.8088 62.9219 84.8088C57.4514 84.8088 53.0167 80.6029 53.0167 75.4147C52.434 64.1425 57.4514 66.0206 62.9219 66.0206C68.443 66.4008 73.8212 66.0206 71.9257 75.4147Z" fill="#5A8B23"/>
<path d="M70.4154 75.5288C69.41 81.3264 66.7353 82.9915 62.1956 82.9915C57.656 82.9915 53.9759 79.6503 53.9759 75.5288C53.4923 66.5741 57.656 67.9728 62.1956 67.9728C70.4154 68.9678 70.8989 68.0661 70.4154 75.5288Z" fill="#5A8B23"/>
<path d="M97.0686 76.4098C95.2193 82.8188 92.7707 85.8039 87.3002 85.8039C81.8297 85.8039 78.1596 81.598 78.1596 76.4098C77.577 65.1377 82.5944 67.0158 88.0649 67.0158C93.5859 67.3959 98.9641 67.0158 97.0686 76.4098Z" fill="#5A8B23"/>
<path d="M95.5584 76.5239C94.553 82.3215 91.8782 83.9866 87.3386 83.9866C82.7989 83.9866 79.1188 80.6454 79.1188 76.5239C78.6353 67.5693 82.7989 68.9679 87.3386 68.9679C95.5584 69.9629 96.0419 69.0612 95.5584 76.5239Z" fill="#5A8B23"/>
<path d="M175 100C175 154.8 135.932 199 88 199C40.0675 199 1 154.8 1 100C1 45.1999 40.0675 1 88 1C135.932 1 175 45.1999 175 100Z" stroke="#5A8B23" stroke-width="2"/>
<defs>
<filter id="filter0_d" x="43.9375" y="38.5151" width="68.3517" height="93.6318" filterUnits="userSpaceOnUse" color-interpolation-filters="sRGB">
<feFlood flood-opacity="0" result="BackgroundImageFix"/>
<feColorMatrix in="SourceAlpha" type="matrix" values="0 0 0 0 0 0 0 0 0 0 0 0 0 0 0 0 0 0 127 0"/>
<feOffset dy="5"/>
<feGaussianBlur stdDeviation="5"/>
<feColorMatrix type="matrix" values="0 0 0 0 0.2 0 0 0 0 0.2 0 0 0 0 0.2 0 0 0 0.3 0"/>
<feBlend mode="normal" in2="BackgroundImageFix" result="effect1_dropShadow"/>
<feBlend mode="normal" in="SourceGraphic" in2="effect1_dropShadow" result="shape"/>
</filter>
</defs>
</svg>
