<svg xmlns="http://www.w3.org/2000/svg" viewBox="0 0 443.9 120.53"><defs><style>.cls-1{fill:#00bea3;}</style></defs><g id="Layer_2" data-name="Layer 2"><g id="Layer_1-2" data-name="Layer 1"><path class="cls-1" d="M443.69,4.32Q444.86-1,439.57.21H149.27a1.84,1.84,0,0,1-.06.93h0l-1.28,1h0L147.1,3c-2.19,2-1.41,4.72-1.57,7.19-.53,8.29,1.06,16.65-.87,24.89h0c-1.81,1.75-3.22,4-5,5.6-4.91,4.37-8.06,10.44-13.8,13.92,0-10.57-.15-21.15.14-31.71.1-4.05-2.11-3.94-4.82-3.79-2.36.14-5.17-1-5.13,3.42q.26,28.38,0,56.77c0,3.89,2.21,3.55,4.59,3.35,2.22-.18,5.49,1.34,5.3-3.19-.22-5.1-.17-10.21-.23-15.32h0c2.19-.49,2.85,1.49,3.92,2.6,5,5.17,9.88,10.45,14.8,15.68,1.28,1.82,1.07,3.9,1.07,5.94,0,7.69,0,15.39,0,23.08,0,2.17-.39,4.5,1.56,6.2h0l.83.79,1.28,1h0a1.84,1.84,0,0,1,.06.93h77.21l0-1.06h0a1,1,0,0,0,0-1c.07-11.69.1-23.39.25-35.09,0-1.76-.78-3.74.81-5.3h0a15.75,15.75,0,0,0,9.37,5.23,27.54,27.54,0,0,0,10.16.05c10.53-2.21,15.95-9,17.38-19.34V56.73h0c-1.16-10.58-8-16.13-17.37-19.35a23.15,23.15,0,0,0-9.16-.06c-4.63,0-7,4.16-10.55,6-1.7-1.58.23-4-1.85-5.17-2.8.09-5.89-2.09-8.31,1h0c-.08,21.81-.25,43.62-.16,65.43,0,3.88-.83,5.28-5.07,5.23-18.45-.25-36.92-.12-55.38-.12h0l-.93-.77c0-7.67.05-15.35-.13-23-.05-2.24,1.08-4.76-1-6.76-1.71-1.57-3.51-3-5.1-4.74-3.66-3.88-7-8.14-10.89-11.71-2.69-2.45-2.81-4-.38-6.58,5.55-5.86,10.88-11.94,16.29-17.93,1.78-1.24,1.06-3.11,1.07-4.71.09-7.34.05-14.68.06-22h0l1-.86,275.8,0,.9.85L433.13,109h0a1,1,0,0,0-.69.12l-186.5,0c-11.37,0-11.37,0-11.23,11.28H439.57c3.52.77,4.9-.59,4.12-4.11ZM237.89,46.46h0l6.89.09c6.25,2.39,9.87,6.63,9.84,13.59s-3.4,11.27-9.68,13.68h0l-5.08.41-5.08-1.43c-4.72-1.19-5.16-5.77-7.19-9.08,0-2.33,0-4.65,0-7A16,16,0,0,1,237.89,46.46Zm-12.45,71.79h0Zm-7.2-79,.35,0a4.29,4.29,0,0,0-.35.28Z"/><path class="cls-1" d="M195.52,75.11l-8,0c-3.12-1.4-6.85-2.15-9.23-4.36-3.32-3.06-3.68.2-4.89,1.52-1.54,1.69-3.34,3.32-.31,5.69,7.67,6,16.22,7.49,25.45,5.35,5.12-1.19,9.58-3.65,11.31-9.2a11.44,11.44,0,0,0,.06-9.14c-2.31-6.91-8.31-8-14.34-9.05l-5.89-.38h0c-.45-.24-.89-.68-1.33-.69-3.18-.08-5.84-1.34-5.8-4.67.05-3.58,3.14-4.48,6.22-4.76,5.27-.49,10.28.09,14.35,3.87,6.39-6.88,6-8.32-3.11-11.37-.45-.15-.9-.33-1.35-.5a28.73,28.73,0,0,0-14.27,0c-5.08,1.34-9.48,3.52-11.14,9a14.25,14.25,0,0,0,.06,8h0c3,6.47,8.75,8.35,15.18,9.13l4.91.33c2.6,1.5,6.69,1,7.28,5.17C201.17,73,197.79,73.59,195.52,75.11Z"/><path class="cls-1" d="M354.85,48c3.77,2.76,4.83.69,6.91-2.12,2.72-3.66-.58-4.72-2.14-6.12s-3.67-1.6-5.55-2.34a25.06,25.06,0,0,0-12.23,0C331.29,40,325.37,47,324.34,58c-1,10.17,3.88,19.45,12.26,23.48,9.67,4.67,20.38,2.78,28.37-5-5.56-6.12-5.56-6.12-12.61-2.72a1.75,1.75,0,0,0-.38.34l-8,0-2.23-1.16c-7.13-3.62-9.37-12.42-5.54-20.13C339.62,45.88,350.18,44.55,354.85,48Z"/><path class="cls-1" d="M317,37.76c-4.57-1.85-8.34.5-8.69,5.49h0c-3.57-1.46-5.45-5.76-9.84-5.84a26,26,0,0,0-11.17,0c-8.67,2.18-14,7.7-16.29,16.23a34,34,0,0,0,0,13.19c2,8.81,7.27,14.42,16.26,16.34a23.65,23.65,0,0,0,11.19-.09c4.17-.57,6.78-3.82,10.1-5.83a13,13,0,0,1,0,1.53c-.55,4.94,3.06,3.55,5.72,3.88,3.3.4,4-1,3.94-4.06-.16-12.46,0-24.92-.11-37.38C318.11,40.06,318.89,38.52,317,37.76Zm-10.09,28.4c-2.3,5.81-6.17,8.29-13.1,8.24-6.59,0-10.86-2.27-12.46-8a21.65,21.65,0,0,0-1.18-2.78h0l0-6.72c2-6.18,6.19-9.88,12.48-11.33h0l2.59,0h0C306.3,49,310.67,56.66,306.91,66.16Z"/><path class="cls-1" d="M28.75,73.62l-7.12.54-2.08-2.09c-1.4-7.84-.15-15.78-.93-23.65h0l0-1.51c3.16-.93,6.41-.58,9.58-.38,3.32.21,3.85-1.12,3.9-4.06.06-3.32-.55-5.08-4.36-4.64a78.25,78.25,0,0,1-8.11.13c-.88-5.24-.35-10.52-.37-15.78,0-4.47-3.19-3-5.42-3.12s-4.94-.87-4.76,3.19C9.27,27.16,9,32.1,9,37H9l-9,.14v9.24l1.12-.09,7.94.28Q9.24,58.79,9.43,71C11.26,83.25,23.1,85.26,31.64,82.07c1.29-.48,2.77-1.25,1.45-2.84C31.57,77.41,33.64,72.79,28.75,73.62Z"/><path class="cls-1" d="M105.79,22.33c0-4.89-3.47-3-5.78-3.29-2.58-.35-4.53-.18-4.43,3.53.25,9.2.08,18.41.08,27.62,0,9.54.22,19.1-.1,28.64-.13,4,1.94,4,4.7,3.82,2.43-.21,5.6,1.24,5.55-3.54C105.65,60.19,105.69,41.26,105.79,22.33Z"/><path class="cls-1" d="M398.31,37.45a27.87,27.87,0,0,0-14.25,0q-13.95,4-16.33,18.27a29.61,29.61,0,0,0,0,9.11c1.9,10.3,7.88,16.57,18.33,18.4a31.57,31.57,0,0,0,11.22-.06,20.62,20.62,0,0,0,13.39-7.26c-1.31-1.08-3-1.82-3.52-3-1.37-3.1-2.67-3.07-5.3-1.19-3.21,2.29-6.75,3.6-11.12,2.77-8.12-1.54-11.36-1.51-12.9-10.35l34.9-.38C416.47,55.47,410.53,40.28,398.31,37.45ZM377.87,55.31c1.26-5,4.64-7.88,9.27-9.62,2.62-1.44,5.28-1.09,8-.18,4.64,1.83,8.67,4.17,8.43,10.07Z"/><path class="cls-1" d="M84,37.64c-4.38-1.52-8.16.41-9.28,5.09-3.11-1.59-5.08-5-8.89-5.3a26.83,26.83,0,0,0-11.18,0c-8.46,1.86-13.91,6.91-16.26,15.25-.14,1.25-.29,2.49-.43,3.73h0a9.5,9.5,0,0,0,0,7.76l.42,3.75C40.67,76.26,46,81.51,54.6,83.21a21.75,21.75,0,0,0,10.21,0c4.15-.34,7-3.16,10.13-5.66a9.74,9.74,0,0,1,.47,1.69c.4,5.64,4.73,2.94,7.42,3.32,3.5.5,2.55-2.39,2.56-4.2q.09-18.44,0-36.88C85.37,40.15,86.2,38.42,84,37.64Zm-9,27C70.6,73,65.61,76.38,57.36,74.56c-4.6-1-8-5-9.69-9.74h0c-.05-3-.11-5.95-.16-8.93,1.9-6.13,6.5-9,12.44-10.35h0l2.59,0c6,1.2,10.42,4.38,12.48,10.35h0Z"/></g></g></svg>