<svg width="32" height="32" viewBox="0 0 32 32" fill="none" xmlns="http://www.w3.org/2000/svg">
<path d="M17.3335 23.4997C17.0574 23.4997 16.8335 23.7235 16.8335 23.9997C16.8335 24.2758 17.0574 24.4997 17.3335 24.4997V23.4997ZM24.4446 24.4997C24.7207 24.4997 24.9446 24.2758 24.9446 23.9997C24.9446 23.7235 24.7207 23.4997 24.4446 23.4997V24.4997ZM17.3335 20.833C17.0574 20.833 16.8335 21.0569 16.8335 21.333C16.8335 21.6092 17.0574 21.833 17.3335 21.833V20.833ZM28.0002 21.833C28.2763 21.833 28.5002 21.6092 28.5002 21.333C28.5002 21.0569 28.2763 20.833 28.0002 20.833V21.833ZM17.3335 24.4997H24.4446V23.4997H17.3335V24.4997ZM17.3335 21.833H28.0002V20.833H17.3335V21.833Z" fill="#5A8B23"/>
<path d="M0.5 4H31.25" stroke="#5A8B23"/>
<rect x="0.5" y="0.5" width="31" height="31" rx="1.5" stroke="#5A8B23"/>
<path fill-rule="evenodd" clip-rule="evenodd" d="M6 7.66699H12.6667C12.8502 7.66699 13.0221 7.71641 13.1699 7.80267L5.01502 24.8406C5.00515 24.7842 5 24.7262 5 24.667V8.66699C5 8.11471 5.44772 7.66699 6 7.66699ZM5.20278 25.2708C5.38539 25.5115 5.67454 25.667 6 25.667H12.6667C13.219 25.667 13.6667 25.2193 13.6667 24.667V9.08109L5.7845 25.5492L5.20278 25.2708ZM4 8.66699C4 7.56242 4.89543 6.66699 6 6.66699H12.6667C13.7712 6.66699 14.6667 7.56242 14.6667 8.66699V24.667C14.6667 25.7716 13.7712 26.667 12.6667 26.667H6C4.89543 26.667 4 25.7716 4 24.667V8.66699Z" fill="#5A8B23"/>
<path fill-rule="evenodd" clip-rule="evenodd" d="M19.3335 7.66699H26.0002C26.1332 7.66699 26.2602 7.69298 26.3764 7.74016L18.3399 16.7811C18.3357 16.7437 18.3335 16.7056 18.3335 16.667V8.66699C18.3335 8.11471 18.7812 7.66699 19.3335 7.66699ZM18.956 17.5933C19.0725 17.6408 19.1999 17.667 19.3335 17.667H26.0002C26.5524 17.667 27.0002 17.2193 27.0002 16.667V8.66699C27.0002 8.62778 26.9979 8.58909 26.9935 8.55105L18.956 17.5933ZM17.3335 8.66699C17.3335 7.56242 18.2289 6.66699 19.3335 6.66699H26.0002C27.1047 6.66699 28.0002 7.56242 28.0002 8.66699V16.667C28.0002 17.7716 27.1047 18.667 26.0002 18.667H19.3335C18.2289 18.667 17.3335 17.7716 17.3335 16.667V8.66699Z" fill="#5A8B23"/>
<circle cx="2.5" cy="2.5" r="0.5" fill="#5A8B23"/>
<circle cx="5" cy="2.5" r="0.5" fill="#5A8B23"/>
<circle cx="7.5" cy="2.5" r="0.5" fill="#5A8B23"/>
</svg>
